<svg xmlns="http://www.w3.org/2000/svg" xmlns:xlink="http://www.w3.org/1999/xlink" version="1.1" height="56.53125" width="286.70703125" viewBox="0 0 286.70703125 56.53125">
<g id="SvgjsG2230" rel="mainfill" name="main_text" xmlns:name="mainText_mainfill" fill="#ffffff" transform="translate(0.00390625,-1.43359375)">
<path d="M1.8 29.448 c-0.576 -1.008 0.576 0.972 0 0 c-1.584 -2.7 -2.124 -5.904 -1.62 -9 c0.756 -4.392 3.78 -8.172 7.92 -9.936 c4.284 -1.8 9.252 -1.26 12.996 1.476 c0.396 0.288 0.468 0.468 0.288 0.792 l-0.9 1.476 c-0.288 0.432 -0.648 0.54 -1.008 0.216 c-1.656 -1.296 -3.708 -1.836 -5.796 -1.98 c-4.176 0 -8.136 2.376 -9.864 6.264 c-1.8 4.068 -0.684 9 2.772 11.844 c3.42 2.88 8.388 3.096 12.888 0.252 c0.396 -0.252 0.576 -0.288 0.864 0.18 c0 0 0.972 1.62 1.008 1.692 c0.18 0.324 -0.072 0.576 -0.36 0.792 c-3.024 2.232 -6.9... z M269.13599999999997 36 c-0.396 0 -0.576 -0.18 -0.576 -0.576 l0 -24.696 c0 -0.36 0.216 -0.504 0.576 -0.504 l17.028 0 c0.36 0 0.54 0.18 0.54 0.54 l0 1.8 c0 0.432 -0.18 0.648 -0.576 0.648 l-14.544 0 l0 4.32 l11.556 0 c0.324 0 0.54 0.288 0.54 0.612 l0 1.8 c0 0.324 -0.216 0.612 -0.54 0.612 l-11.556 0 l0 4.464 l11.556 0 c0.324 0 0.54 0.252 0.54 0.576 l0 1.836 c0 0.288 -0.216 0.612 -0.54 0.612 l-11.556 0 l0 4.968 l14.436 0 c0.36 0 0.648 0.216 0.648 0.612 l0 1.764 c0 0.396 -0.216 0.612 -0.612 0.612 l-16.92 0 z">
</path>
</g>
<defs id="SvgjsDefs2229">
<g id="SvgjsG2231" rel="mainfill" name="slogan_text" xmlns:name="sloganText_mainfill" fill="#ffffff" transform="translate(1.505859375,36.53125)"></g></defs>
</svg>