<svg width="644" height="190"><defs id="SvgjsDefs4809"></defs><g id="SvgjsG4810" featurekey="root" fill="#273142"></g><g id="SvgjsG4811" featurekey="text4" fill="#2895d9" transform="matrix(13.877462387084961,0,0,13.877462387084961,13.053050689212803,-142.83554843437128)"><path d="M9.86 20.06 c-0.26 1.02 -0.76 2.08 -1.6 2.74 c-1.36 1.1 -3.34 1.54 -5.02 0.86 c-1.64 -0.66 -2.94 -2.12 -3.32 -3.88 c-0.08 -0.42 -0.14 -0.86 -0.14 -1.3 c0.02 -1.46 0.32 -2.9 1.22 -4.06 c0.6 -0.8 1.48 -1.7 2.3 -2.28 c0.38 -0.28 0.78 -0.54 1.2 -0.78 c0.4 -0.24 0.9 -0.38 1.38 -0.34 c0.42 0.04 0.68 0.34 0.68 0.68 c0.12 0.24 0.1 0.48 0.08 0.78 c-0.04 0.34 -0.02 2.3 0 2.94 c0.02 0.62 0.04 1.26 0.06 1.9 c0 0.34 0.02 0.68 0.04 1 c0 0.28 0.04 0.56 -0.02 0.82 c-0.02 0.12 -0.18 0.18 -0.28 0.12 c-0.06 -0.04 -0.1 -0.06 -0.12 -0.1 c-0.06 0.02 -0.12 0 -0.16 0 c-0.26 -0.08 -0.44 -0.28 -0.56 -0.52 c-0.08 -0.12 -0.12 -0.26 -0.16 -0.38 l-0.06 0 l0 0.06 c0.12 0.46 0.4 1.1 0.98 1 c0.42 -0.08 0.5 0.54 0.08 0.58 c-0.52 0.06 -1.06 -0.28 -1.28 -0.76 c-0.28 -0.62 -0.26 -1.28 -0.28 -1.92 c-0.04 -1.3 -0.08 -2.58 -0.12 -3.86 c-0.08 0.06 -0.16 0.12 -0.26 0.18 c-1.36 1.04 -2.1 2.4 -2.42 4.1 c-0.02 0.16 -0.04 0.16 -0.04 0.28 c-0.02 0.1 -0.02 0.22 -0.02 0.32 c-0.02 0.48 0.06 0.94 0.2 1.38 c0.38 1.18 1.08 2.3 2.38 2.38 c0.08 0 0.18 0.02 0.26 0.02 c0.74 -0.02 1.44 -0.28 1.98 -0.76 c0.2 -0.18 0.4 -0.42 0.52 -0.66 c0.36 -0.64 0.44 -1.4 0.42 -2.1 c-0.02 -0.34 -0.04 -0.68 -0.2 -0.98 c0.02 0.02 0.02 0.06 0.04 0.08 c-0.26 -0.58 -0.18 -1.26 0.42 -1.6 c0.56 -0.34 1.24 -0.1 1.6 0.42 c0.66 1.02 0.52 2.52 0.22 3.64 z M5.04 15.3 l0.1 0 c-0.04 -0.74 -0.04 -1.48 0.02 -2.22 c-0.1 0.08 -0.22 0.16 -0.32 0.22 c0.06 0.68 0.14 1.34 0.2 2 z"></path></g><g id="SvgjsG4812" featurekey="text1" fill="#ffffff" transform="matrix(3.7408783435821533,0,0,3.7408783435821533,173.82299560532914,23.236390372598066)"><path d="M9.86 20.06 c-0.26 1.02 -0.76 2.08 -1.6 2.74 c-1.36 1.1 -3.34 1.54 -5.02 0.86 c-1.64 -0.66 -2.94 -2.12 -3.32 -3.88 c-0.08 -0.42 -0.14 -0.86 -0.14 -1.3 c0.02 -1.46 0.32 -2.9 1.22 -4.06 c0.6 -0.8 1.48 -1.7 2.3 -2.28 c0.38 -0.28 0.78 -0.54 1.2 -0.78 c0.4 -0.24 0.9 -0.38 1.38 -0.34 c0.42 0.04 0.68 0.34 0.68 0.68 c0.12 0.24 0.1 0.48 0.08 0.78 c-0.04 0.34 -0.02 2.3 0 2.94 c0.02 0.62 0.04 1.26 0.06 1.9 c0 0.34 0.02 0.68 0.04 1 c0 0.28 0.04 0.56 -0.02 0.82 c-0.02 0.12 -0.18 0.18 -0.28 0.12 c-0.06 -0.04 -0.1 -0.06 -0.12 -0.1 c-0.06 0.02 -0.12 0 -0.16 0 c-0.26 -0.08 -0.44 -0.28 -0.56 -0.52 c-0.08 -0.12 -0.12 -0.26 -0.16 -0.38 l-0.06 0 l0 0.06 c0.12 0.46 0.4 1.1 0.98 1 c0.42 -0.08 0.5 0.54 0.08 0.58 c-0.52 0.06 -1.06 -0.28 -1.28 -0.76 c-0.28 -0.62 -0.26 -1.28 -0.28 -1.92 c-0.04 -1.3 -0.08 -2.58 -0.12 -3.86 c-0.08 0.06 -0.16 0.12 -0.26 0.18 c-1.36 1.04 -2.1 2.4 -2.42 4.1 c-0.02 0.16 -0.04 0.16 -0.04 0.28 c-0.02 0.1 -0.02 0.22 -0.02 0.32 c-0.02 0.48 0.06 0.94 0.2 1.38 c0.38 1.18 1.08 2.3 2.38 2.38 c0.08 0 0.18 0.02 0.26 0.02 c0.74 -0.02 1.44 -0.28 1.98 -0.76 c0.2 -0.18 0.4 -0.42 0.52 -0.66 c0.36 -0.64 0.44 -1.4 0.42 -2.1 c-0.02 -0.34 -0.04 -0.68 -0.2 -0.98 c0.02 0.02 0.02 0.06 0.04 0.08 c-0.26 -0.58 -0.18 -1.26 0.42 -1.6 c0.56 -0.34 1.24 -0.1 1.6 0.42 c0.66 1.02 0.52 2.52 0.22 3.64 z M5.04 15.3 l0.1 0 c-0.04 -0.74 -0.04 -1.48 0.02 -2.22 c-0.1 0.08 -0.22 0.16 -0.32 0.22 c0.06 0.68 0.14 1.34 0.2 2 z M18.939999999999998 24.24 c-1.1 -0.08 -2.18 -0.1 -3.28 -0.04 c-0.54 0.02 -1.08 0.06 -1.62 0.12 c-0.52 0.04 -1.1 0.2 -1.62 0.14 c-0.02 0 -0.02 -0.02 0 -0.04 c0.46 -0.22 1.06 -0.26 1.58 -0.34 c0.52 -0.06 1.02 -0.12 1.52 -0.16 c1.14 -0.1 2.28 -0.14 3.42 -0.12 c0.26 0.02 0.26 0.46 0 0.44 z M19.28 23.42 c-2.28 -0.16 -4.58 0.04 -6.8 0.64 c-0.48 0.12 -1.04 -0.26 -1 -0.78 c0 -0.2 0.02 -0.38 0.02 -0.58 c0.04 -0.78 0.04 -1.56 0.06 -2.34 c-0.12 -0.94 -0.22 -1.9 -0.32 -2.84 c-0.18 -1.9 -0.38 -3.78 -0.5 -5.66 c-0.06 -0.66 0.52 -1.02 1.14 -0.92 c0.2 0.02 0.4 0.1 0.56 0.18 c0.18 0.04 0.36 0.1 0.52 0.22 c0.14 0.72 0.26 1.44 0.36 2.16 l0.1 0.58 c0.02 -0.48 -0.02 -1.22 -0.04 -1.56 c-0.02 -0.44 -0.08 -0.88 -0.3 -1.28 c-0.02 -0.06 0.06 -0.1 0.08 -0.04 c0.54 0.7 0.56 1.66 0.66 2.5 c0.1 1.02 0.18 2.04 0.26 3.04 c0.08 1.06 0.14 2.12 0.18 3.18 l0.06 1.02 c0 0 0.02 0 0.04 -0.02 l0 0.04 c0 0.06 -0.02 0.08 -0.02 0.12 c0.94 -0.24 1.94 -0.36 2.92 -0.38 c0.4 0 0.8 -0.02 1.18 0 c0.3 0.02 0.64 0.06 0.88 0.24 c0.22 0.16 0.44 0.38 0.44 0.68 c0 0.1 -0.02 0.22 -0.04 0.32 c0.08 0.1 0.16 0.2 0.24 0.32 c0.28 0.48 -0.1 1.22 -0.68 1.16 z M11.16 12.54 c0.04 0.36 0.06 0.74 0.1 1.1 c0.12 1.44 0.2 2.86 0.3 4.28 l0 -1.1 l-0.06 -2.94 c-0.02 -0.48 -0.12 -1.18 0.04 -1.7 c0.02 -0.22 0.04 -0.44 0.06 -0.68 c0.02 -0.06 0.06 -0.14 0.1 -0.2 c-0.08 0 -0.2 0.02 -0.3 0.06 c-0.46 0.18 -0.26 0.8 -0.24 1.18 z M21.42 12.94 c0.58 0 0.72 -0.18 0.7 -0.18 c-0.24 0.06 -0.5 0.1 -0.96 0.02 c-0.58 -0.12 -0.8 -0.58 -0.6 -1.04 c-0.1 0.12 -0.18 0.24 -0.26 0.38 c-0.08 0.18 -0.1 0.32 0.06 0.46 c0.12 0.1 0.24 0.18 0.38 0.22 c0.22 0.08 0.44 0.12 0.68 0.14 z M20.080000000000002 12.46 c-0.08 -0.26 0.1 -0.54 0.24 -0.74 s0.3 -0.36 0.5 -0.5 c0.04 -0.04 0.08 -0.08 0.12 -0.1 c0.52 -0.36 1.14 -0.6 1.76 -0.44 c0.54 0.14 0.94 0.44 1.14 0.96 c0.08 0.22 -0.06 0.42 -0.22 0.54 c-0.3 0.22 -0.68 0.4 -1.06 0.48 c-0.24 0.28 -0.68 0.38 -1.06 0.38 c-0.32 0 -0.62 -0.04 -0.92 -0.16 c-0.18 -0.06 -0.46 -0.22 -0.5 -0.42 z M23.5 22.94 c-0.1 0.16 -0.26 0.28 -0.42 0.34 c0.02 0.14 -0.02 0.3 -0.2 0.38 c-0.48 0.24 -1.08 0.12 -1.46 -0.26 c-0.02 -0.02 -0.02 -0.04 -0.04 -0.06 c-0.1 -0.04 -0.2 -0.1 -0.3 -0.18 c-0.42 -0.4 -0.44 -1 -0.52 -1.56 c-0.18 -1.48 -0.28 -2.96 -0.26 -4.46 c0 -0.72 -0.02 -1.46 0.06 -2.18 c0.06 -0.38 0.18 -0.76 0.42 -1 c0.04 -0.08 0.1 -0.14 0.16 -0.2 c0.42 -0.28 1.44 -1.02 1.76 -0.22 c0.14 -0.02 0.3 0.06 0.32 0.24 c0 0.74 -0.04 1.46 -0.04 2.2 c0 0.72 0.04 1.46 0.06 2.2 c0 0.14 0.02 0.32 0.04 0.5 c0.04 -0.02 0.1 0.68 0.14 0.68 c-0.06 -1.42 -0.06 -3.52 0.02 -4.94 c0 -0.04 0.14 -0.06 0.14 -0.04 c-0.08 2.86 0.08 5.7 0.46 8.54 c0.02 0.2 -0.3 0.22 -0.34 0.02 z M21.28 14.78 c-0.3 0.9 -0.28 1.96 -0.32 2.88 l0 0.2 l0 0.04 c0.04 0.48 0.1 0.96 0.16 1.44 l0.06 0 c0 -0.9 -0.02 -1.8 0 -2.7 c0 -0.68 0.04 -1.42 0.26 -2.06 l-0.02 0 c-0.06 0.04 -0.14 0.16 -0.14 0.2 z M27.34 12.56 c-0.08 0.06 -0.18 0.1 -0.28 0.12 c0 0.02 0 0.04 -0.02 0.08 c0.3 1.22 0.58 2.42 0.84 3.66 c0.02 0.02 0.04 0.06 0.04 0.1 c0.08 0.2 0.1 0.34 0.22 0.46 c-0.2 -1.02 -0.46 -2.48 -0.64 -3.5 c-0.04 -0.3 -0.08 -0.6 -0.16 -0.92 z M31.04 18.64 c-0.04 0.3 -0.1 0.6 -0.16 0.9 c0.02 0.02 0.04 0.02 0.06 0.02 l0.02 0 c0.36 -1.52 0.8 -3.04 1.3 -4.54 c-0.04 -0.12 -0.06 -0.26 -0.1 -0.4 c-0.44 1.32 -0.8 2.66 -1.12 4.02 z M35.94 23.6 c-0.3 0.52 -1.04 0.84 -1.54 0.34 c-0.46 -0.1 -0.82 -0.5 -0.82 -0.98 c-0.04 -1.76 -0.26 -3.36 -0.7 -5.1 c-0.2 -0.84 -0.38 -1.68 -0.56 -2.52 c-0.48 1.4 -0.98 3.14 -1.26 4.26 c-0.26 1.1 -0.54 2.34 -0.7 3.18 c-0.02 0.08 -0.1 0.06 -0.08 0 c-0.04 0.2 -0.08 0.4 -0.14 0.6 c-0.1 0.28 -0.22 0.5 -0.54 0.58 c-0.1 0.02 -0.2 0.02 -0.26 -0.02 c-0.1 0 -0.2 -0.02 -0.28 -0.08 c-0.06 0.04 -0.14 0.02 -0.18 -0.06 c-0.18 -0.28 -0.26 -0.58 -0.34 -0.9 l-0.86 -3.06 c-0.18 -0.66 -0.36 -1.34 -0.52 -2 c-0.06 -0.16 -0.12 -0.32 -0.16 -0.5 c0.08 1.68 0.14 3.44 0.18 5.12 c0.02 0.58 0.08 1.32 -0.56 1.6 c-0.12 0.06 -0.26 0.06 -0.34 -0.04 c-0.02 -0.02 -0.04 -0.04 -0.06 -0.08 c-0.24 0.08 -0.52 0.04 -0.7 -0.14 c-0.36 -0.36 -0.4 -0.96 -0.46 -1.44 c-0.16 -1.16 -0.24 -2.28 -0.26 -3.44 c-0.04 -1.18 -0.06 -2.38 -0.06 -3.56 c-0.02 -1.14 -0.1 -2.34 0.12 -3.48 c0.02 -0.1 0.22 -0.1 0.24 0 c0.12 0.8 0.14 1.72 0.16 2.58 c0.04 0 0.06 0.44 0.1 0.44 l0 -0.46 c0 -0.48 -0.02 -0.94 -0.02 -1.42 c-0.02 -0.4 -0.04 -0.84 0.14 -1.22 c0 -0.2 0.1 -0.4 0.34 -0.54 c0.32 -0.2 0.68 -0.24 1 -0.14 c0.38 0.08 0.68 0.34 0.82 0.7 c0.12 0.14 0.2 0.34 0.22 0.54 c0.04 0.48 0.14 0.98 0.22 1.48 c0.34 2.06 0.78 4.4 1.24 6.42 c0.26 -1.12 0.5 -2.24 0.76 -3.36 c0.38 -1.72 0.82 -3.44 1.06 -5.18 c0.04 -0.2 0.26 -0.4 0.48 -0.44 c0.34 -0.1 0.64 -0.06 0.88 0.08 c0.28 -0.22 0.72 -0.22 0.96 0.04 c0.62 0.62 0.96 1.42 1.16 2.24 c0.22 0.9 0.38 1.8 0.54 2.7 c0.06 0.34 0.12 0.7 0.16 1.04 c0.08 0.3 0.14 0.6 0.2 0.88 c0.12 0.66 0.24 1.3 0.38 1.96 c0.12 0.58 0.26 1.16 0.32 1.74 c0.04 0.56 0 1.14 -0.28 1.64 z M42.980000000000004 16.28 c-0.24 -0.26 -0.5 -0.5 -0.76 -0.74 c-0.26 -0.22 -0.46 -0.4 -0.66 -0.54 c-0.56 -0.38 -1.18 -0.74 -1.72 -0.92 c-0.18 -0.06 -0.36 -0.12 -0.54 -0.16 c-0.1 -0.02 -0.22 -0.04 -0.32 -0.06 l-0.06 0 c0.18 0.86 0.3 1.72 0.4 2.6 c0.66 -0.1 1.32 -0.16 1.96 -0.18 c0.58 -0.02 1.14 -0.02 1.7 0 z M44.06 21.54 c-0.62 -0.54 -1.28 -1.02 -2 -1.42 c-0.7 -0.38 -1.46 -0.76 -2.24 -0.98 c-0.04 -0.02 -0.1 -0.04 -0.16 -0.04 c0.08 0.58 0.16 1.18 0.24 1.78 c0.04 0.4 0.1 0.8 0.14 1.2 c0.46 -0.06 0.92 -0.1 1.36 -0.12 c0.8 -0.02 1.6 0.02 2.4 0.14 c0.36 0.04 0.7 0.1 1.04 0.18 c-0.24 -0.26 -0.5 -0.52 -0.78 -0.74 z M47.24 23 c-0.26 0.84 -1.36 0.88 -2.1 0.9 c-0.84 0.02 -1.66 -0.12 -2.48 -0.14 c-1.16 -0.06 -2.28 0.02 -3.4 0.16 c-0.16 0.1 -0.34 0.14 -0.54 0.14 c-0.08 0 -0.16 0 -0.22 -0.02 c-0.26 0.04 -0.52 0.08 -0.76 0.14 c-0.38 0.06 -0.74 -0.1 -0.84 -0.48 c-0.02 -0.04 -0.02 -0.06 -0.02 -0.1 c-0.08 -0.12 -0.12 -0.26 -0.12 -0.4 c0 -0.44 0.34 -0.74 0.76 -0.76 c0.02 0 0.04 0 0.06 -0.02 c-0.04 -1.2 -0.14 -2.4 -0.24 -3.6 c-0.42 -0.12 -0.74 -0.42 -0.74 -0.92 c0 -0.4 0.24 -0.7 0.58 -0.86 c0 -0.02 -0.02 -0.04 -0.02 -0.04 c-0.08 -1 -0.16 -2 -0.26 -3 c-0.2 -0.1 -0.36 -0.24 -0.52 -0.36 c-0.4 -0.38 -0.94 -1.04 -0.52 -1.6 c0.4 -0.52 1.08 -0.64 1.7 -0.66 c0.6 0 1.22 0.1 1.78 0.3 c0.6 0.2 1.2 0.46 1.76 0.76 c1.06 0.56 6.74 4.16 4.72 5.7 c-0.26 0.22 -0.56 0.4 -0.9 0.36 c-0.46 -0.04 -0.86 -0.1 -1.38 -0.16 l-0.96 -0.06 c0.12 0.06 0.22 0.12 0.32 0.18 c0.48 0.3 0.92 0.6 1.36 0.94 c0.9 0.7 1.74 1.5 2.46 2.36 c0.36 0.34 0.66 0.74 0.52 1.24 z M48.4 12.94 c0.58 0 0.72 -0.18 0.7 -0.18 c-0.24 0.06 -0.5 0.1 -0.96 0.02 c-0.58 -0.12 -0.8 -0.58 -0.6 -1.04 c-0.1 0.12 -0.18 0.24 -0.26 0.38 c-0.08 0.18 -0.1 0.32 0.06 0.46 c0.12 0.1 0.24 0.18 0.38 0.22 c0.22 0.08 0.44 0.12 0.68 0.14 z M47.06 12.46 c-0.08 -0.26 0.1 -0.54 0.24 -0.74 s0.3 -0.36 0.5 -0.5 c0.04 -0.04 0.08 -0.08 0.12 -0.1 c0.52 -0.36 1.14 -0.6 1.76 -0.44 c0.54 0.14 0.94 0.44 1.14 0.96 c0.08 0.22 -0.06 0.42 -0.22 0.54 c-0.3 0.22 -0.68 0.4 -1.06 0.48 c-0.24 0.28 -0.68 0.38 -1.06 0.38 c-0.32 0 -0.62 -0.04 -0.92 -0.16 c-0.18 -0.06 -0.46 -0.22 -0.5 -0.42 z M50.480000000000004 22.94 c-0.1 0.16 -0.26 0.28 -0.42 0.34 c0.02 0.14 -0.02 0.3 -0.2 0.38 c-0.48 0.24 -1.08 0.12 -1.46 -0.26 c-0.02 -0.02 -0.02 -0.04 -0.04 -0.06 c-0.1 -0.04 -0.2 -0.1 -0.3 -0.18 c-0.42 -0.4 -0.44 -1 -0.52 -1.56 c-0.18 -1.48 -0.28 -2.96 -0.26 -4.46 c0 -0.72 -0.02 -1.46 0.06 -2.18 c0.06 -0.38 0.18 -0.76 0.42 -1 c0.04 -0.08 0.1 -0.14 0.16 -0.2 c0.42 -0.28 1.44 -1.02 1.76 -0.22 c0.14 -0.02 0.3 0.06 0.32 0.24 c0 0.74 -0.04 1.46 -0.04 2.2 c0 0.72 0.04 1.46 0.06 2.2 c0 0.14 0.02 0.32 0.04 0.5 c0.04 -0.02 0.1 0.68 0.14 0.68 c-0.06 -1.42 -0.06 -3.52 0.02 -4.94 c0 -0.04 0.14 -0.06 0.14 -0.04 c-0.08 2.86 0.08 5.7 0.46 8.54 c0.02 0.2 -0.3 0.22 -0.34 0.02 z M48.26 14.78 c-0.3 0.9 -0.28 1.96 -0.32 2.88 l0 0.2 l0 0.04 c0.04 0.48 0.1 0.96 0.16 1.44 l0.06 0 c0 -0.9 -0.02 -1.8 0 -2.7 c0 -0.68 0.04 -1.42 0.26 -2.06 l-0.02 0 c-0.06 0.04 -0.14 0.16 -0.14 0.2 z M52 21.86 c-0.12 -1.42 -0.14 -3 -0.2 -4.44 c-0.06 -1.42 -0.08 -2.86 -0.1 -4.3 c-0.02 -0.34 0.02 -0.72 0.16 -1.04 c-0.02 0.64 0 1.28 0.02 1.92 c0.02 1.38 0.06 2.78 0.1 4.18 c0.06 1.4 0.12 3.08 0.18 4.5 c0 0 -0.08 0.04 -0.16 -0.82 z M59.64 24.06 c-0.12 0.08 -0.28 0.06 -0.4 0 c-0.54 -0.24 -0.66 -0.86 -0.76 -1.38 c-0.04 -0.24 -0.08 -0.46 -0.12 -0.68 l-3.48 -6.22 c-0.12 -0.14 -0.22 -0.3 -0.32 -0.44 c0.02 1.36 0 2.72 0 4.08 c0.04 0.8 0.06 1.6 0.08 2.4 c0.02 0.62 0.24 1.78 -0.58 1.9 c-0.24 0.4 -0.7 0.56 -1.14 0.42 c-0.24 -0.06 -0.42 -0.2 -0.56 -0.38 c-0.1 -1.68 -0.16 -3.36 -0.22 -5.04 c-0.06 -1.36 -0.08 -2.74 -0.12 -4.1 c-0.02 -0.88 -0.06 -1.76 0 -2.62 c0.1 -0.08 0.24 -0.16 0.38 -0.18 c0 -0.16 0.06 -0.32 0.16 -0.46 c0.62 -0.82 1.76 0.36 2.14 0.86 c0.68 0.9 1.24 1.86 1.78 2.84 c0.46 0.78 0.88 1.58 1.28 2.4 c0.04 0.08 0.04 0.14 0.04 0.2 c0.12 0.22 0.22 0.42 0.32 0.62 c-0.1 -1 -0.32 -2.06 -0.5 -3.08 c-0.14 -0.72 -0.26 -1.44 -0.46 -2.16 c-0.1 -0.38 -0.28 -0.76 -0.06 -1.16 c0.08 -0.14 0.2 -0.28 0.34 -0.36 c0 -0.02 0.02 -0.02 0.02 -0.04 c0.24 -0.44 0.84 -0.4 1.18 -0.16 c0.06 0.02 0.1 0.06 0.14 0.1 c0.08 0.38 0.2 0.76 0.3 1.14 c0.32 1.16 0.52 2.38 0.7 3.58 c0.4 2.44 0.62 4.92 0.78 7.38 c-0.22 0.3 -0.54 0.54 -0.92 0.54 z M60.760000000000005 23.32 c-0.04 0 -0.06 0.02 -0.08 0.06 c-0.26 -3.82 -0.7 -7.62 -1.52 -11.34 c-0.02 -0.06 -0.02 -0.14 0.06 -0.22 c0.1 -0.12 0.34 -0.12 0.38 0.08 c0.72 3.48 1.16 7.02 1.14 10.56 c0.02 0.14 0.04 0.58 0.02 0.86 z M54.24 20.88 l-0.06 0.06 c0 0 -0.02 0 -0.04 0.02 l-0.02 1.2 c0 0.32 0.2 0.78 0.08 1.28 c0.12 -0.2 0.18 -0.5 0.16 -0.68 c-0.02 -0.38 -0.04 -0.78 -0.08 -1.18 c0 -0.24 -0.02 -0.46 -0.04 -0.7 z M72.28 15.9 c-0.26 0.7 -0.56 1.36 -0.96 1.98 c-0.5 0.82 -1.1 1.56 -1.8 2.2 c-0.36 0.38 -0.76 0.76 -1.2 1.06 c-0.72 0.5 -1.52 0.92 -2.36 1.14 c-0.08 0.02 -0.14 0.04 -0.22 0.06 c-0.42 0.12 -0.9 0.2 -1.34 0.2 c0.2 0.22 1.38 -0.04 1.54 -0.08 c0.46 -0.12 0.92 -0.3 1.34 -0.52 c0.8 -0.38 3.38 -2.1 4.72 -5.02 c0.02 0.04 0.04 0.08 0.08 0.12 c-0.08 0.32 -0.14 0.64 -0.24 0.96 l-0.06 0.18 l-0.12 0.24 c-0.66 1.04 -1.44 1.98 -2.4 2.74 c-0.86 0.66 -1.82 1.2 -2.9 1.46 c-0.52 0.12 -1.04 0.18 -1.58 0.18 c-0.16 -0.02 -0.46 -0.08 -0.48 -0.26 c-0.4 -0.02 -0.8 -0.1 -1.16 -0.32 c-0.44 -0.26 -0.8 -0.66 -1.06 -1.14 c-0.5 -0.54 -0.84 -1.24 -0.94 -2.02 c-0.24 -1.6 0.52 -3.14 1.54 -4.32 c0.92 -1.06 2.12 -1.94 3.46 -2.36 c0.02 -0.12 0.1 -0.22 0.26 -0.26 c1.44 -0.38 3.02 -0.62 4.5 -0.32 c0.5 0.1 1.42 0.32 1.18 1.04 c-0.08 0.22 -0.28 0.28 -0.5 0.32 c0.04 0.12 -0.04 0.26 -0.18 0.26 c-0.44 -0.02 -0.88 0.02 -1.34 0 c-0.4 0 -0.8 0.02 -1.2 0.08 c-0.8 0.12 -1.6 0.38 -2.32 0.76 c-1.24 0.68 -2.26 1.76 -2.86 3.04 c-0.3 0.64 -0.54 1.38 -0.54 2.1 c-0.02 0.6 0.16 1.24 0.64 1.54 c0.08 0.02 0.18 0.04 0.26 0.06 c0.48 0.08 0.96 0.04 1.44 -0.08 c0.14 -0.04 0.28 -0.1 0.4 -0.14 c0.64 -0.28 1.26 -0.7 1.76 -1.18 c0.58 -0.56 1.06 -1.18 1.48 -1.86 c0.2 -0.32 0.38 -0.64 0.56 -0.96 l-0.08 0 c-0.44 0.1 -0.88 0.18 -1.32 0.28 c-0.9 0.2 -1.78 0.48 -2.68 0.72 c-0.84 0.22 -1.38 -1 -0.6 -1.42 l0.12 -0.06 c-0.04 -0.32 0.1 -0.66 0.5 -0.76 c0.02 -0.02 0.06 -0.02 0.1 -0.04 c0.9 -0.26 1.82 -0.5 2.74 -0.72 s1.84 -0.48 2.78 -0.6 c0.48 -0.06 0.98 0.2 1.12 0.68 c0.1 0.34 0.04 0.72 -0.08 1.04 z  M87.46000000000001 15.9 c-0.26 0.7 -0.56 1.36 -0.96 1.98 c-0.5 0.82 -1.1 1.56 -1.8 2.2 c-0.36 0.38 -0.76 0.76 -1.2 1.06 c-0.72 0.5 -1.52 0.92 -2.36 1.14 c-0.08 0.02 -0.14 0.04 -0.22 0.06 c-0.42 0.12 -0.9 0.2 -1.34 0.2 c0.2 0.22 1.38 -0.04 1.54 -0.08 c0.46 -0.12 0.92 -0.3 1.34 -0.52 c0.8 -0.38 3.38 -2.1 4.72 -5.02 c0.02 0.04 0.04 0.08 0.08 0.12 c-0.08 0.32 -0.14 0.64 -0.24 0.96 l-0.06 0.18 l-0.12 0.24 c-0.66 1.04 -1.44 1.98 -2.4 2.74 c-0.86 0.66 -1.82 1.2 -2.9 1.46 c-0.52 0.12 -1.04 0.18 -1.58 0.18 c-0.16 -0.02 -0.46 -0.08 -0.48 -0.26 c-0.4 -0.02 -0.8 -0.1 -1.16 -0.32 c-0.44 -0.26 -0.8 -0.66 -1.06 -1.14 c-0.5 -0.54 -0.84 -1.24 -0.94 -2.02 c-0.24 -1.6 0.52 -3.14 1.54 -4.32 c0.92 -1.06 2.12 -1.94 3.46 -2.36 c0.02 -0.12 0.1 -0.22 0.26 -0.26 c1.44 -0.38 3.02 -0.62 4.5 -0.32 c0.5 0.1 1.42 0.32 1.18 1.04 c-0.08 0.22 -0.28 0.28 -0.5 0.32 c0.04 0.12 -0.04 0.26 -0.18 0.26 c-0.44 -0.02 -0.88 0.02 -1.34 0 c-0.4 0 -0.8 0.02 -1.2 0.08 c-0.8 0.12 -1.6 0.38 -2.32 0.76 c-1.24 0.68 -2.26 1.76 -2.86 3.04 c-0.3 0.64 -0.54 1.38 -0.54 2.1 c-0.02 0.6 0.16 1.24 0.64 1.54 c0.08 0.02 0.18 0.04 0.26 0.06 c0.48 0.08 0.96 0.04 1.44 -0.08 c0.14 -0.04 0.28 -0.1 0.4 -0.14 c0.64 -0.28 1.26 -0.7 1.76 -1.18 c0.58 -0.56 1.06 -1.18 1.48 -1.86 c0.2 -0.32 0.38 -0.64 0.56 -0.96 l-0.08 0 c-0.44 0.1 -0.88 0.18 -1.32 0.28 c-0.9 0.2 -1.78 0.48 -2.68 0.72 c-0.84 0.22 -1.38 -1 -0.6 -1.42 l0.12 -0.06 c-0.04 -0.32 0.1 -0.66 0.5 -0.76 c0.02 -0.02 0.06 -0.02 0.1 -0.04 c0.9 -0.26 1.82 -0.5 2.74 -0.72 s1.84 -0.48 2.78 -0.6 c0.48 -0.06 0.98 0.2 1.12 0.68 c0.1 0.34 0.04 0.72 -0.08 1.04 z M97.16000000000001 20.14 c-0.3 0.98 -0.76 1.96 -1.52 2.66 c-0.06 0.04 -0.1 0.08 -0.14 0.12 c-0.18 0.2 -0.54 0.52 -0.88 0.68 c-1.38 0.88 -3.24 0.14 -4.24 -1.02 c-0.34 -0.4 -0.62 -0.84 -0.84 -1.3 c-0.24 0.02 -0.52 -0.08 -0.64 -0.38 c-0.98 -2.48 -1.08 -5.28 -0.48 -7.86 c0.22 -1 0.84 -2.22 2.04 -2.04 c0.48 0.06 0.9 0.4 1.08 0.84 c0.22 0.6 -0.1 1.34 -0.14 1.96 c-0.06 0.76 -0.06 1.52 -0.02 2.26 c0.1 1.54 0.46 3.04 1 4.48 c0.28 0.22 0.58 0.38 0.94 0.4 c0.38 -0.08 0.72 -0.24 1 -0.48 c0.46 -0.68 0.42 -1.94 0.46 -2.62 c0.12 -1.78 0.1 -3.56 0.08 -5.36 c-0.02 -0.6 0.7 -1 1.2 -0.72 l0 -0.2 c0 -0.2 0.18 -0.42 0.4 -0.4 c0.9 0.1 0.98 1.06 1.04 1.8 c0.04 0.48 0.12 0.96 0.12 1.44 l0 0.8 c0.08 1.66 0 3.34 -0.46 4.94 z M91.32000000000001 13.1 c-0.04 0.02 -0.1 0 -0.12 -0.04 c-0.04 0.18 -0.08 0.36 -0.16 0.52 c-0.16 1.36 -0.16 2.74 0.1 4.06 c0.04 0.26 0.1 0.52 0.16 0.76 c0.02 0 0.04 0 0.06 0.02 c-0.32 -1.76 -0.34 -3.56 -0.04 -5.32 z M99.34000000000002 12.94 c0.58 0 0.72 -0.18 0.7 -0.18 c-0.24 0.06 -0.5 0.1 -0.96 0.02 c-0.58 -0.12 -0.8 -0.58 -0.6 -1.04 c-0.1 0.12 -0.18 0.24 -0.26 0.38 c-0.08 0.18 -0.1 0.32 0.06 0.46 c0.12 0.1 0.24 0.18 0.38 0.22 c0.22 0.08 0.44 0.12 0.68 0.14 z M98.00000000000001 12.46 c-0.08 -0.26 0.1 -0.54 0.24 -0.74 s0.3 -0.36 0.5 -0.5 c0.04 -0.04 0.08 -0.08 0.12 -0.1 c0.52 -0.36 1.14 -0.6 1.76 -0.44 c0.54 0.14 0.94 0.44 1.14 0.96 c0.08 0.22 -0.06 0.42 -0.22 0.54 c-0.3 0.22 -0.68 0.4 -1.06 0.48 c-0.24 0.28 -0.68 0.38 -1.06 0.38 c-0.32 0 -0.62 -0.04 -0.92 -0.16 c-0.18 -0.06 -0.46 -0.22 -0.5 -0.42 z M101.42000000000002 22.94 c-0.1 0.16 -0.26 0.28 -0.42 0.34 c0.02 0.14 -0.02 0.3 -0.2 0.38 c-0.48 0.24 -1.08 0.12 -1.46 -0.26 c-0.02 -0.02 -0.02 -0.04 -0.04 -0.06 c-0.1 -0.04 -0.2 -0.1 -0.3 -0.18 c-0.42 -0.4 -0.44 -1 -0.52 -1.56 c-0.18 -1.48 -0.28 -2.96 -0.26 -4.46 c0 -0.72 -0.02 -1.46 0.06 -2.18 c0.06 -0.38 0.18 -0.76 0.42 -1 c0.04 -0.08 0.1 -0.14 0.16 -0.2 c0.42 -0.28 1.44 -1.02 1.76 -0.22 c0.14 -0.02 0.3 0.06 0.32 0.24 c0 0.74 -0.04 1.46 -0.04 2.2 c0 0.72 0.04 1.46 0.06 2.2 c0 0.14 0.02 0.32 0.04 0.5 c0.04 -0.02 0.1 0.68 0.14 0.68 c-0.06 -1.42 -0.06 -3.52 0.02 -4.94 c0 -0.04 0.14 -0.06 0.14 -0.04 c-0.08 2.86 0.08 5.7 0.46 8.54 c0.02 0.2 -0.3 0.22 -0.34 0.02 z M99.20000000000002 14.78 c-0.3 0.9 -0.28 1.96 -0.32 2.88 l0 0.2 l0 0.04 c0.04 0.48 0.1 0.96 0.16 1.44 l0.06 0 c0 -0.9 -0.02 -1.8 0 -2.7 c0 -0.68 0.04 -1.42 0.26 -2.06 l-0.02 0 c-0.06 0.04 -0.14 0.16 -0.14 0.2 z M111.12 20.06 c-0.3 -0.46 -0.6 -0.92 -0.92 -1.36 c-0.6 -0.8 -1.28 -1.56 -2.04 -2.22 c-0.76 -0.7 -1.56 -1.28 -2.5 -1.82 c-0.12 -0.06 -0.24 -0.12 -0.38 -0.2 c0.34 1.66 0.64 3.34 0.92 5 c0.1 0.6 0.22 1.2 0.32 1.8 c0.62 0.22 1.26 0.42 1.92 0.56 c0.52 0.12 0.78 0.16 1.3 0.18 c0.48 0 0.78 0 1.2 -0.12 c0.34 -0.08 0.62 -0.18 0.84 -0.38 c-0.04 -0.26 -0.16 -0.48 -0.28 -0.72 s-0.24 -0.5 -0.38 -0.72 z M102.64 13.96 c-0.02 -0.08 -0.24 -0.38 -0.18 -0.1 c0.34 1.38 0.62 2.76 0.98 4.14 c0.18 0.72 0.36 1.42 0.54 2.14 c0.12 0.06 0.24 0.14 0.36 0.2 c-0.12 -0.34 -0.24 -0.68 -0.32 -1.02 c-0.26 -0.94 -1.12 -4.5 -1.38 -5.36 z M113.42 22.18 c-0.38 0.88 -1.4 1.44 -2.3 1.66 c-1.04 0.24 -2.08 0.2 -3.14 0.04 c-0.5 -0.08 -1 -0.18 -1.48 -0.3 c-0.08 0.18 -0.22 0.32 -0.38 0.36 c-0.1 0.02 -0.2 0 -0.28 -0.04 c-0.08 0.08 -0.18 0.14 -0.32 0.14 c-0.26 0.02 -0.54 -0.02 -0.74 -0.16 c-0.44 -0.3 -0.58 -0.62 -0.68 -1.1 c-0.64 -0.26 -1.26 -0.54 -1.88 -0.86 c-0.58 -0.32 -0.76 -1.1 -0.42 -1.66 c0.32 -0.56 1.08 -0.76 1.64 -0.44 c0.02 0.02 0.06 0.04 0.08 0.06 c-0.04 -0.24 -0.08 -0.46 -0.14 -0.7 c-0.44 -2.24 -0.9 -4.46 -1.36 -6.68 c-0.02 -0.08 -0.06 -0.16 -0.08 -0.22 c-0.12 -0.4 0.18 -0.74 0.54 -0.8 c0.1 -0.02 0.2 -0.04 0.28 -0.04 c0.18 -0.52 1.1 -0.68 1.56 -0.64 c1.34 0.1 2.3 0.98 3.24 1.88 c1.04 1 2.08 2.02 3.04 3.12 c0.34 0.36 0.68 0.74 0.98 1.14 c0.5 0.66 0.98 1.36 1.36 2.12 c0.48 0.94 0.92 2.08 0.48 3.12 z M115.82000000000001 24.26 c0.3 0.04 0.76 0 0.82 -0.02 c0.02 0 0.04 0 0.06 -0.02 c0.16 -0.08 0.32 -0.16 0.46 -0.24 c0.32 -0.16 0.62 -0.32 0.92 -0.48 l0 -0.04 c-0.36 0.14 -0.72 0.28 -1.1 0.4 c-0.38 0.14 -0.76 0.3 -1.16 0.4 z M120.26 17.4 l-0.02 -0.06 c-0.62 0.2 -1.24 0.38 -1.86 0.58 c-0.4 0.12 -0.78 0.24 -1.16 0.34 c-0.04 0.22 -0.16 0.42 -0.32 0.56 c0.98 -0.5 2.02 -0.88 3.02 -1.28 c0.12 -0.06 0.22 -0.1 0.34 -0.14 z M113.86 13.44 c1.32 -0.7 2.8 -1.14 4.24 -1.52 c0.16 -0.04 0.3 -0.08 0.46 -0.12 c0.82 -0.16 1.64 -0.32 2.5 -0.38 c0.18 -0.02 0.36 -0.02 0.54 -0.02 c-0.78 0.2 -1.58 0.4 -2.36 0.58 c-1.36 0.3 -2.72 0.6 -4.04 1.06 c-0.46 0.14 -0.9 0.32 -1.34 0.52 c-0.04 -0.02 -0.04 -0.08 0 -0.12 z M125.08000000000001 21.58 c-0.02 0.1 -0.08 0.18 -0.2 0.2 c-1.48 0.28 -2.96 0.66 -4.38 1.16 c-0.68 0.24 -1.36 0.48 -2.02 0.76 l-0.02 0 c-0.04 0.02 -0.1 0.04 -0.14 0.06 c-0.22 0.1 -0.44 0.18 -0.66 0.28 l-0.02 0.02 c-0.24 0.16 -1.38 0.5 -1.36 0.48 c0 0 -0.12 0.02 -0.2 0.02 c-0.32 0.06 -0.68 0.04 -0.84 -0.3 c-0.04 -0.1 -0.04 -0.18 -0.02 -0.28 c-0.5 -0.2 -0.84 -0.8 -0.66 -1.32 c-0.12 -0.68 -0.16 -1.4 -0.22 -2.1 l-0.24 -2.4 l-0.24 -2.28 c-0.24 -0.26 -0.36 -0.64 -0.32 -0.98 c0.04 -0.4 0.22 -0.7 0.5 -0.94 c0.02 -0.04 0.06 -0.1 0.08 -0.16 c0.42 -0.18 0.86 -0.34 1.28 -0.48 c1.32 -0.46 2.68 -0.76 4.04 -1.04 c1.06 -0.24 2.1 -0.52 3.14 -0.8 c0.14 0.02 0.28 0.04 0.4 0.08 s0.22 0.08 0.32 0.12 c0.1 0.08 0.22 0.18 0.32 0.26 c0.14 0.42 0.2 0.84 0.12 1.24 c-0.32 0.1 -0.66 0.2 -1 0.3 c-0.44 0.14 -0.9 0.28 -1.36 0.4 c-0.04 0.02 -0.08 0.04 -0.12 0.04 c-1.02 0.28 -3 0.88 -3.22 0.98 c-0.64 0.22 -1.28 0.46 -1.9 0.72 l-0.04 0.04 c0.02 0.2 0.14 0.92 0.14 1.02 c1.12 -0.48 2.22 -0.96 3.36 -1.38 c0.64 -0.16 1.3 -0.34 1.94 -0.52 c0.08 -0.02 0.18 -0.04 0.26 -0.06 c0.24 -0.04 0.46 -0.06 0.7 -0.08 c0.5 -0.02 0.98 0 1.26 0.48 c0.04 0.06 0.06 0.12 0.08 0.16 c0.04 0.08 0.08 0.16 0.1 0.24 c0.02 0.02 0.02 0.02 0.04 0.02 c0.18 0.1 0.3 0.3 0.34 0.5 c0.08 0.38 -0.16 0.82 -0.52 1 c-0.42 0.2 -0.86 0.18 -1.32 0.28 c-0.48 0.08 -0.98 0.18 -1.46 0.3 c-0.96 0.26 -1.9 0.56 -2.84 0.96 c-0.58 0.24 -1.12 0.52 -1.68 0.8 c0.04 0.44 0.08 0.86 0.12 1.3 l0 0.08 c0.02 -0.02 0.04 -0.02 0.06 -0.04 c0.44 -0.2 0.88 -0.38 1.32 -0.56 c0.56 -0.22 1.12 -0.44 1.7 -0.66 c0.3 -0.12 0.6 -0.24 0.9 -0.34 c0.48 -0.18 0.96 -0.36 1.44 -0.52 l0.78 -0.24 c0.22 -0.06 0.42 -0.16 0.64 -0.22 c1.54 -0.32 1.92 1.44 2 2.58 c0.02 0.36 -0.14 0.64 -0.38 0.82 z"></path></g><g id="SvgjsG4813" featurekey="text3" fill="#2895d9" transform="matrix(0.8061267733573914,0,0,0.8061267733573914,172.9032642084936,125.0503821919808)"><path d="M10.76 7.300000000000001 c0 0.56 -0.08 2 -0.78 2 c0 -2 -1.84 -2 -3.06 -2 c-0.6 0 -0.76 0.42 -0.76 0.84 l0 10.1 c0 0.62 0.48 1.16 1.22 1.16 l0.74 0 l0 0.6 l-5.34 0 l0 -0.6 l0.68 0 c0.6 0 1.24 -0.44 1.24 -1.16 l0 -10.02 c0 -0.52 -0.12 -0.94 -0.8 -0.94 c-2.62 0 -2.98 1.2 -3.14 1.66 c-0.26 0 -0.64 -0.7 -0.64 -1.28 c0 -0.26 0 -0.78 0.58 -1.08 c0.44 -0.22 1.22 -0.22 1.86 -0.22 c0.72 0 1.46 0.06 2.88 0.06 c0.42 0 3.62 -0.1 4.2 -0.1 c0.92 0 1.12 0.56 1.12 0.98 z M24.380000000000003 7.039999999999999 c-0.56 0 -0.98 0.38 -0.98 0.96 l0 10.26 c0 0.52 0.24 1.14 1.04 1.14 l0.68 0 l0 0.6 l-4.76 0 l0 -0.6 l0.52 0 c0.98 0 1.06 -0.92 1.06 -1.14 l0 -4.52 c0 -0.16 -0.04 -0.32 -0.32 -0.36 l-6.68 0 c-0.26 0 -0.26 0.34 -0.26 0.34 l0 4.54 c0 0.54 0.22 1.14 0.96 1.14 l0.62 0 l0 0.6 l-4.62 0 l0 -0.6 l0.6 0 c0.72 0 0.98 -0.52 0.98 -1.14 l0 -10.2 c0 -0.6 -0.28 -1.02 -0.92 -1.02 l-0.66 0 l0 -0.58 l4.62 0 l0 0.58 l-0.72 0 c-0.68 0 -0.86 0.56 -0.86 0.96 l0 3.9 s0 0.36 0.26 0.36 l6.68 0 c0.28 0 0.32 -0.24 0.32 -0.34 l0 -3.86 c0 -0.66 -0.36 -1.02 -0.86 -1.02 l-0.72 0 l0 -0.58 l4.76 0 l0 0.58 l-0.74 0 z M34.54 6.34 c2.08 0 2.5 0.52 2.52 1.9 c0 0.74 -0.52 1.56 -1.18 1.56 c0 -1.8 -0.64 -2.58 -2.9 -2.58 c-1.3 0 -3.1 0.12 -3.1 0.98 l0 4.2 l3.42 0 c1 0 1.16 0.46 1.16 0.76 c0 0.58 -0.72 1.16 -1.28 1.16 c0 -0.54 -0.38 -0.9 -1.28 -0.9 l-2.02 0 l0 4.94 c0 0.72 1.94 0.74 3.34 0.74 c2.62 0 3.3 -1.98 3.3 -2.32 c0.58 0 1.08 0.56 1.08 1.16 c0 1.72 -2 2.06 -3.94 2.06 l-6.84 0 l0 -0.72 l0.66 0 c0.42 0 0.96 -0.26 0.96 -0.9 l0 -10.4 c0 -0.36 -0.14 -0.94 -0.96 -0.94 l-0.62 0 l0 -0.58 l2.84 0 c0.98 0 3.82 -0.12 4.84 -0.12 z  M52.4 20.34 c-3.78 0 -6.66 -3.16 -6.66 -7.06 c0 -4.08 2.44 -7.1 6.6 -7.1 c4.44 0 6.7 3.18 6.7 7.1 c0 3.78 -2.4 7.06 -6.64 7.06 z M47.36 13.280000000000001 c0 3.2 1.84 6.04 5.08 6.06 c3.12 0 4.98 -2.68 4.98 -6.06 c0 -3.42 -1.8 -6.16 -5.12 -6.16 c-3.44 0 -4.9 3.1 -4.94 6.16 z M66.12 6.140000000000001 c3.72 0 4.9 2.2 4.9 4.48 c0 2.5 -1.98 4.46 -4.52 4.46 c-1.04 0 -2.14 -0.34 -2.14 -1.2 c0 -0.36 0.36 -0.72 0.82 -0.74 c0 0.26 0.3 1 1.44 1 c1.92 0 2.9 -1.74 2.9 -3.44 c0 -1.66 -0.84 -3.64 -3.7 -3.64 c-0.86 0 -1.98 0.26 -2.44 0.68 l0 10.44 c0 1.04 0.82 1.22 1.4 1.22 l0.56 0 l0 0.6 l-5.14 0 l0 -0.6 l0.62 0 c0.62 0 1.1 -0.42 1.1 -0.94 l0 -10.32 c0 -0.7 -0.48 -1.08 -1.2 -1.08 l-0.52 0 l0 -0.6 l1.68 0 c1.9 -0.02 2.68 -0.32 4.24 -0.32 z M79.74 6.34 c2.08 0 2.5 0.52 2.52 1.9 c0 0.74 -0.52 1.56 -1.18 1.56 c0 -1.8 -0.64 -2.58 -2.9 -2.58 c-1.3 0 -3.1 0.12 -3.1 0.98 l0 4.2 l3.42 0 c1 0 1.16 0.46 1.16 0.76 c0 0.58 -0.72 1.16 -1.28 1.16 c0 -0.54 -0.38 -0.9 -1.28 -0.9 l-2.02 0 l0 4.94 c0 0.72 1.94 0.74 3.34 0.74 c2.62 0 3.3 -1.98 3.3 -2.32 c0.58 0 1.08 0.56 1.08 1.16 c0 1.72 -2 2.06 -3.94 2.06 l-6.84 0 l0 -0.72 l0.66 0 c0.42 0 0.96 -0.26 0.96 -0.9 l0 -10.4 c0 -0.36 -0.14 -0.94 -0.96 -0.94 l-0.62 0 l0 -0.58 l2.84 0 c0.98 0 3.82 -0.12 4.84 -0.12 z M86.14 18.26 l0 -10.04 c0 -0.52 -0.22 -1.18 -1.3 -1.18 l-0.36 0 l0 -0.58 l1.7 0 c1.52 0 2 0.68 2.66 1.64 l6.3 9.32 l0 -9.2 c0 -0.7 -0.3 -1.18 -0.92 -1.18 l-0.7 0 l0 -0.58 l4.46 0 l0 0.58 l-0.56 0 c-0.76 0 -0.98 0.58 -0.98 1 l0 10.14 c0 1.06 0.66 1.56 0.84 1.56 c-0.34 0.4 -0.9 0.4 -1.26 0.4 c-0.34 0 -0.8 -0.18 -1.12 -0.62 c-0.52 -0.68 -7.44 -10.72 -7.44 -10.72 l0 9.32 c0 0.5 0.22 1.28 1.2 1.28 l0.62 0 l0 0.6 l-4.72 0 l0 -0.6 l0.5 0 c0.72 0 1.08 -0.56 1.08 -1.14 z M104 13.879999999999999 c-3.6 -1.52 -4 -2.9 -4 -4.3 c0 -1.54 1.48 -3.4 4.22 -3.4 c2.78 0 4.1 1.32 4.1 2.68 c0 1.24 -0.78 1.56 -1.32 1.56 c0 -2.48 -1.12 -3.32 -2.78 -3.32 c-1.54 0 -2.76 1.06 -2.76 2.4 c0 3.46 7.32 2.92 7.32 7.26 c0 1.84 -1.78 3.56 -4.82 3.56 c-3.1 0 -4.46 -1.64 -4.46 -2.76 c0 -1.26 1.08 -1.44 1.08 -1.44 s0.28 3.18 3.6 3.18 c2.68 0 3.14 -1.74 3.14 -2.38 c0 -0.68 -0.08 -1.68 -3.32 -3.04 z M116.88 20.34 c-3.78 0 -6.66 -3.16 -6.66 -7.06 c0 -4.08 2.44 -7.1 6.6 -7.1 c4.44 0 6.7 3.18 6.7 7.1 c0 3.78 -2.4 7.06 -6.64 7.06 z M111.84 13.280000000000001 c0 3.2 1.84 6.04 5.08 6.06 c3.12 0 4.98 -2.68 4.98 -6.06 c0 -3.42 -1.8 -6.16 -5.12 -6.16 c-3.44 0 -4.9 3.1 -4.94 6.16 z M137.38 7.039999999999999 c-0.38 0 -0.98 0.24 -0.98 0.82 l0 10.12 c0 0.88 0.32 1.4 1.06 1.4 l0.66 0 l0 0.62 l-1.46 0 c-1.04 0 -1.72 -0.62 -1.72 -1.74 l0 -0.42 c-0.68 0.88 -2.1 2.3 -4.16 2.3 c-3.3 0 -4.56 -2.16 -4.56 -5 l0 -7.06 c0 -0.54 -0.2 -1.04 -1.06 -1.04 l-0.52 0 l0 -0.58 l4.62 0 l0 0.58 l-0.72 0 c-0.28 0 -0.86 0.18 -0.86 0.82 l0 7.04 c0 2.56 0.96 4.16 3.08 4.16 c2.54 0 4.18 -2.44 4.18 -3.42 l0 -7.5 c0 -0.6 -0.22 -1.1 -1.06 -1.1 l-0.52 0 l0 -0.58 l4.76 0 l0 0.58 l-0.74 0 z M149.44 16.759999999999998 c1.22 2.22 1.54 2.58 2.32 2.58 l0 0.12 c0 0.56 -0.56 0.82 -1.18 0.82 c-0.96 0 -1.44 -0.94 -2.16 -2.3 c-0.78 -1.46 -1.9 -3.62 -3.66 -3.62 c-0.32 0 -0.98 -0.18 -0.98 -0.68 c0 -0.22 0.08 -0.52 0.22 -0.72 c0 0 0.5 0.32 1.16 0.32 c2.2 0 3.12 -1.82 3.12 -2.98 c0 -1.54 -0.8 -3.24 -3.54 -3.24 c-0.74 0 -1.82 0.2 -2.44 0.56 l0 10.56 c0 0.74 0.44 1.22 1.12 1.22 l0.74 0 l0 0.6 l-5.04 0 l0 -0.6 l0.58 0 c0.76 0 1.14 -0.42 1.14 -1.22 l0 -10.24 c0 -0.56 -0.44 -0.9 -1.14 -0.9 l-0.58 0 l0 -0.58 l1.92 0 c1.56 0 2.32 -0.3 3.82 -0.3 c3.46 0 5 1.8 5 3.96 c0 2.12 -1.84 3.58 -3 3.74 c1.08 0.26 1.98 1.82 2.58 2.9 z M163.01999999999998 10.3 c0 -2.44 -1.44 -3.04 -3.46 -3.04 c-2.1 0 -5.26 1.82 -5.26 6 c0 4.1 2.78 6.04 4.84 6.04 c1.9 0 3.1 -0.56 3.98 -2.2 c0.56 0 0.9 0.42 0.9 0.98 c0 1.5 -2.38 2.26 -4.78 2.26 c-2.68 0 -6.54 -1.8 -6.54 -7.02 c0 -5.36 4.08 -7.1 6.9 -7.1 s4.64 0.78 4.64 2.46 c0 1.16 -0.66 1.64 -1.06 1.64 c-0.06 0 -0.12 0 -0.16 -0.02 z  M173.84 6.34 c2.08 0 2.5 0.52 2.52 1.9 c0 0.74 -0.52 1.56 -1.18 1.56 c0 -1.8 -0.64 -2.58 -2.9 -2.58 c-1.3 0 -3.1 0.12 -3.1 0.98 l0 4.2 l3.42 0 c1 0 1.16 0.46 1.16 0.76 c0 0.58 -0.72 1.16 -1.28 1.16 c0 -0.54 -0.38 -0.9 -1.28 -0.9 l-2.02 0 l0 4.94 c0 0.72 1.94 0.74 3.34 0.74 c2.62 0 3.3 -1.98 3.3 -2.32 c0.58 0 1.08 0.56 1.08 1.16 c0 1.72 -2 2.06 -3.94 2.06 l-6.84 0 l0 -0.72 l0.66 0 c0.42 0 0.96 -0.26 0.96 -0.9 l0 -10.4 c0 -0.36 -0.14 -0.94 -0.96 -0.94 l-0.62 0 l0 -0.58 l2.84 0 c0.98 0 3.82 -0.12 4.84 -0.12 z  M195.26 10.3 c0 -2.44 -1.44 -3.04 -3.46 -3.04 c-2.1 0 -5.26 1.82 -5.26 6 c0 4.1 2.78 6.04 4.84 6.04 c1.9 0 3.1 -0.56 3.98 -2.2 c0.56 0 0.9 0.42 0.9 0.98 c0 1.5 -2.38 2.26 -4.78 2.26 c-2.68 0 -6.54 -1.8 -6.54 -7.02 c0 -5.36 4.08 -7.1 6.9 -7.1 s4.64 0.78 4.64 2.46 c0 1.16 -0.66 1.64 -1.06 1.64 c-0.06 0 -0.12 0 -0.16 -0.02 z  M201.02 7.9399999999999995 l0 10.32 c0 0.58 0.26 0.86 2.5 0.86 c1.2 0 2.92 -0.58 2.92 -1.86 c0 -0.42 -0.08 -0.54 -0.08 -0.54 c0.06 -0.04 0.32 -0.08 0.54 -0.08 c0.52 0 1 0.44 1 1.08 c0 1.84 -1.88 2.28 -3.84 2.28 l-6.1 0 l0 -0.72 l0.58 0 c0.74 0 1.02 -0.54 1.02 -0.9 l0 -10.36 c0 -0.28 -0.08 -0.98 -1.04 -0.98 l-0.52 0 l0 -0.58 l4.8 0 l0 0.58 l-0.8 0 c-0.48 0 -0.98 0.32 -0.98 0.9 z M211.90000000000003 7.9 l0 10.4 c0 0.72 0.54 1.1 0.96 1.1 l0.56 0 l0 0.6 l-4.52 0 l0 -0.6 l0.56 0 c0.64 0 0.98 -0.48 0.98 -1.1 l0 -10.4 c0 -0.56 -0.44 -0.86 -0.98 -0.86 l-0.58 0 l0 -0.58 l4.54 0 l0 0.58 l-0.66 0 c-0.5 0 -0.86 0.4 -0.86 0.86 z M233.66000000000003 19.4 l0 0.6 l-4.32 0 l0 -0.6 l0.22 0 c0.58 0 0.7 -0.52 0.7 -0.9 c0 -0.12 -0.14 -1.58 -0.3 -3.22 c-0.2 -2.16 -0.48 -5.04 -0.56 -6.02 c0 -0.22 0 -0.58 -0.02 -0.58 c-0.08 0 -0.68 1.46 -1.56 3.66 c-0.72 1.78 -1.68 4.22 -2.84 6.74 c-0.34 0.74 -0.82 0.92 -1.36 0.92 c-0.32 0 -0.56 -0.18 -0.56 -0.28 c0.06 -0.12 0.12 -0.32 0.12 -0.7 c0 -0.94 -2.16 -5.5 -2.94 -7.34 c-0.96 -2.28 -1.28 -3.04 -1.34 -3.04 c-0.12 0 -0.8 9.22 -0.8 9.62 c0 0.7 0.18 1.14 0.72 1.14 l0.22 0 l0 0.6 l-4.12 0 l0 -0.6 l0.36 0 c1.06 0 1.48 -0.86 1.52 -1.36 l0.82 -10.06 c-0.02 -0.5 -0.24 -0.94 -1.02 -0.94 l-0.72 0 l0 -0.58 l2.24 0 c1.18 0 1.66 0.36 2.2 1.7 c1.34 3.28 2.62 6 3.98 9.5 c1.48 -3.44 2.48 -6.26 3.66 -9.1 c0.2 -0.5 0.88 -2.1 2.38 -2.1 l2.24 0 l0 0.58 l-0.68 0 c-0.66 0 -1.1 0.28 -1.1 0.86 c0.02 0.34 0.12 1.7 0.98 10.06 c0.1 0.9 0.72 1.44 1.42 1.44 l0.46 0 z M245.68 9.86 c0 1.5 -0.78 2.32 -1.88 2.86 c1.2 0.3 2.56 1.36 2.56 3.34 c0 2.18 -1.46 3.94 -4.78 3.94 l-6.68 0 l0 -0.6 l0.52 0 c0.76 0 1.08 -0.5 1.08 -0.94 l0 -10.5 c0 -0.6 -0.42 -0.9 -0.88 -0.9 l-0.72 0 l0 -0.6 l1.92 0 c0.66 0 1.34 -0.08 1.94 -0.14 c0.64 -0.08 1.34 -0.14 2.16 -0.14 c3.72 0 4.76 1.92 4.76 3.68 z M241.3 19.06 c2.6 0 3.5 -1.72 3.5 -2.86 c0 -1.02 -0.48 -2.66 -2.56 -2.66 c-0.38 0 -1.04 0.12 -1.46 0.12 c-0.6 0 -0.94 -0.24 -0.94 -0.76 c0 -0.28 0.3 -0.54 0.3 -0.54 s0.84 0.1 1.3 0.1 c1.6 0 2.68 -1.08 2.68 -2.48 c0 -1.26 -0.56 -2.86 -3.58 -2.86 c-0.76 0 -1.96 0.16 -2.6 0.52 l0 10.92 c0.06 0.06 0.54 0.5 3.36 0.5 z M250.94000000000003 7.9 l0 10.4 c0 0.72 0.54 1.1 0.96 1.1 l0.56 0 l0 0.6 l-4.52 0 l0 -0.6 l0.56 0 c0.64 0 0.98 -0.48 0.98 -1.1 l0 -10.4 c0 -0.56 -0.44 -0.86 -0.98 -0.86 l-0.58 0 l0 -0.58 l4.54 0 l0 0.58 l-0.66 0 c-0.5 0 -0.86 0.4 -0.86 0.86 z M255.58 18.26 l0 -10.04 c0 -0.52 -0.22 -1.18 -1.3 -1.18 l-0.36 0 l0 -0.58 l1.7 0 c1.52 0 2 0.68 2.66 1.64 l6.3 9.32 l0 -9.2 c0 -0.7 -0.3 -1.18 -0.92 -1.18 l-0.7 0 l0 -0.58 l4.46 0 l0 0.58 l-0.56 0 c-0.76 0 -0.98 0.58 -0.98 1 l0 10.14 c0 1.06 0.66 1.56 0.84 1.56 c-0.34 0.4 -0.9 0.4 -1.26 0.4 c-0.34 0 -0.8 -0.18 -1.12 -0.62 c-0.52 -0.68 -7.44 -10.72 -7.44 -10.72 l0 9.32 c0 0.5 0.22 1.28 1.2 1.28 l0.62 0 l0 0.6 l-4.72 0 l0 -0.6 l0.5 0 c0.72 0 1.08 -0.56 1.08 -1.14 z M276.08000000000004 20.32 c-4.1 0 -6.86 -3.06 -6.86 -6.98 c0 -5.36 4.1 -7.16 7 -7.16 c2.48 0 4.72 0.3 4.72 2.46 c0 1.5 -0.92 1.76 -1.32 1.76 c0 -1.96 -0.44 -3.26 -2.9 -3.26 c-3.74 0 -5.86 2.86 -5.86 6.2 c0 4.38 3.36 5.98 5.66 5.98 c1.74 0 2.74 -0.42 2.74 -1.52 l0 -2.22 c0 -0.48 -0.14 -1.06 -1.18 -1.06 l-0.88 0 l0 -0.64 l5.12 0 l0 0.64 l-0.9 0 c-0.36 0 -0.72 0.32 -0.72 0.96 l0 2.4 c0 0.46 0 1.52 0.74 1.52 l0.32 0 l0 0.6 l-1.2 0 c-2.12 0 -2.3 0.32 -4.48 0.32 z  M297.12 20.32 c-4.1 0 -6.86 -3.06 -6.86 -6.98 c0 -5.36 4.1 -7.16 7 -7.16 c2.48 0 4.72 0.3 4.72 2.46 c0 1.5 -0.92 1.76 -1.32 1.76 c0 -1.96 -0.44 -3.26 -2.9 -3.26 c-3.74 0 -5.86 2.86 -5.86 6.2 c0 4.38 3.36 5.98 5.66 5.98 c1.74 0 2.74 -0.42 2.74 -1.52 l0 -2.22 c0 -0.48 -0.14 -1.06 -1.18 -1.06 l-0.88 0 l0 -0.64 l5.12 0 l0 0.64 l-0.9 0 c-0.36 0 -0.72 0.32 -0.72 0.96 l0 2.4 c0 0.46 0 1.52 0.74 1.52 l0.32 0 l0 0.6 l-1.2 0 c-2.12 0 -2.3 0.32 -4.48 0.32 z M317 7.039999999999999 c-0.38 0 -0.98 0.24 -0.98 0.82 l0 10.12 c0 0.88 0.32 1.4 1.06 1.4 l0.66 0 l0 0.62 l-1.46 0 c-1.04 0 -1.72 -0.62 -1.72 -1.74 l0 -0.42 c-0.68 0.88 -2.1 2.3 -4.16 2.3 c-3.3 0 -4.56 -2.16 -4.56 -5 l0 -7.06 c0 -0.54 -0.2 -1.04 -1.06 -1.04 l-0.52 0 l0 -0.58 l4.62 0 l0 0.58 l-0.72 0 c-0.28 0 -0.86 0.18 -0.86 0.82 l0 7.04 c0 2.56 0.96 4.16 3.08 4.16 c2.54 0 4.18 -2.44 4.18 -3.42 l0 -7.5 c0 -0.6 -0.22 -1.1 -1.06 -1.1 l-0.52 0 l0 -0.58 l4.76 0 l0 0.58 l-0.74 0 z M322.24 7.9 l0 10.4 c0 0.72 0.54 1.1 0.96 1.1 l0.56 0 l0 0.6 l-4.52 0 l0 -0.6 l0.56 0 c0.64 0 0.98 -0.48 0.98 -1.1 l0 -10.4 c0 -0.56 -0.44 -0.86 -0.98 -0.86 l-0.58 0 l0 -0.58 l4.54 0 l0 0.58 l-0.66 0 c-0.5 0 -0.86 0.4 -0.86 0.86 z M337.62 13.1 c0 2.64 -1.32 7.04 -5.86 7.04 c-1.7 0 -2.64 -0.48 -2.64 -1.2 c0 -0.76 0.9 -0.76 0.9 -0.76 s0.28 0.96 1.94 0.96 c2.9 0 4.06 -3.18 4.06 -6.04 c0 -2.08 -0.94 -5.92 -5.06 -5.92 c-0.42 0 -1.86 0 -2.78 0.44 l0 10 c0 0.82 -0.2 2.38 -1.86 2.38 l-1.18 0 l0 -0.6 l0.44 0 c0.74 0 1.14 -0.68 1.14 -1.28 l0 -9.98 c0 -0.62 -0.22 -1.1 -0.94 -1.1 l-0.64 0 l0 -0.58 l1.92 0 c1.34 0 2.66 -0.28 4.1 -0.28 c5.84 0 6.46 4.92 6.46 6.92 z M347 6.34 c2.08 0 2.5 0.52 2.52 1.9 c0 0.74 -0.52 1.56 -1.18 1.56 c0 -1.8 -0.64 -2.58 -2.9 -2.58 c-1.3 0 -3.1 0.12 -3.1 0.98 l0 4.2 l3.42 0 c1 0 1.16 0.46 1.16 0.76 c0 0.58 -0.72 1.16 -1.28 1.16 c0 -0.54 -0.38 -0.9 -1.28 -0.9 l-2.02 0 l0 4.94 c0 0.72 1.94 0.74 3.34 0.74 c2.62 0 3.3 -1.98 3.3 -2.32 c0.58 0 1.08 0.56 1.08 1.16 c0 1.72 -2 2.06 -3.94 2.06 l-6.84 0 l0 -0.72 l0.66 0 c0.42 0 0.96 -0.26 0.96 -0.9 l0 -10.4 c0 -0.36 -0.14 -0.94 -0.96 -0.94 l-0.62 0 l0 -0.58 l2.84 0 c0.98 0 3.82 -0.12 4.84 -0.12 z"></path></g></svg> 
