<svg width="1194" height="1194"><defs id="SvgjsDefs5312"></defs><g id="SvgjsG5313" featurekey="root" fill="#3280ab"></g><g id="SvgjsG5314" featurekey="container1" fill="#000000" transform="matrix(23.8799991607666,0,0,23.8799991607666,0,0)"><circle cx="25" cy="25" r="25"></circle></g><g id="SvgjsG5315" featurekey="text1" fill="#3280ab" transform="matrix(4.029548645019531,0,0,4.029548645019531,196.17932149141075,520.6353341064124)"><path d="M16.96 12.14 q-1.22 -1.42 -3.18 -2.22 t-4.18 -0.8 q-3.66 0 -6.24 1.96 q-2.66 2.02 -2.66 4.92 t2.66 4.92 q2.58 1.96 6.24 1.96 q2.22 0 4.18 -0.8 t3.18 -2.22 l0 0 q0.36 -0.44 -0.04 -0.78 q-0.16 -0.14 -0.38 -0.14 q-0.24 0 -0.4 0.18 l0 0 q-1.1 1.24 -2.83 1.95 t-3.71 0.71 q-3.22 0 -5.5 -1.7 t-2.28 -4.08 t2.28 -4.08 t5.5 -1.7 q1.98 0 3.71 0.71 t2.83 1.95 l0 0 q0.16 0.18 0.4 0.18 q0.22 0 0.38 -0.14 q0.4 -0.34 0.04 -0.78 z M35.6 21.56 l-15.44 0 l0 -11.44 q0 -0.56 -0.56 -0.56 t-0.56 0.56 l0 12.54 l16.56 0 q0.56 0 0.56 -0.54 q0 -0.56 -0.56 -0.56 z M37.68000000000001 10.12 l0 12 q0 0.54 0.54 0.54 q0.56 0 0.56 -0.54 l0 0 l0 -12 q0 -0.56 -0.56 -0.56 q-0.54 0 -0.54 0.56 z M48.84 21.1 l-8.56 -12.82 l0 13.84 q0 0.54 0.56 0.54 q0.54 0 0.54 -0.54 l0 -10.18 l7.46 11.18 l7.44 -11.18 l0 10.18 q0 0.54 0.56 0.54 q0.54 0 0.54 -0.54 l0 -13.84 z M74.3 16 q1.66 -1.06 1.66 -3 q0 -1.46 -1.04 -2.51 t-2.5 -1.05 l-13.56 0 l0 13.12 l13.56 0 q1.46 0 2.5 -1.05 t1.04 -2.51 q0 -1.94 -1.66 -3 z M72.42 10.56 q1 0 1.71 0.72 t0.71 1.72 t-0.71 1.72 t-1.71 0.72 l-12.46 0 l0 -4.88 l12.46 0 z M72.42 21.44 l-12.46 0 l0 -4.88 l12.46 0 q1 0 1.71 0.72 t0.71 1.72 t-0.71 1.72 t-1.71 0.72 z M77.52 10.12 l0 12 q0 0.54 0.54 0.54 q0.56 0 0.56 -0.54 l0 0 l0 -12 q0 -0.56 -0.56 -0.56 q-0.54 0 -0.54 0.56 z M96.75999999999999 9.56 q-0.56 0 -0.56 0.56 l0 10.88 l-16 -12 l0 13.12 q0 0.54 0.56 0.54 t0.56 -0.54 l0 -10.9 l16 12 l0 -13.1 q0 -0.56 -0.56 -0.56 z M107.66 17.56 q-0.56 0 -0.56 0.56 q0 0.54 0.56 0.54 l6.44 0 l0 0.68 q-1.1 1.2 -2.8 1.87 t-3.64 0.67 q-3.22 0 -5.5 -1.69 t-2.28 -4.07 q0 -2.4 2.28 -4.09 t5.5 -1.69 q1.98 0 3.71 0.7 t2.81 1.94 l0 0 q0.16 0.2 0.42 0.2 q0.56 0 0.56 -0.56 q0 -0.2 -0.14 -0.36 q-1.26 -1.42 -3.2 -2.23 t-4.16 -0.81 q-3.64 0 -6.24 1.98 q-2.66 2.02 -2.66 4.92 t2.66 4.92 q2.58 1.96 6.24 1.96 q3.82 0 6.44 -2.14 l0 1.26 q0 0.54 0.56 0.54 q0.54 0 0.54 -0.54 l0 -4.56 l-7.54 0 z  M131.26 17.56 q-0.56 0 -0.56 0.56 q0 0.54 0.56 0.54 l6.44 0 l0 0.68 q-1.1 1.2 -2.8 1.87 t-3.64 0.67 q-3.22 0 -5.5 -1.69 t-2.28 -4.07 q0 -2.4 2.28 -4.09 t5.5 -1.69 q1.98 0 3.71 0.7 t2.81 1.94 l0 0 q0.16 0.2 0.42 0.2 q0.56 0 0.56 -0.56 q0 -0.2 -0.14 -0.36 q-1.26 -1.42 -3.2 -2.23 t-4.16 -0.81 q-3.64 0 -6.24 1.98 q-2.66 2.02 -2.66 4.92 t2.66 4.92 q2.58 1.96 6.24 1.96 q3.82 0 6.44 -2.14 l0 1.26 q0 0.54 0.56 0.54 q0.54 0 0.54 -0.54 l0 -4.56 l-7.54 0 z M140.85999999999999 10.12 l0 7.76 q0 2.8 2.92 4.12 q2.2 1 5.64 1 q3.46 0 5.66 -1 q2.9 -1.32 2.9 -4.12 l0 -7.76 q0 -0.56 -0.56 -0.56 t-0.56 0.56 l0 0 l0 7.76 q0 2.36 -2.88 3.36 q-1.86 0.64 -4.56 0.64 t-4.56 -0.64 q-2.88 -1 -2.88 -3.36 l0 -7.76 q0 -0.56 -0.56 -0.56 t-0.56 0.56 z M159.83999999999997 10.12 l0 12 q0 0.54 0.54 0.54 q0.56 0 0.56 -0.54 l0 0 l0 -12 q0 -0.56 -0.56 -0.56 q-0.54 0 -0.54 0.56 z M175.48 9.82 q-1.08 -0.38 -2.18 -0.38 l-10.56 0 l0 13.12 l10.56 0 q1.1 0 2.18 -0.38 q1.96 -0.68 3.17 -2.39 t1.21 -3.79 t-1.21 -3.79 t-3.17 -2.39 z M175.11999999999998 21.14 q-0.84 0.3 -1.82 0.3 l-9.44 0 l0 -10.88 l9.44 0 q0.98 0 1.82 0.3 q1.62 0.58 2.62 2 t1 3.14 t-1 3.14 t-2.62 2 z M197.77999999999997 16.56 q0.56 0 0.56 -0.56 t-0.56 -0.56 l-15.44 0 l0 -4.88 l15.44 0 q0.56 0 0.56 -0.56 t-0.56 -0.56 l-16.56 0 l0 13.12 l16.56 0 q0.56 0 0.56 -0.56 t-0.56 -0.56 l-15.44 0 l0 -4.88 l15.44 0 z"></path></g><g id="SvgjsG5316" featurekey="text3" fill="#3280ab" transform="matrix(1.1715973615646362,0,0,1.1715973615646362,357.67195283905795,621.220595279142)"><path d="M2.98 20 l0 -0.3 l1.68 0 l0 -12.62 l-2.04 0 c-1.12 0 -1.74 0.7 -1.9 2.16 l-0.14 1.28 l-0.3 0 s0.12 -1.8 0.12 -2.48 l0 -1.26 l11.56 0 l0 1.26 c0 0.68 0.08 2.48 0.08 2.48 l-0.3 0 l-0.12 -1.34 c-0.12 -1.26 -0.6 -2.1 -1.78 -2.1 l-2.14 0 l0 12.62 l1.68 0 l0 0.3 l-6.4 0 z M13.129170025376922 20 l0 -0.3 l1.68 0 l0 -12.62 l-1.68 0 l0 -0.3 l6.4 0 l0 0.3 l-1.68 0 l0 6.12 l5.96 0 l0 -6.12 l-1.68 0 l0 -0.3 l6.4 0 l0 0.3 l-1.68 0 l0 12.62 l1.68 0 l0 0.3 l-6.4 0 l0 -0.3 l1.68 0 l0 -6.2 l-5.96 0 l0 6.2 l1.68 0 l0 0.3 l-6.4 0 z M29.818340050753843 20 l0 -0.3 l1.68 0 l0 -12.62 l-1.68 0 l0 -0.3 l10.5 0 s-0.42 1.58 -0.58 3.74 l-0.3 0 l0 -1.76 c0 -1.06 -0.38 -1.68 -1.4 -1.68 l-3.5 0 l0 6.24 l3 0 l0 -1.76 l0.3 0 l0 4 l-0.3 0 l0 -1.94 l-3 0 l0 6.08 l3.6 0 c1.26 0 1.64 -1.46 1.92 -3.66 l0.32 0 s-0.3 1.82 -0.3 3.96 l-10.26 0 z  M53.21668010150769 20.14 c-4.92 0 -6.54 -2.72 -6.54 -6.92 c0 -3.7 1.78 -6.58 6.54 -6.58 c4.58 0 6.56 2.46 6.56 6.58 c0 4 -1.74 6.92 -6.56 6.92 z M53.23668010150769 19.88 c2.82 0 3.32 -3.04 3.32 -6.44 c0 -3.72 -0.44 -6.54 -3.32 -6.54 c-2.9 0 -3.34 3 -3.34 6.54 c0 3.68 0.44 6.44 3.34 6.44 z M61.36585012688461 20 l0 -0.3 l1.68 0 l0 -12.62 l-1.68 0 l0 -0.3 l6.2 0 c4.22 0 5.56 1.68 5.56 3.78 c0 2.42 -2 4 -5.04 4 c-0.5 0 -0.74 -0.04 -0.74 -0.04 l0 -0.3 s0.28 0.04 0.6 0.04 c1.44 0 2 -1.52 2 -3.64 c0 -2.24 -0.52 -3.54 -2.4 -3.54 l-1.46 0 l0 12.62 l1.86 0 l0 0.3 l-6.58 0 z M74.25502015226154 20 l0 -0.3 l1.68 0 l0 -12.62 l-1.68 0 l0 -0.3 l10.5 0 s-0.42 1.58 -0.58 3.74 l-0.3 0 l0 -1.76 c0 -1.06 -0.38 -1.68 -1.4 -1.68 l-3.5 0 l0 6.24 l3 0 l0 -1.76 l0.3 0 l0 4 l-0.3 0 l0 -1.94 l-3 0 l0 6.08 l3.6 0 c1.26 0 1.64 -1.46 1.92 -3.66 l0.32 0 s-0.3 1.82 -0.3 3.96 l-10.26 0 z M86.34419017763847 20 l0 -0.3 l0.6 0 c0.88 0 1.2 -0.44 1.2 -1.2 l0 -10.22 l-0.2 -0.28 c-0.4 -0.54 -0.78 -0.92 -1.44 -0.92 l-0.36 0 l0 -0.3 l4.54 0 l6.84 9.06 l0 -7.56 c0 -0.76 -0.32 -1.2 -1.2 -1.2 l-0.6 0 l0 -0.3 l3.9 0 l0 0.3 l-0.62 0 c-0.88 0 -1.18 0.44 -1.18 1.2 l0 11.76 l-0.84 0 l-8.54 -11.36 l0 9.82 c0 0.76 0.3 1.2 1.18 1.2 l0.62 0 l0 0.3 l-3.9 0 z M101.51336020301538 20 l-0.26 0 s0.14 -1.38 0.14 -2.62 l0 -1.82 l0.3 0 l0 0.84 c0 1.84 1.52 3.44 4.24 3.44 c1.72 0 3.06 -0.68 3.06 -2.14 c0 -3.48 -7.68 -2.04 -7.68 -7.02 c0 -2.36 1.52 -4.04 4.36 -4.04 c1.48 0 2.38 0.44 2.9 0.86 c0.52 -0.04 0.86 -0.26 1.12 -0.72 l0.26 0 s-0.4 1.94 -0.4 2.8 l0 1.28 l-0.3 0 l0 -0.64 c0 -1.86 -1.04 -3.28 -3.6 -3.28 c-1.9 0 -2.98 0.8 -2.98 2.1 c0 3.4 7.7 1.86 7.7 7.06 c0 2.24 -1.42 4.04 -4.46 4.04 c-1.64 0 -2.7 -0.5 -3.36 -1.02 c-0.48 0.06 -0.84 0.36 -1.04 0.88 z M118.8425302283923 20.14 c-4.92 0 -6.54 -2.72 -6.54 -6.92 c0 -3.7 1.78 -6.58 6.54 -6.58 c4.58 0 6.56 2.46 6.56 6.58 c0 4 -1.74 6.92 -6.56 6.92 z M118.8625302283923 19.88 c2.82 0 3.32 -3.04 3.32 -6.44 c0 -3.72 -0.44 -6.54 -3.32 -6.54 c-2.9 0 -3.34 3 -3.34 6.54 c0 3.68 0.44 6.44 3.34 6.44 z M128.41170025376923 14.440000000000001 l0 -7.36 l-1.68 0 l0 -0.3 l6.42 0 l0 0.3 l-1.68 0 l0 7.36 c0 3.84 0.74 5.4 3.08 5.4 c2.86 0 4.22 -1.8 4.22 -4.94 l0 -6.62 c0 -0.76 -0.32 -1.2 -1.2 -1.2 l-0.6 0 l0 -0.3 l3.9 0 l0 0.3 l-0.62 0 c-0.88 0 -1.18 0.44 -1.18 1.2 l0 6.66 c0 2.9 -1.24 5.2 -4.52 5.2 c-4.74 0 -6.14 -2.1 -6.14 -5.7 z M141.78087027914614 20 l0 -0.3 l1.68 0 l0 -12.62 l-1.68 0 l0 -0.3 l5.98 0 c4.08 0 5.36 1.38 5.36 3.36 c0 1.58 -1.06 2.92 -4.38 3.24 l0 0.04 c1.86 0.16 3.42 0.92 3.88 2.92 c0.3 1.3 0.1 3.24 1.02 3.24 c0.52 0 0.86 -0.62 0.86 -1.44 l0.3 0 c0 1.22 -0.54 1.96 -2 1.96 c-2.66 0 -3.28 -2.04 -3.42 -3.74 c-0.08 -1 -0.14 -2.8 -1.44 -2.8 l-1.44 0 l0 6.14 l1.68 0 l0 0.3 l-6.4 0 z M146.50087027914614 13.26 l1.4 0 c1.56 0 2.04 -1 2.04 -3 c0 -2.06 -0.54 -3.18 -2.14 -3.18 l-1.3 0 l0 6.18 z M166.27004030452306 16.06 l0.32 0 c0 1.48 -1 4.08 -4.38 4.08 c-4.06 0 -6.48 -2.7 -6.48 -6.82 c0 -3.96 2.54 -6.68 6.64 -6.68 c1.24 0 2.16 0.38 2.8 0.9 c0.7 0.1 1.16 -0.28 1.32 -0.76 l0.26 0 s-0.38 1.86 -0.38 2.8 l0 1.32 l-0.3 0 l0 -0.76 c0 -1.92 -1.56 -3.2 -3.7 -3.2 c-2.9 0 -3.42 3.28 -3.42 6.48 c0 3.48 0.6 6.4 3.36 6.4 c0.88 0 1.68 -0.22 2.3 -0.62 c1.1 -0.72 1.66 -1.98 1.66 -3.14 z M168.01921032989998 20 l0 -0.3 l1.68 0 l0 -12.62 l-1.68 0 l0 -0.3 l10.5 0 s-0.42 1.58 -0.58 3.74 l-0.3 0 l0 -1.76 c0 -1.06 -0.38 -1.68 -1.4 -1.68 l-3.5 0 l0 6.24 l3 0 l0 -1.76 l0.3 0 l0 4 l-0.3 0 l0 -1.94 l-3 0 l0 6.08 l3.6 0 c1.26 0 1.64 -1.46 1.92 -3.66 l0.32 0 s-0.3 1.82 -0.3 3.96 l-10.26 0 z  M195.37755038065384 16.06 l0.32 0 c0 1.48 -1 4.08 -4.38 4.08 c-4.06 0 -6.48 -2.7 -6.48 -6.82 c0 -3.96 2.54 -6.68 6.64 -6.68 c1.24 0 2.16 0.38 2.8 0.9 c0.7 0.1 1.16 -0.28 1.32 -0.76 l0.26 0 s-0.38 1.86 -0.38 2.8 l0 1.32 l-0.3 0 l0 -0.76 c0 -1.92 -1.56 -3.2 -3.7 -3.2 c-2.9 0 -3.42 3.28 -3.42 6.48 c0 3.48 0.6 6.4 3.36 6.4 c0.88 0 1.68 -0.22 2.3 -0.62 c1.1 -0.72 1.66 -1.98 1.66 -3.14 z M197.12672040603076 20 l0 -0.3 l1.68 0 l0 -12.62 l-1.68 0 l0 -0.3 l6.4 0 l0 0.3 l-1.68 0 l0 12.62 l3.56 0 c1.32 0 1.72 -1.46 2.02 -3.66 l0.32 0 s-0.3 1.82 -0.3 3.96 l-10.32 0 z M208.71589043140767 20 l0 -0.3 l1.68 0 l0 -12.62 l-1.68 0 l0 -0.3 l6.4 0 l0 0.3 l-1.68 0 l0 12.62 l1.68 0 l0 0.3 l-6.4 0 z M216.32506045678457 20 l0 -0.3 l0.6 0 c0.88 0 1.2 -0.44 1.2 -1.2 l0 -11.42 l-1.68 0 l0 -0.3 l4.76 0 l3.6 9.62 l3.46 -9.62 l4.6 0 l0 0.3 l-1.68 0 l0 12.62 l1.68 0 l0 0.3 l-6.5 0 l0 -0.3 l1.78 0 l0 -11.7 l-4.32 12 l-0.84 0 l-4.56 -11.98 l0 10.48 c0 0.76 0.3 1.2 1.18 1.2 l0.62 0 l0 0.3 l-3.9 0 z M234.1542304821615 20 l0 -0.3 l1.68 0 l0 -12.62 l-1.68 0 l0 -0.3 l6.2 0 c3.26 0 4.92 1.12 4.92 3.18 c0 1.64 -1 2.8 -3.88 3.2 l0 0.04 c2.78 0.24 4.42 1.24 4.42 3.22 c0 2.34 -1.82 3.58 -5.44 3.58 l-6.22 0 z M238.8742304821615 13.08 l0.82 0 c1.7 0 2.46 -0.72 2.46 -2.88 s-0.68 -3.12 -2.26 -3.12 l-1.02 0 l0 6 z M238.8742304821615 19.7 l1.18 0 c1.84 0 2.62 -0.88 2.62 -3.2 c0 -2.28 -0.86 -3.12 -2.82 -3.12 l-0.98 0 l0 6.32 z M247.32340050753842 20 l0 -0.3 l1.68 0 l0 -12.62 l-1.68 0 l0 -0.3 l6.4 0 l0 0.3 l-1.68 0 l0 12.62 l1.68 0 l0 0.3 l-6.4 0 z M255.05257053291533 20 l0 -0.3 l0.6 0 c0.88 0 1.2 -0.44 1.2 -1.2 l0 -10.22 l-0.2 -0.28 c-0.4 -0.54 -0.78 -0.92 -1.44 -0.92 l-0.36 0 l0 -0.3 l4.54 0 l6.84 9.06 l0 -7.56 c0 -0.76 -0.32 -1.2 -1.2 -1.2 l-0.6 0 l0 -0.3 l3.9 0 l0 0.3 l-0.62 0 c-0.88 0 -1.18 0.44 -1.18 1.2 l0 11.76 l-0.84 0 l-8.54 -11.36 l0 9.82 c0 0.76 0.3 1.2 1.18 1.2 l0.62 0 l0 0.3 l-3.9 0 z M278.4817405582923 17.5 l0 -2.66 l-1.88 0 l0 -0.3 l5.78 0 l0 0.3 l-1.18 0 l0 5.16 l-0.3 0 c-0.1 -0.26 -0.36 -0.82 -0.88 -1.02 c-0.7 0.62 -1.88 1.16 -3.86 1.16 c-4 0 -6.46 -2.58 -6.46 -6.76 c0 -4.04 2.52 -6.74 6.84 -6.74 c1.16 0 2.16 0.32 2.92 0.88 c0.76 0.14 1.24 -0.3 1.4 -0.74 l0.26 0 c-0.2 0.84 -0.38 2.22 -0.38 2.96 l0 1.16 l-0.3 0 l0 -0.76 c0 -1.88 -1.6 -3.2 -3.9 -3.2 c-2.46 0 -3.62 2.14 -3.62 6.58 c0 4.3 0.9 6.36 3.2 6.36 c1.62 0 2.36 -0.98 2.36 -2.38 z  M296.8600806090462 17.5 l0 -2.66 l-1.88 0 l0 -0.3 l5.78 0 l0 0.3 l-1.18 0 l0 5.16 l-0.3 0 c-0.1 -0.26 -0.36 -0.82 -0.88 -1.02 c-0.7 0.62 -1.88 1.16 -3.86 1.16 c-4 0 -6.46 -2.58 -6.46 -6.76 c0 -4.04 2.52 -6.74 6.84 -6.74 c1.16 0 2.16 0.32 2.92 0.88 c0.76 0.14 1.24 -0.3 1.4 -0.74 l0.26 0 c-0.2 0.84 -0.38 2.22 -0.38 2.96 l0 1.16 l-0.3 0 l0 -0.76 c0 -1.88 -1.6 -3.2 -3.9 -3.2 c-2.46 0 -3.62 2.14 -3.62 6.58 c0 4.3 0.9 6.36 3.2 6.36 c1.62 0 2.36 -0.98 2.36 -2.38 z M303.1092506344231 14.440000000000001 l0 -7.36 l-1.68 0 l0 -0.3 l6.42 0 l0 0.3 l-1.68 0 l0 7.36 c0 3.84 0.74 5.4 3.08 5.4 c2.86 0 4.22 -1.8 4.22 -4.94 l0 -6.62 c0 -0.76 -0.32 -1.2 -1.2 -1.2 l-0.6 0 l0 -0.3 l3.9 0 l0 0.3 l-0.62 0 c-0.88 0 -1.18 0.44 -1.18 1.2 l0 6.66 c0 2.9 -1.24 5.2 -4.52 5.2 c-4.74 0 -6.14 -2.1 -6.14 -5.7 z M316.4784206598 20 l0 -0.3 l1.68 0 l0 -12.62 l-1.68 0 l0 -0.3 l6.4 0 l0 0.3 l-1.68 0 l0 12.62 l1.68 0 l0 0.3 l-6.4 0 z M324.16759068517695 20 l0 -0.3 l1.68 0 l0 -12.62 l-1.68 0 l0 -0.3 l6.26 0 c5.08 0 7.14 2.52 7.14 6.4 c0 3.78 -1.92 6.82 -7.14 6.82 l-6.26 0 z M328.887590685177 19.7 l1.58 0 c2.64 0 3.88 -2.18 3.88 -6.3 c0 -4.3 -1.24 -6.32 -3.88 -6.32 l-1.58 0 l0 12.62 z M339.13676071055386 20 l0 -0.3 l1.68 0 l0 -12.62 l-1.68 0 l0 -0.3 l10.5 0 s-0.42 1.58 -0.58 3.74 l-0.3 0 l0 -1.76 c0 -1.06 -0.38 -1.68 -1.4 -1.68 l-3.5 0 l0 6.24 l3 0 l0 -1.76 l0.3 0 l0 4 l-0.3 0 l0 -1.94 l-3 0 l0 6.08 l3.6 0 c1.26 0 1.64 -1.46 1.92 -3.66 l0.32 0 s-0.3 1.82 -0.3 3.96 l-10.26 0 z M351.18593073593075 20 l0 -0.3 l1.68 0 l0 -12.62 l-1.68 0 l0 -0.3 l6.2 0 c3.26 0 4.92 1.12 4.92 3.18 c0 1.64 -1 2.8 -3.88 3.2 l0 0.04 c2.78 0.24 4.42 1.24 4.42 3.22 c0 2.34 -1.82 3.58 -5.44 3.58 l-6.22 0 z M355.9059307359308 13.08 l0.82 0 c1.7 0 2.46 -0.72 2.46 -2.88 s-0.68 -3.12 -2.26 -3.12 l-1.02 0 l0 6 z M355.9059307359308 19.7 l1.18 0 c1.84 0 2.62 -0.88 2.62 -3.2 c0 -2.28 -0.86 -3.12 -2.82 -3.12 l-0.98 0 l0 6.32 z M371.19510076130763 20.14 c-4.92 0 -6.54 -2.72 -6.54 -6.92 c0 -3.7 1.78 -6.58 6.54 -6.58 c4.58 0 6.56 2.46 6.56 6.58 c0 4 -1.74 6.92 -6.56 6.92 z M371.21510076130767 19.88 c2.82 0 3.32 -3.04 3.32 -6.44 c0 -3.72 -0.44 -6.54 -3.32 -6.54 c-2.9 0 -3.34 3 -3.34 6.54 c0 3.68 0.44 6.44 3.34 6.44 z M386.1842707866846 20.14 c-4.92 0 -6.54 -2.72 -6.54 -6.92 c0 -3.7 1.78 -6.58 6.54 -6.58 c4.58 0 6.56 2.46 6.56 6.58 c0 4 -1.74 6.92 -6.56 6.92 z M386.2042707866846 19.88 c2.82 0 3.32 -3.04 3.32 -6.44 c0 -3.72 -0.44 -6.54 -3.32 -6.54 c-2.9 0 -3.34 3 -3.34 6.54 c0 3.68 0.44 6.44 3.34 6.44 z M394.33344081206155 20 l0 -0.3 l1.68 0 l0 -12.62 l-1.68 0 l0 -0.3 l6.4 0 l0 0.3 l-1.68 0 l0 5.92 l0.74 0 l5.08 -4.94 c0.44 -0.44 0.4 -0.98 -0.52 -0.98 l-0.7 0 l0 -0.3 l3.7 0 l0 0.3 l-0.32 0 c-0.66 0 -0.96 0.24 -1.74 1 l-3.28 3.2 l5.38 8.42 l0.74 0 l0 0.3 l-6.02 0 l0 -0.3 l1.62 0 l-4.08 -6.4 l-0.6 0 l0 6.4 l1.68 0 l0 0.3 l-6.4 0 z"></path></g></svg>
