<svg width="542" height="301"><defs id="SvgjsDefs5317"></defs><g id="SvgjsG5318" featurekey="root" fill="#5f1311"></g><g id="SvgjsG5319" featurekey="text4" fill="#389dd3" transform="matrix(18.03607177734375,0,0,18.03607177734375,192.24248909772467,-170.72145943138074)"><path d="M3.96 11.66 c-0.66 0 -1.18 0.54 -1.18 1.2 l0 4.3 c0 0.66 0.52 1.18 1.18 1.18 l3.54 0 c0.12 0 0.22 0.1 0.22 0.22 l0 1.44 l-3.76 0 c-1.6 0 -2.92 -1.3 -2.92 -2.92 l0 -4.14 c0 -1.62 1.32 -2.92 2.92 -2.92 l3.76 0 l0 1.44 c0 0.12 -0.1 0.2 -0.22 0.2 l-3.54 0 z"></path></g><g id="SvgjsG5320" featurekey="text1" fill="#389dd3" transform="matrix(3.508608341217041,0,0,3.508608341217041,-4.2103302643908656,202.80781843561957)"><path d="M1.2 16.6 l0 -8.22 c0 -1.88 1.52 -3.4 3.4 -3.4 l6.6 0 l0 1.46 c0 0.14 -0.12 0.26 -0.26 0.26 l-6.34 0 c-0.84 0 -1.52 0.68 -1.52 1.52 l0 8.54 c0 0.84 0.68 1.52 1.52 1.52 l6.34 0 c0.14 0 0.26 0.12 0.26 0.26 l0 1.46 l-6.6 0 c-1.88 0 -3.4 -1.54 -3.4 -3.4 z M16.8 20 c-1.88 0 -3.42 -1.56 -3.42 -3.46 l0 -11.3 c0 -0.14 0.12 -0.26 0.26 -0.26 l1.62 0 l0 11.74 c0 0.86 0.7 1.56 1.54 1.56 l6.24 0 c0.14 0 0.26 0.12 0.26 0.26 l0 1.46 l-6.5 0 z M25.58 20 c-0.14 0 -0.26 -0.12 -0.26 -0.26 l0 -14.76 l1.62 0 c0.14 0 0.26 0.12 0.26 0.26 l0 14.76 l-1.62 0 z M31.58 5 c0.2 0 0.44 0.14 0.54 0.32 l4.98 9.12 l5 -9.12 c0.1 -0.18 0.34 -0.32 0.54 -0.32 l1.4 0 c0.14 0 0.26 0.1 0.26 0.26 l0 14.72 l-1.62 0 c-0.14 0 -0.26 -0.12 -0.26 -0.26 l0 -11.68 l-4.18 7.94 c-0.08 0.14 -0.24 0.24 -0.4 0.24 l-1.46 0 c-0.16 0 -0.32 -0.1 -0.4 -0.24 l-4.18 -7.94 l0 11.68 c0 0.14 -0.12 0.26 -0.26 0.26 l-1.62 0 l0 -14.72 c0 -0.16 0.12 -0.26 0.26 -0.26 l1.4 0 z M47.96 20 c-0.64 0 -1.16 -0.52 -1.16 -1.16 l0 -12.74 c0 -0.62 0.5 -1.12 1.12 -1.12 l0.32 0 l6.08 0 c1.88 0 3.4 1.52 3.4 3.4 l0 1.52 c0 0.96 -0.76 2.24 -1.84 2.46 c1.08 0.28 1.84 1.5 1.84 2.46 l0 1.76 c0 1.88 -1.52 3.42 -3.4 3.42 l-6.36 0 z M55.84 16.740000000000002 l0 -2 c0 -0.84 -0.68 -1.52 -1.52 -1.52 l-5.64 0 l0 4.68 c0 0.2 0.16 0.38 0.38 0.38 l5.26 0 c0.84 0 1.52 -0.7 1.52 -1.54 z M48.68 7.08 l0 4.42 l5.64 0 c0.84 0 1.52 -0.68 1.52 -1.52 l0 -1.76 c0 -0.84 -0.68 -1.52 -1.52 -1.52 l-5.26 0 c-0.22 0 -0.38 0.16 -0.38 0.38 z M60.660000000000004 20 c-0.14 0 -0.26 -0.12 -0.26 -0.26 l0 -14.76 l1.62 0 c0.14 0 0.26 0.12 0.26 0.26 l0 14.76 l-1.62 0 z M73.32000000000001 13.7 l1.82 3.58 c-0.2 -1.56 -0.2 -2.82 -0.3 -4.24 l0 -7.8 c0 -0.14 0.12 -0.26 0.26 -0.26 l1.62 0 l0 15.02 l-1.74 0 c-0.14 0 -0.32 -0.12 -0.38 -0.24 l-6.84 -12.74 c-0.1 -0.18 -0.34 -0.32 -0.54 -0.32 l-0.34 0 l0 13.04 c0 0.14 -0.12 0.26 -0.26 0.26 l-1.62 0 l0 -14.76 c0 -0.14 0.12 -0.26 0.26 -0.26 l2.28 0 c0.64 0 1.4 0.46 1.7 1.02 z M82.56 20.08 c-1.88 0 -3.4 -1.52 -3.4 -3.4 l0 -8.38 c0 -1.88 1.52 -3.4 3.4 -3.4 l6.86 0 l0 1.46 c0 0.14 -0.12 0.26 -0.28 0.26 l-6.58 0 c-0.84 0 -1.52 0.68 -1.52 1.52 l0 8.7 c0 0.84 0.68 1.52 1.52 1.52 l4.14 0 c0.84 0 1.7 -0.68 1.7 -1.52 l0 -3.62 l-3.64 0 c-0.14 0 -0.26 -0.12 -0.26 -0.26 l0 -1.46 l5.34 0 c0.14 0 0.26 0.12 0.26 0.26 l0 5.12 c0 2.12 -1.52 3.2 -3.4 3.2 l-4.14 0 z  M103.46 20.08 c-1.88 0 -3.4 -1.52 -3.4 -3.4 l0 -8.38 c0 -1.88 1.52 -3.4 3.4 -3.4 l6.86 0 l0 1.46 c0 0.14 -0.12 0.26 -0.28 0.26 l-6.58 0 c-0.84 0 -1.52 0.68 -1.52 1.52 l0 8.7 c0 0.84 0.68 1.52 1.52 1.52 l4.14 0 c0.84 0 1.7 -0.68 1.7 -1.52 l0 -3.62 l-3.64 0 c-0.14 0 -0.26 -0.12 -0.26 -0.26 l0 -1.46 l5.34 0 c0.14 0 0.26 0.12 0.26 0.26 l0 5.12 c0 2.12 -1.52 3.2 -3.4 3.2 l-4.14 0 z M116.78 20.08 c-1.88 0 -3.4 -1.52 -3.4 -3.4 l0 -11.7 l1.62 0 c0.14 0 0.26 0.12 0.26 0.26 l0 11.6 c0 0.84 0.68 1.52 1.52 1.52 l4.52 0 c0.84 0 1.52 -0.68 1.52 -1.52 l0 -11.6 c0 -0.14 0.12 -0.26 0.26 -0.26 l1.62 0 l0 11.7 c0 1.88 -1.54 3.4 -3.4 3.4 l-4.52 0 z M127.82 20 c-0.14 0 -0.26 -0.12 -0.26 -0.26 l0 -14.76 l1.62 0 c0.14 0 0.26 0.12 0.26 0.26 l0 14.76 l-1.62 0 z M133.36 20 c-0.64 0 -1.16 -0.52 -1.16 -1.16 l0 -12.7 c0 -0.64 0.52 -1.16 1.16 -1.16 l6.42 0 c1.88 0 3.4 1.52 3.4 3.4 l0 8.22 c0 1.86 -1.52 3.4 -3.4 3.4 l-6.42 0 z M134.46 18.28 l5.32 0 c0.84 0 1.52 -0.68 1.52 -1.52 l0 -8.54 c0 -0.84 -0.68 -1.52 -1.52 -1.52 l-5.32 0 c-0.22 0 -0.38 0.16 -0.38 0.38 l0 10.82 c0 0.2 0.16 0.38 0.38 0.38 z M148.96 6.699999999999999 c-0.84 0 -1.52 0.68 -1.52 1.52 l0 3.8 c0.2 -0.24 0.56 -0.4 0.98 -0.4 l6.58 0 l0 1.46 c0 0.14 -0.12 0.26 -0.26 0.26 l-7.3 0 l0 3.42 c0 0.84 0.68 1.52 1.52 1.52 l6.48 0 c0.14 0 0.26 0.12 0.26 0.26 l0 1.46 l-6.74 0 c-1.88 0 -3.4 -1.52 -3.4 -3.4 l0 -8.22 c0 -1.88 1.52 -3.4 3.4 -3.4 l6.74 0 l0 1.46 c0 0.14 -0.12 0.26 -0.26 0.26 l-6.48 0 z"></path></g><g id="SvgjsG5321" featurekey="text3" fill="#389dd3" transform="matrix(0.8455467820167542,0,0,0.8455467820167542,107.20518608333761,283.7046220412045)"><path d="M11.5 7.84 l-2.94 0 c-0.34 0 -0.62 0.28 -0.62 0.62 l0 10.92 c0 0.34 -0.28 0.62 -0.62 0.62 l-1.56 0 c-0.34 0 -0.62 -0.28 -0.62 -0.62 l0 -10.92 c0 -0.34 -0.28 -0.62 -0.62 -0.62 l-2.96 0 c-0.34 0 -0.62 -0.28 -0.62 -0.62 l0 -1.24 c0 -0.34 0.28 -0.62 0.62 -0.62 l9.94 0 c0.34 0 0.62 0.28 0.62 0.62 l0 1.24 c0 0.34 -0.28 0.62 -0.62 0.62 z M26.84 5.98 l0 13.4 c0 0.34 -0.28 0.62 -0.62 0.62 l-1.56 0 c-0.34 0 -0.62 -0.28 -0.62 -0.62 l0 -4.58 c0 -0.34 -0.28 -0.62 -0.62 -0.62 l-5.98 0 c-0.34 0 -0.62 0.28 -0.62 0.62 l0 4.58 c0 0.34 -0.28 0.62 -0.62 0.62 l-1.56 0 c-0.34 0 -0.62 -0.28 -0.62 -0.62 l0 -13.4 c0 -0.34 0.28 -0.62 0.62 -0.62 l1.56 0 c0.34 0 0.62 0.28 0.62 0.62 l0 5.1 c0 0.34 0.28 0.62 0.62 0.62 l5.98 0 c0.34 0 0.62 -0.28 0.62 -0.62 l0 -5.1 c0 -0.34 0.28 -0.62 0.62 -0.62 l1.56 0 c0.34 0 0.62 0.28 0.62 0.62 z M32.839999999999996 8.46 l0 2.42 c0 0.34 0.28 0.62 0.62 0.62 l5.84 0 c0.34 0 0.62 0.28 0.62 0.62 l0 1.3 c0 0.34 -0.28 0.62 -0.62 0.62 l-5.84 0 c-0.34 0 -0.62 0.28 -0.62 0.62 l0 2.2 c0 0.34 0.28 0.62 0.62 0.62 l6.74 0 c0.34 0 0.62 0.28 0.62 0.62 l0 1.28 c0 0.34 -0.28 0.62 -0.62 0.62 l-9.54 0 c-0.34 0 -0.62 -0.28 -0.62 -0.62 l0 -13.4 c0 -0.34 0.28 -0.62 0.62 -0.62 l9.54 0 c0.34 0 0.62 0.28 0.62 0.62 l0 1.24 c0 0.34 -0.28 0.62 -0.62 0.62 l-6.74 0 c-0.34 0 -0.62 0.28 -0.62 0.62 z  M57.379999999999995 20.28 c-4.18 0 -7.58 -3.4 -7.58 -7.6 c0 -4.18 3.4 -7.6 7.58 -7.6 c4.2 0 7.6 3.42 7.6 7.6 c0 4.2 -3.4 7.6 -7.6 7.6 z M57.379999999999995 7.699999999999999 c-2.64 0 -4.8 2.34 -4.8 4.98 c0 2.66 2.16 5 4.8 5 c2.66 0 4.8 -2.34 4.8 -5 c0 -2.64 -2.14 -4.98 -4.8 -4.98 z M76.02 5.76 c0.62 0.28 1.18 0.66 1.64 1.12 c0.48 0.46 0.84 1.02 1.12 1.64 c0.26 0.64 0.4 1.32 0.4 2.04 s-0.12 1.38 -0.36 2 s-0.58 1.14 -1.06 1.6 c-0.46 0.46 -1.06 0.82 -1.76 1.08 c-0.72 0.26 -1.54 0.4 -2.48 0.4 l-2.64 0 c-0.34 0 -0.62 0.28 -0.62 0.62 l0 3.12 c0 0.34 -0.26 0.62 -0.6 0.62 l-1.58 0 c-0.34 0 -0.62 -0.28 -0.62 -0.62 l0 -13.4 c0 -0.34 0.28 -0.62 0.62 -0.62 l5.9 0 c0.72 0 1.4 0.14 2.04 0.4 z M75.06 12.9 c0.32 -0.14 0.56 -0.32 0.76 -0.56 c0.18 -0.24 0.34 -0.52 0.42 -0.82 c0.1 -0.3 0.14 -0.62 0.14 -0.96 s-0.06 -0.66 -0.18 -1 c-0.12 -0.32 -0.28 -0.6 -0.52 -0.86 c-0.22 -0.26 -0.5 -0.46 -0.84 -0.62 c-0.32 -0.16 -0.72 -0.24 -1.16 -0.24 l-2.8 0 c-0.34 0 -0.62 0.28 -0.62 0.62 l0 4.04 c0 0.34 0.28 0.62 0.62 0.62 l3.1 0 c0.42 0 0.78 -0.08 1.08 -0.22 z M83.82000000000001 8.46 l0 2.42 c0 0.34 0.28 0.62 0.62 0.62 l5.84 0 c0.34 0 0.62 0.28 0.62 0.62 l0 1.3 c0 0.34 -0.28 0.62 -0.62 0.62 l-5.84 0 c-0.34 0 -0.62 0.28 -0.62 0.62 l0 2.2 c0 0.34 0.28 0.62 0.62 0.62 l6.74 0 c0.34 0 0.62 0.28 0.62 0.62 l0 1.28 c0 0.34 -0.28 0.62 -0.62 0.62 l-9.54 0 c-0.34 0 -0.62 -0.28 -0.62 -0.62 l0 -13.4 c0 -0.34 0.28 -0.62 0.62 -0.62 l9.54 0 c0.34 0 0.62 0.28 0.62 0.62 l0 1.24 c0 0.34 -0.28 0.62 -0.62 0.62 l-6.74 0 c-0.34 0 -0.62 0.28 -0.62 0.62 z M97.48 11.92 l0 7.46 c0 0.34 -0.28 0.62 -0.62 0.62 l-1.58 0 c-0.32 0 -0.6 -0.28 -0.6 -0.62 l0 -13.68 c0 -0.34 0.44 -0.42 0.68 -0.2 l8.78 8.3 c0.26 0.24 0.46 0.14 0.46 -0.2 l0 -7.6 c0 -0.34 0.28 -0.62 0.62 -0.62 l1.56 0 c0.34 0 0.62 0.28 0.62 0.62 l0 13.66 c0 0.34 -0.44 0.42 -0.7 0.2 l-8.76 -8.16 c-0.26 -0.22 -0.46 -0.12 -0.46 0.22 z M110.36 17.58 l0.84 -1.24 c0.18 -0.28 0.56 -0.34 0.84 -0.16 c0.58 0.36 1.16 0.68 1.76 0.96 c0.78 0.38 1.6 0.56 2.46 0.56 c0.46 0 0.86 -0.06 1.2 -0.18 c0.34 -0.1 0.64 -0.26 0.88 -0.44 s0.42 -0.38 0.54 -0.62 c0.12 -0.22 0.18 -0.46 0.18 -0.68 c0 -0.3 -0.1 -0.54 -0.28 -0.76 c-0.18 -0.2 -0.42 -0.36 -0.72 -0.5 s-0.64 -0.24 -1.06 -0.34 c-0.4 -0.1 -0.82 -0.18 -1.26 -0.26 c-0.3 -0.06 -0.64 -0.12 -1.02 -0.2 c-0.38 -0.06 -0.78 -0.16 -1.2 -0.3 c-0.42 -0.12 -0.82 -0.28 -1.22 -0.5 c-0.4 -0.2 -0.76 -0.46 -1.08 -0.78 c-0.32 -0.3 -0.58 -0.68 -0.78 -1.12 c-0.18 -0.42 -0.28 -0.94 -0.28 -1.52 c0 -0.86 0.18 -1.56 0.52 -2.14 c0.34 -0.56 0.78 -1 1.32 -1.34 c0.54 -0.32 1.14 -0.54 1.8 -0.68 s1.3 -0.2 1.92 -0.2 s1.16 0.04 1.64 0.12 s0.92 0.2 1.34 0.34 c0.42 0.16 0.82 0.36 1.2 0.58 c0.26 0.16 0.5 0.32 0.78 0.48 c0.28 0.2 0.34 0.58 0.14 0.86 l-0.84 1.2 c-0.2 0.28 -0.58 0.34 -0.88 0.16 c-0.5 -0.32 -1 -0.58 -1.48 -0.76 c-0.64 -0.26 -1.32 -0.38 -2.02 -0.38 c-0.24 0 -0.52 0.02 -0.82 0.08 s-0.6 0.16 -0.88 0.3 c-0.26 0.14 -0.5 0.3 -0.68 0.5 c-0.18 0.22 -0.26 0.46 -0.26 0.76 s0.1 0.54 0.32 0.74 s0.48 0.36 0.82 0.5 s0.7 0.24 1.1 0.34 s0.78 0.18 1.16 0.28 c0.28 0.06 0.6 0.14 0.98 0.2 s0.78 0.16 1.18 0.28 c0.22 0.06 0.44 0.14 0.66 0.22 c0.32 0.14 0.8 0.38 1.08 0.58 c0.2 0.12 0.38 0.28 0.54 0.44 c0.32 0.32 0.58 0.7 0.76 1.16 c0.2 0.46 0.3 1.02 0.3 1.68 c0 0.76 -0.14 1.42 -0.4 1.98 s-0.64 1.02 -1.14 1.38 c-0.5 0.38 -1.08 0.66 -1.76 0.84 s-1.44 0.28 -2.26 0.28 c-0.76 0 -1.44 -0.06 -2.02 -0.18 c-0.58 -0.1 -1.1 -0.26 -1.58 -0.46 c-0.48 -0.18 -0.94 -0.42 -1.36 -0.68 c-0.26 -0.16 -0.54 -0.34 -0.82 -0.54 c-0.28 -0.18 -0.34 -0.56 -0.16 -0.84 z M131.04 20.28 c-4.18 0 -7.58 -3.4 -7.58 -7.6 c0 -4.18 3.4 -7.6 7.58 -7.6 c4.2 0 7.6 3.42 7.6 7.6 c0 4.2 -3.4 7.6 -7.6 7.6 z M131.04 7.699999999999999 c-2.64 0 -4.8 2.34 -4.8 4.98 c0 2.66 2.16 5 4.8 5 c2.66 0 4.8 -2.34 4.8 -5 c0 -2.64 -2.14 -4.98 -4.8 -4.98 z M144.82 19.82 c-0.78 -0.3 -1.44 -0.7 -1.98 -1.24 c-0.56 -0.54 -0.98 -1.18 -1.28 -1.94 s-0.44 -1.6 -0.44 -2.54 l0 -8.1 c0 -0.34 0.28 -0.62 0.6 -0.62 l1.58 0 c0.34 0 0.62 0.28 0.62 0.62 l0 8.08 c0 0.74 0.12 1.34 0.36 1.82 s0.54 0.86 0.88 1.14 c0.36 0.28 0.74 0.48 1.14 0.58 c0.42 0.1 0.78 0.16 1.1 0.16 s0.68 -0.06 1.08 -0.16 c0.42 -0.1 0.8 -0.3 1.14 -0.58 c0.36 -0.28 0.66 -0.66 0.9 -1.14 s0.36 -1.08 0.36 -1.82 l0 -8.08 c0 -0.34 0.28 -0.62 0.62 -0.62 l1.56 0 c0.34 0 0.62 0.28 0.62 0.62 l0 8.1 c0 0.94 -0.16 1.78 -0.44 2.54 c-0.3 0.76 -0.72 1.4 -1.26 1.94 c-0.56 0.54 -1.22 0.94 -1.98 1.24 c-0.78 0.3 -1.64 0.44 -2.6 0.44 s-1.82 -0.14 -2.58 -0.44 z M159.07999999999998 20 l-1.58 0 c-0.34 0 -0.62 -0.28 -0.62 -0.62 l0 -13.4 c0 -0.34 0.28 -0.62 0.62 -0.62 l6.04 0 c0.74 0 1.44 0.12 2.06 0.36 c0.62 0.26 1.14 0.6 1.58 1.04 c0.44 0.46 0.8 0.98 1.04 1.6 s0.36 1.3 0.36 2.04 c0 1.1 -0.26 2.08 -0.82 2.9 c-0.44 0.66 -1 1.16 -1.66 1.52 c-0.3 0.16 -0.4 0.48 -0.18 0.74 c0.98 1.32 1.84 2.46 2.8 3.78 c0.2 0.28 0.1 0.66 -0.24 0.66 l-2.02 0 c-0.34 0 -0.78 -0.22 -0.98 -0.48 c-0.46 -0.6 -0.9 -1.22 -1.34 -1.82 l-1.32 -1.86 c-0.2 -0.28 -0.64 -0.5 -0.98 -0.5 l-1.54 0 c-0.34 0 -0.62 0.28 -0.62 0.62 l0 3.42 c0 0.34 -0.26 0.62 -0.6 0.62 z M160.29999999999998 12.86 l3.24 0 c0.24 0 0.52 -0.06 0.78 -0.16 c0.28 -0.1 0.52 -0.24 0.74 -0.46 c0.2 -0.2 0.38 -0.46 0.52 -0.76 s0.2 -0.66 0.2 -1.08 c0 -0.22 -0.02 -0.46 -0.08 -0.76 c-0.04 -0.3 -0.16 -0.58 -0.3 -0.84 c-0.16 -0.26 -0.4 -0.5 -0.68 -0.68 c-0.3 -0.18 -0.7 -0.28 -1.18 -0.28 l-3.24 0 c-0.34 0 -0.62 0.28 -0.62 0.62 l0 3.78 c0 0.34 0.28 0.62 0.62 0.62 z M184.35999999999999 16.92 c-0.26 0.38 -0.54 0.74 -0.86 1.06 c-0.46 0.48 -0.98 0.88 -1.56 1.22 c-0.56 0.34 -1.18 0.62 -1.84 0.8 s-1.34 0.28 -2.04 0.28 c-1.04 0 -2.02 -0.2 -2.94 -0.6 s-1.72 -0.94 -2.42 -1.64 c-0.68 -0.68 -1.22 -1.48 -1.62 -2.4 s-0.6 -1.9 -0.6 -2.94 s0.2 -2.02 0.6 -2.94 s0.94 -1.72 1.62 -2.42 c0.7 -0.68 1.5 -1.22 2.42 -1.62 s1.9 -0.6 2.94 -0.6 c0.7 0 1.38 0.1 2.04 0.28 s1.28 0.44 1.84 0.78 c0.58 0.34 1.1 0.76 1.56 1.22 c0.32 0.34 0.6 0.68 0.86 1.06 c0.18 0.28 0.06 0.62 -0.26 0.74 l-1.48 0.6 c-0.3 0.14 -0.7 0.02 -0.92 -0.24 c-0.12 -0.14 -0.26 -0.28 -0.4 -0.42 c-0.28 -0.28 -0.6 -0.52 -0.94 -0.74 s-0.72 -0.38 -1.1 -0.5 s-0.78 -0.18 -1.2 -0.18 c-0.66 0 -1.3 0.14 -1.88 0.4 c-0.58 0.28 -1.08 0.64 -1.5 1.1 s-0.76 0.98 -1.02 1.58 c-0.26 0.62 -0.38 1.24 -0.38 1.9 s0.12 1.3 0.38 1.9 s0.6 1.12 1.02 1.58 s0.92 0.82 1.5 1.08 c0.58 0.28 1.22 0.42 1.88 0.42 c0.42 0 0.82 -0.06 1.2 -0.18 s0.76 -0.28 1.1 -0.5 s0.66 -0.46 0.94 -0.76 c0.14 -0.14 0.28 -0.28 0.4 -0.42 c0.22 -0.26 0.62 -0.38 0.92 -0.26 l1.48 0.6 c0.32 0.14 0.44 0.48 0.26 0.76 z M189.64 8.46 l0 2.42 c0 0.34 0.28 0.62 0.62 0.62 l5.84 0 c0.34 0 0.62 0.28 0.62 0.62 l0 1.3 c0 0.34 -0.28 0.62 -0.62 0.62 l-5.84 0 c-0.34 0 -0.62 0.28 -0.62 0.62 l0 2.2 c0 0.34 0.28 0.62 0.62 0.62 l6.74 0 c0.34 0 0.62 0.28 0.62 0.62 l0 1.28 c0 0.34 -0.28 0.62 -0.62 0.62 l-9.54 0 c-0.34 0 -0.62 -0.28 -0.62 -0.62 l0 -13.4 c0 -0.34 0.28 -0.62 0.62 -0.62 l9.54 0 c0.34 0 0.62 0.28 0.62 0.62 l0 1.24 c0 0.34 -0.28 0.62 -0.62 0.62 l-6.74 0 c-0.34 0 -0.62 0.28 -0.62 0.62 z  M220.42 16.92 c-0.26 0.38 -0.54 0.74 -0.86 1.06 c-0.46 0.48 -0.98 0.88 -1.56 1.22 c-0.56 0.34 -1.18 0.62 -1.84 0.8 s-1.34 0.28 -2.04 0.28 c-1.04 0 -2.02 -0.2 -2.94 -0.6 s-1.72 -0.94 -2.42 -1.64 c-0.68 -0.68 -1.22 -1.48 -1.62 -2.4 s-0.6 -1.9 -0.6 -2.94 s0.2 -2.02 0.6 -2.94 s0.94 -1.72 1.62 -2.42 c0.7 -0.68 1.5 -1.22 2.42 -1.62 s1.9 -0.6 2.94 -0.6 c0.7 0 1.38 0.1 2.04 0.28 s1.28 0.44 1.84 0.78 c0.58 0.34 1.1 0.76 1.56 1.22 c0.32 0.34 0.6 0.68 0.86 1.06 c0.18 0.28 0.06 0.62 -0.26 0.74 l-1.48 0.6 c-0.3 0.14 -0.7 0.02 -0.92 -0.24 c-0.12 -0.14 -0.26 -0.28 -0.4 -0.42 c-0.28 -0.28 -0.6 -0.52 -0.94 -0.74 s-0.72 -0.38 -1.1 -0.5 s-0.78 -0.18 -1.2 -0.18 c-0.66 0 -1.3 0.14 -1.88 0.4 c-0.58 0.28 -1.08 0.64 -1.5 1.1 s-0.76 0.98 -1.02 1.58 c-0.26 0.62 -0.38 1.24 -0.38 1.9 s0.12 1.3 0.38 1.9 s0.6 1.12 1.02 1.58 s0.92 0.82 1.5 1.08 c0.58 0.28 1.22 0.42 1.88 0.42 c0.42 0 0.82 -0.06 1.2 -0.18 s0.76 -0.28 1.1 -0.5 s0.66 -0.46 0.94 -0.76 c0.14 -0.14 0.28 -0.28 0.4 -0.42 c0.22 -0.26 0.62 -0.38 0.92 -0.26 l1.48 0.6 c0.32 0.14 0.44 0.48 0.26 0.76 z M233.44 18.14 l0 1.24 c0 0.34 -0.28 0.62 -0.62 0.62 l-9.3 0 c-0.34 0 -0.62 -0.28 -0.62 -0.62 l0 -13.4 c0 -0.34 0.28 -0.62 0.62 -0.62 l1.56 0 c0.34 0 0.62 0.28 0.62 0.62 l0 10.92 c0 0.34 0.28 0.62 0.62 0.62 l6.5 0 c0.34 0 0.62 0.28 0.62 0.62 z M237.78 20 l-1.58 0 c-0.34 0 -0.6 -0.28 -0.6 -0.62 l0 -13.38 c0 -0.34 0.26 -0.62 0.6 -0.62 l1.58 0 c0.34 0 0.62 0.28 0.62 0.62 l0 13.38 c0 0.34 -0.28 0.62 -0.62 0.62 z M256.74 5.699999999999999 l0 13.68 c0 0.34 -0.28 0.62 -0.6 0.62 l-1.58 0 c-0.34 0 -0.62 -0.28 -0.62 -0.62 l0 -6.16 c0 -0.34 -0.18 -0.42 -0.38 -0.14 l-3.8 4.54 c-0.22 0.26 -0.58 0.26 -0.78 0 l-3.78 -4.54 c-0.22 -0.26 -0.4 -0.2 -0.4 0.14 l0 6.16 c0 0.34 -0.28 0.62 -0.62 0.62 l-1.56 0 c-0.34 0 -0.62 -0.28 -0.62 -0.62 l0 -13.68 c0 -0.34 0.42 -0.4 0.64 -0.14 l6.32 7.8 c0.22 0.24 0.58 0.24 0.8 0 l6.34 -7.8 c0.22 -0.26 0.64 -0.2 0.64 0.14 z M270.5 10.38 c-0.12 0.32 -0.28 0.64 -0.48 0.92 s-0.46 0.52 -0.76 0.7 c-0.14 0.1 -0.3 0.18 -0.46 0.24 c-0.26 0.08 -0.24 0.1 0.06 0.18 c0.18 0.06 0.34 0.12 0.52 0.2 c0.36 0.18 0.66 0.42 0.94 0.74 c0.28 0.3 0.52 0.66 0.7 1.06 s0.26 0.82 0.26 1.26 c0 0.8 -0.12 1.48 -0.36 2.04 c-0.24 0.54 -0.56 1 -0.98 1.34 c-0.4 0.34 -0.88 0.58 -1.44 0.72 s-1.14 0.22 -1.78 0.22 l-6.14 0 c-0.34 0 -0.62 -0.28 -0.62 -0.62 l0 -13.4 c0 -0.34 0.28 -0.62 0.62 -0.62 l5.82 0 c0.6 0 1.14 0.06 1.66 0.16 c0.52 0.12 0.98 0.32 1.36 0.64 c0.4 0.3 0.7 0.7 0.92 1.24 c0.24 0.52 0.34 1.2 0.34 2.02 c0 0.3 -0.06 0.62 -0.18 0.96 z M263.38 11.32 l2.82 0 c0.28 0 0.54 -0.06 0.74 -0.16 s0.38 -0.26 0.52 -0.42 c0.14 -0.18 0.24 -0.38 0.32 -0.6 s0.1 -0.44 0.1 -0.66 c0 -0.2 -0.04 -0.42 -0.12 -0.62 s-0.18 -0.38 -0.32 -0.52 c-0.12 -0.14 -0.28 -0.26 -0.46 -0.36 s-0.38 -0.14 -0.58 -0.14 l-3.02 0 c-0.34 0 -0.62 0.28 -0.62 0.62 l0 2.24 c0 0.34 0.28 0.62 0.62 0.62 z M267.40000000000003 17.34 c0.22 -0.1 0.4 -0.26 0.56 -0.46 c0.16 -0.18 0.3 -0.4 0.38 -0.64 c0.1 -0.22 0.14 -0.46 0.14 -0.7 c0 -0.5 -0.18 -0.9 -0.54 -1.24 s-0.88 -0.5 -1.52 -0.5 l-3.04 0 c-0.34 0 -0.62 0.28 -0.62 0.62 l0 2.48 c0 0.34 0.28 0.62 0.62 0.62 l3.34 0 c0.24 0 0.48 -0.06 0.68 -0.18 z M276.44 20 l-1.58 0 c-0.34 0 -0.6 -0.28 -0.6 -0.62 l0 -13.38 c0 -0.34 0.26 -0.62 0.6 -0.62 l1.58 0 c0.34 0 0.62 0.28 0.62 0.62 l0 13.38 c0 0.34 -0.28 0.62 -0.62 0.62 z M283.46 11.92 l0 7.46 c0 0.34 -0.28 0.62 -0.62 0.62 l-1.58 0 c-0.32 0 -0.6 -0.28 -0.6 -0.62 l0 -13.68 c0 -0.34 0.44 -0.42 0.68 -0.2 l8.78 8.3 c0.26 0.24 0.46 0.14 0.46 -0.2 l0 -7.6 c0 -0.34 0.28 -0.62 0.62 -0.62 l1.56 0 c0.34 0 0.62 0.28 0.62 0.62 l0 13.66 c0 0.34 -0.44 0.42 -0.7 0.2 l-8.76 -8.16 c-0.26 -0.22 -0.46 -0.12 -0.46 0.22 z M310.8 12.620000000000001 c-0.02 0.54 -0.04 1.18 -0.06 1.26 c-0.08 0.92 -0.32 1.78 -0.74 2.56 s-0.96 1.46 -1.62 2.02 c-0.66 0.58 -1.42 1.02 -2.28 1.34 s-1.78 0.48 -2.72 0.48 c-1.04 0 -2.02 -0.2 -2.94 -0.6 s-1.72 -0.94 -2.42 -1.64 c-0.68 -0.68 -1.24 -1.48 -1.64 -2.4 s-0.6 -1.9 -0.6 -2.94 s0.2 -2.02 0.6 -2.96 c0.4 -0.92 0.96 -1.72 1.64 -2.42 c0.7 -0.68 1.5 -1.22 2.42 -1.62 s1.9 -0.6 2.94 -0.6 c1.32 0 2.54 0.3 3.64 0.92 c0.9 0.5 1.68 1.16 2.3 1.96 c0.22 0.26 0.12 0.64 -0.16 0.82 l-1.36 0.82 c-0.28 0.18 -0.66 0.08 -0.9 -0.16 c-0.36 -0.42 -0.78 -0.8 -1.28 -1.1 c-0.7 -0.42 -1.44 -0.64 -2.24 -0.64 c-0.66 0 -1.28 0.14 -1.86 0.4 c-0.58 0.28 -1.1 0.64 -1.52 1.1 c-0.44 0.46 -0.78 0.98 -1.04 1.58 c-0.26 0.62 -0.38 1.24 -0.38 1.9 s0.12 1.3 0.38 1.9 s0.6 1.12 1.04 1.58 c0.42 0.46 0.94 0.82 1.52 1.08 c0.58 0.28 1.2 0.42 1.86 0.42 c0.5 0 1 -0.08 1.46 -0.24 c0.46 -0.14 0.9 -0.36 1.28 -0.64 s0.72 -0.62 1.02 -1 c0.16 -0.22 0.3 -0.46 0.4 -0.7 c0.16 -0.32 -0.06 -0.58 -0.4 -0.58 l-4.16 0 c-0.34 0 -0.62 -0.28 -0.62 -0.62 l0 -1.28 c0 -0.34 0.28 -0.62 0.62 -0.62 l7.2 0 c0.34 0 0.62 0.28 0.62 0.62 z  M334.2 12.620000000000001 c-0.02 0.54 -0.04 1.18 -0.06 1.26 c-0.08 0.92 -0.32 1.78 -0.74 2.56 s-0.96 1.46 -1.62 2.02 c-0.66 0.58 -1.42 1.02 -2.28 1.34 s-1.78 0.48 -2.72 0.48 c-1.04 0 -2.02 -0.2 -2.94 -0.6 s-1.72 -0.94 -2.42 -1.64 c-0.68 -0.68 -1.24 -1.48 -1.64 -2.4 s-0.6 -1.9 -0.6 -2.94 s0.2 -2.02 0.6 -2.96 c0.4 -0.92 0.96 -1.72 1.64 -2.42 c0.7 -0.68 1.5 -1.22 2.42 -1.62 s1.9 -0.6 2.94 -0.6 c1.32 0 2.54 0.3 3.64 0.92 c0.9 0.5 1.68 1.16 2.3 1.96 c0.22 0.26 0.12 0.64 -0.16 0.82 l-1.36 0.82 c-0.28 0.18 -0.66 0.08 -0.9 -0.16 c-0.36 -0.42 -0.78 -0.8 -1.28 -1.1 c-0.7 -0.42 -1.44 -0.64 -2.24 -0.64 c-0.66 0 -1.28 0.14 -1.86 0.4 c-0.58 0.28 -1.1 0.64 -1.52 1.1 c-0.44 0.46 -0.78 0.98 -1.04 1.58 c-0.26 0.62 -0.38 1.24 -0.38 1.9 s0.12 1.3 0.38 1.9 s0.6 1.12 1.04 1.58 c0.42 0.46 0.94 0.82 1.52 1.08 c0.58 0.28 1.2 0.42 1.86 0.42 c0.5 0 1 -0.08 1.46 -0.24 c0.46 -0.14 0.9 -0.36 1.28 -0.64 s0.72 -0.62 1.02 -1 c0.16 -0.22 0.3 -0.46 0.4 -0.7 c0.16 -0.32 -0.06 -0.58 -0.4 -0.58 l-4.16 0 c-0.34 0 -0.62 -0.28 -0.62 -0.62 l0 -1.28 c0 -0.34 0.28 -0.62 0.62 -0.62 l7.2 0 c0.34 0 0.62 0.28 0.62 0.62 z M340.24 19.82 c-0.78 -0.3 -1.44 -0.7 -1.98 -1.24 c-0.56 -0.54 -0.98 -1.18 -1.28 -1.94 s-0.44 -1.6 -0.44 -2.54 l0 -8.1 c0 -0.34 0.28 -0.62 0.6 -0.62 l1.58 0 c0.34 0 0.62 0.28 0.62 0.62 l0 8.08 c0 0.74 0.12 1.34 0.36 1.82 s0.54 0.86 0.88 1.14 c0.36 0.28 0.74 0.48 1.14 0.58 c0.42 0.1 0.78 0.16 1.1 0.16 s0.68 -0.06 1.08 -0.16 c0.42 -0.1 0.8 -0.3 1.14 -0.58 c0.36 -0.28 0.66 -0.66 0.9 -1.14 s0.36 -1.08 0.36 -1.82 l0 -8.08 c0 -0.34 0.28 -0.62 0.62 -0.62 l1.56 0 c0.34 0 0.62 0.28 0.62 0.62 l0 8.1 c0 0.94 -0.16 1.78 -0.44 2.54 c-0.3 0.76 -0.72 1.4 -1.26 1.94 c-0.56 0.54 -1.22 0.94 -1.98 1.24 c-0.78 0.3 -1.64 0.44 -2.6 0.44 s-1.82 -0.14 -2.58 -0.44 z M354.88 20 l-1.58 0 c-0.34 0 -0.6 -0.28 -0.6 -0.62 l0 -13.38 c0 -0.34 0.26 -0.62 0.6 -0.62 l1.58 0 c0.34 0 0.62 0.28 0.62 0.62 l0 13.38 c0 0.34 -0.28 0.62 -0.62 0.62 z M364.86 20 l-5.16 0 c-0.34 0 -0.6 -0.28 -0.6 -0.62 l0 -13.4 c0 -0.34 0.26 -0.62 0.6 -0.62 l5.16 0 c2.1 0 3.82 0.62 5.16 1.84 c0.72 0.66 1.26 1.44 1.62 2.36 c0.36 0.94 0.56 1.98 0.56 3.12 c0 1.16 -0.2 2.2 -0.56 3.12 c-0.36 0.94 -0.9 1.72 -1.62 2.38 c-0.66 0.6 -1.42 1.06 -2.3 1.36 c-0.86 0.3 -1.82 0.46 -2.86 0.46 z M362.5 17.52 l2.38 0 c0.52 0 1.04 -0.06 1.58 -0.18 c0.52 -0.12 1 -0.36 1.44 -0.72 c0.44 -0.34 0.8 -0.84 1.08 -1.46 s0.42 -1.44 0.42 -2.46 s-0.14 -1.84 -0.42 -2.48 c-0.28 -0.62 -0.64 -1.12 -1.08 -1.46 s-0.94 -0.58 -1.46 -0.7 c-0.54 -0.12 -1.06 -0.18 -1.56 -0.18 l-2.38 0 c-0.34 0 -0.6 0.28 -0.6 0.62 l0 8.4 c0 0.34 0.26 0.62 0.6 0.62 z M377.62 8.46 l0 2.42 c0 0.34 0.28 0.62 0.62 0.62 l5.84 0 c0.34 0 0.62 0.28 0.62 0.62 l0 1.3 c0 0.34 -0.28 0.62 -0.62 0.62 l-5.84 0 c-0.34 0 -0.62 0.28 -0.62 0.62 l0 2.2 c0 0.34 0.28 0.62 0.62 0.62 l6.74 0 c0.34 0 0.62 0.28 0.62 0.62 l0 1.28 c0 0.34 -0.28 0.62 -0.62 0.62 l-9.54 0 c-0.34 0 -0.62 -0.28 -0.62 -0.62 l0 -13.4 c0 -0.34 0.28 -0.62 0.62 -0.62 l9.54 0 c0.34 0 0.62 0.28 0.62 0.62 l0 1.24 c0 0.34 -0.28 0.62 -0.62 0.62 l-6.74 0 c-0.34 0 -0.62 0.28 -0.62 0.62 z"></path></g></svg>
