<svg width="698" height="322"><defs id="SvgjsDefs5342"></defs><g id="SvgjsG5343" featurekey="root" fill="#161521"></g><g id="SvgjsG5344" featurekey="text4" fill="#497aba" transform="matrix(18.03607177734375,0,0,18.03607177734375,270.2424890977247,-170.72145943138074)"><path d="M3.96 11.66 c-0.66 0 -1.18 0.54 -1.18 1.2 l0 4.3 c0 0.66 0.52 1.18 1.18 1.18 l3.54 0 c0.12 0 0.22 0.1 0.22 0.22 l0 1.44 l-3.76 0 c-1.6 0 -2.92 -1.3 -2.92 -2.92 l0 -4.14 c0 -1.62 1.32 -2.92 2.92 -2.92 l3.76 0 l0 1.44 c0 0.12 -0.1 0.2 -0.22 0.2 l-3.54 0 z"></path></g><g id="SvgjsG5345" featurekey="text1" fill="#ffffff" transform="matrix(4.520388126373291,0,0,4.520388126373291,-5.42446623496639,197.8500966562808)"><path d="M1.2 16.6 l0 -8.22 c0 -1.88 1.52 -3.4 3.4 -3.4 l6.6 0 l0 1.46 c0 0.14 -0.12 0.26 -0.26 0.26 l-6.34 0 c-0.84 0 -1.52 0.68 -1.52 1.52 l0 8.54 c0 0.84 0.68 1.52 1.52 1.52 l6.34 0 c0.14 0 0.26 0.12 0.26 0.26 l0 1.46 l-6.6 0 c-1.88 0 -3.4 -1.54 -3.4 -3.4 z M16.8 20 c-1.88 0 -3.42 -1.56 -3.42 -3.46 l0 -11.3 c0 -0.14 0.12 -0.26 0.26 -0.26 l1.62 0 l0 11.74 c0 0.86 0.7 1.56 1.54 1.56 l6.24 0 c0.14 0 0.26 0.12 0.26 0.26 l0 1.46 l-6.5 0 z M25.58 20 c-0.14 0 -0.26 -0.12 -0.26 -0.26 l0 -14.76 l1.62 0 c0.14 0 0.26 0.12 0.26 0.26 l0 14.76 l-1.62 0 z M31.58 5 c0.2 0 0.44 0.14 0.54 0.32 l4.98 9.12 l5 -9.12 c0.1 -0.18 0.34 -0.32 0.54 -0.32 l1.4 0 c0.14 0 0.26 0.1 0.26 0.26 l0 14.72 l-1.62 0 c-0.14 0 -0.26 -0.12 -0.26 -0.26 l0 -11.68 l-4.18 7.94 c-0.08 0.14 -0.24 0.24 -0.4 0.24 l-1.46 0 c-0.16 0 -0.32 -0.1 -0.4 -0.24 l-4.18 -7.94 l0 11.68 c0 0.14 -0.12 0.26 -0.26 0.26 l-1.62 0 l0 -14.72 c0 -0.16 0.12 -0.26 0.26 -0.26 l1.4 0 z M47.96 20 c-0.64 0 -1.16 -0.52 -1.16 -1.16 l0 -12.74 c0 -0.62 0.5 -1.12 1.12 -1.12 l0.32 0 l6.08 0 c1.88 0 3.4 1.52 3.4 3.4 l0 1.52 c0 0.96 -0.76 2.24 -1.84 2.46 c1.08 0.28 1.84 1.5 1.84 2.46 l0 1.76 c0 1.88 -1.52 3.42 -3.4 3.42 l-6.36 0 z M55.84 16.740000000000002 l0 -2 c0 -0.84 -0.68 -1.52 -1.52 -1.52 l-5.64 0 l0 4.68 c0 0.2 0.16 0.38 0.38 0.38 l5.26 0 c0.84 0 1.52 -0.7 1.52 -1.54 z M48.68 7.08 l0 4.42 l5.64 0 c0.84 0 1.52 -0.68 1.52 -1.52 l0 -1.76 c0 -0.84 -0.68 -1.52 -1.52 -1.52 l-5.26 0 c-0.22 0 -0.38 0.16 -0.38 0.38 z M60.660000000000004 20 c-0.14 0 -0.26 -0.12 -0.26 -0.26 l0 -14.76 l1.62 0 c0.14 0 0.26 0.12 0.26 0.26 l0 14.76 l-1.62 0 z M73.32000000000001 13.7 l1.82 3.58 c-0.2 -1.56 -0.2 -2.82 -0.3 -4.24 l0 -7.8 c0 -0.14 0.12 -0.26 0.26 -0.26 l1.62 0 l0 15.02 l-1.74 0 c-0.14 0 -0.32 -0.12 -0.38 -0.24 l-6.84 -12.74 c-0.1 -0.18 -0.34 -0.32 -0.54 -0.32 l-0.34 0 l0 13.04 c0 0.14 -0.12 0.26 -0.26 0.26 l-1.62 0 l0 -14.76 c0 -0.14 0.12 -0.26 0.26 -0.26 l2.28 0 c0.64 0 1.4 0.46 1.7 1.02 z M82.56 20.08 c-1.88 0 -3.4 -1.52 -3.4 -3.4 l0 -8.38 c0 -1.88 1.52 -3.4 3.4 -3.4 l6.86 0 l0 1.46 c0 0.14 -0.12 0.26 -0.28 0.26 l-6.58 0 c-0.84 0 -1.52 0.68 -1.52 1.52 l0 8.7 c0 0.84 0.68 1.52 1.52 1.52 l4.14 0 c0.84 0 1.7 -0.68 1.7 -1.52 l0 -3.62 l-3.64 0 c-0.14 0 -0.26 -0.12 -0.26 -0.26 l0 -1.46 l5.34 0 c0.14 0 0.26 0.12 0.26 0.26 l0 5.12 c0 2.12 -1.52 3.2 -3.4 3.2 l-4.14 0 z  M103.46 20.08 c-1.88 0 -3.4 -1.52 -3.4 -3.4 l0 -8.38 c0 -1.88 1.52 -3.4 3.4 -3.4 l6.86 0 l0 1.46 c0 0.14 -0.12 0.26 -0.28 0.26 l-6.58 0 c-0.84 0 -1.52 0.68 -1.52 1.52 l0 8.7 c0 0.84 0.68 1.52 1.52 1.52 l4.14 0 c0.84 0 1.7 -0.68 1.7 -1.52 l0 -3.62 l-3.64 0 c-0.14 0 -0.26 -0.12 -0.26 -0.26 l0 -1.46 l5.34 0 c0.14 0 0.26 0.12 0.26 0.26 l0 5.12 c0 2.12 -1.52 3.2 -3.4 3.2 l-4.14 0 z M116.78 20.08 c-1.88 0 -3.4 -1.52 -3.4 -3.4 l0 -11.7 l1.62 0 c0.14 0 0.26 0.12 0.26 0.26 l0 11.6 c0 0.84 0.68 1.52 1.52 1.52 l4.52 0 c0.84 0 1.52 -0.68 1.52 -1.52 l0 -11.6 c0 -0.14 0.12 -0.26 0.26 -0.26 l1.62 0 l0 11.7 c0 1.88 -1.54 3.4 -3.4 3.4 l-4.52 0 z M127.82 20 c-0.14 0 -0.26 -0.12 -0.26 -0.26 l0 -14.76 l1.62 0 c0.14 0 0.26 0.12 0.26 0.26 l0 14.76 l-1.62 0 z M133.36 20 c-0.64 0 -1.16 -0.52 -1.16 -1.16 l0 -12.7 c0 -0.64 0.52 -1.16 1.16 -1.16 l6.42 0 c1.88 0 3.4 1.52 3.4 3.4 l0 8.22 c0 1.86 -1.52 3.4 -3.4 3.4 l-6.42 0 z M134.46 18.28 l5.32 0 c0.84 0 1.52 -0.68 1.52 -1.52 l0 -8.54 c0 -0.84 -0.68 -1.52 -1.52 -1.52 l-5.32 0 c-0.22 0 -0.38 0.16 -0.38 0.38 l0 10.82 c0 0.2 0.16 0.38 0.38 0.38 z M148.96 6.699999999999999 c-0.84 0 -1.52 0.68 -1.52 1.52 l0 3.8 c0.2 -0.24 0.56 -0.4 0.98 -0.4 l6.58 0 l0 1.46 c0 0.14 -0.12 0.26 -0.26 0.26 l-7.3 0 l0 3.42 c0 0.84 0.68 1.52 1.52 1.52 l6.48 0 c0.14 0 0.26 0.12 0.26 0.26 l0 1.46 l-6.74 0 c-1.88 0 -3.4 -1.52 -3.4 -3.4 l0 -8.22 c0 -1.88 1.52 -3.4 3.4 -3.4 l6.74 0 l0 1.46 c0 0.14 -0.12 0.26 -0.26 0.26 l-6.48 0 z"></path></g><g id="SvgjsG5346" featurekey="text3" fill="#497aba" transform="matrix(1.2972570657730103,0,0,1.2972570657730103,138.9621947252738,291.33877329773486)"><path d="M10.24 10 l0 1.56 l-3.88 0 l0 12.44 l-1.66 0 l0 -12.44 l-3.9 0 l0 -1.56 l9.44 0 z M21.020000000000003 10 l1.66 0 l0 14 l-1.66 0 l0 -6.12 l-7.12 0 l0 6.12 l-1.66 0 l0 -14 l1.66 0 l0 6.32 l7.12 0 l0 -6.32 z M26.740000000000002 22.44 l6.66 0 l0 1.56 l-7.06 0 l-1.26 0 l0 -14 l1.66 0 l6.48 0 l0 1.56 l-6.48 0 l0 4.64 l5.04 0 l0 1.52 l-5.04 0 l0 4.72 z  M48.36000000000001 9.8 c3.64 0 7.16 2.96 7.16 7.2 s-3.52 7.2 -7.16 7.2 c-3.66 0 -7.16 -2.96 -7.16 -7.2 s3.5 -7.2 7.16 -7.2 z M48.36000000000001 22.62 c2.74 0 5.44 -2.32 5.44 -5.62 s-2.7 -5.62 -5.44 -5.62 c-2.76 0 -5.44 2.32 -5.44 5.62 s2.68 5.62 5.44 5.62 z M62.18 10 c3.14 0 4.96 1.92 4.96 4.52 s-1.82 4.44 -4.96 4.44 l-2.9 0 l0 5.04 l-1.66 0 l0 -14 l4.56 0 z M62.14 17.48 c2.02 0 3.34 -1.04 3.34 -2.96 c0 -1.94 -1.32 -2.96 -3.34 -2.96 l-2.86 0 l0 5.92 l2.86 0 z M70.7 22.44 l6.66 0 l0 1.56 l-7.06 0 l-1.26 0 l0 -14 l1.66 0 l6.48 0 l0 1.56 l-6.48 0 l0 4.64 l5.04 0 l0 1.52 l-5.04 0 l0 4.72 z M89.22 10 l1.66 0 l0 14 l-1.28 0 l-8.48 -10.96 l0 10.96 l-1.66 0 l0 -14 l1.28 0 l8.48 10.98 l0 -10.98 z M97.58000000000001 9.76 c2.18 0 3.78 1.44 4.38 2.94 l-1.26 0.68 c-0.64 -1.28 -1.66 -2.12 -3.12 -2.12 c-1.54 0 -2.6 0.88 -2.6 2.1 c0 1.14 0.72 1.86 2.24 2.44 l1.02 0.38 c2.52 0.94 4.1 2.02 4.1 4.24 c0 2.4 -2.3 3.88 -4.68 3.88 s-4.34 -1.44 -4.88 -3.44 l1.34 -0.64 c0.48 1.48 1.74 2.56 3.54 2.56 c1.6 0 2.96 -0.92 2.96 -2.34 c0 -1.6 -1.12 -2.2 -2.78 -2.84 l-1.04 -0.4 c-2.12 -0.8 -3.48 -1.9 -3.48 -3.88 c0 -2.04 1.8 -3.56 4.26 -3.56 z M111.10000000000002 9.8 c3.64 0 7.16 2.96 7.16 7.2 s-3.52 7.2 -7.16 7.2 c-3.66 0 -7.16 -2.96 -7.16 -7.2 s3.5 -7.2 7.16 -7.2 z M111.10000000000002 22.62 c2.74 0 5.44 -2.32 5.44 -5.62 s-2.7 -5.62 -5.44 -5.62 c-2.76 0 -5.44 2.32 -5.44 5.62 s2.68 5.62 5.44 5.62 z M128.86 10 l1.66 0 l0 8.92 c0 3.44 -2.24 5.38 -5.08 5.38 s-5.08 -1.94 -5.08 -5.38 l0 -8.92 l1.66 0 l0 8.92 c0 2.62 1.56 3.8 3.42 3.8 s3.42 -1.18 3.42 -3.8 l0 -8.92 z M143.20000000000002 24 l-1.8 0 l-3.54 -5.04 l-0.38 0 l-2.9 0 l0 5.04 l-1.66 0 l0 -14 l4.56 0 c3.14 0 4.96 1.92 4.96 4.52 c0 2 -1.08 3.56 -3 4.16 z M134.58000000000004 11.56 l0 5.92 l2.86 0 c2.02 0 3.34 -1.04 3.34 -2.96 c0 -1.94 -1.32 -2.96 -3.34 -2.96 l-2.86 0 z M156.56000000000003 22.5 c-1.28 1.1 -2.9 1.7 -4.7 1.7 c-3.64 0 -7.16 -2.96 -7.16 -7.2 s3.52 -7.2 7.16 -7.2 c1.78 0 3.38 0.6 4.64 1.66 l-1.02 1.16 c-0.98 -0.78 -2.24 -1.24 -3.5 -1.24 c-2.86 0 -5.56 2.32 -5.56 5.62 s2.7 5.62 5.56 5.62 c1.28 0 2.56 -0.48 3.54 -1.28 z M160.12000000000006 22.44 l6.66 0 l0 1.56 l-7.06 0 l-1.26 0 l0 -14 l1.66 0 l6.48 0 l0 1.56 l-6.48 0 l0 4.64 l5.04 0 l0 1.52 l-5.04 0 l0 4.72 z  M186.44000000000003 22.5 c-1.28 1.1 -2.9 1.7 -4.7 1.7 c-3.64 0 -7.16 -2.96 -7.16 -7.2 s3.52 -7.2 7.16 -7.2 c1.78 0 3.38 0.6 4.64 1.66 l-1.02 1.16 c-0.98 -0.78 -2.24 -1.24 -3.5 -1.24 c-2.86 0 -5.56 2.32 -5.56 5.62 s2.7 5.62 5.56 5.62 c1.28 0 2.56 -0.48 3.54 -1.28 z M190.00000000000006 22.44 l6.28 0 l0 1.56 l-7.94 0 l0 -14 l1.66 0 l0 12.44 z M199.94000000000005 10 l0 14 l-1.66 0 l0 -14 l1.66 0 z M216.92000000000004 10 l0 14 l-1.7 0 l0 -10.28 l-4.92 10.28 l-1.36 0 l-4.9 -10.26 l0 10.26 l-1.7 0 l0 -14 l1.64 0 l5.66 11.72 l5.64 -11.72 l1.64 0 z M226.06000000000003 16.3 c1.84 0.42 3.04 1.94 3.04 3.7 c0 2.46 -1.6 4 -5.06 4 l-4.72 0 l0 -14 l4.78 0 c2.74 0 4.1 1.56 4.1 3.38 c0 1.34 -0.76 2.42 -2.14 2.92 z M223.98000000000005 11.48 l-3 0 l0 4.28 l3 0 c1.6 0 2.58 -0.88 2.58 -2.16 c0 -1.32 -0.92 -2.12 -2.58 -2.12 z M223.98000000000005 22.52 c2.4 0 3.46 -0.98 3.46 -2.66 c0 -1.46 -1.06 -2.72 -3.36 -2.72 l-3.1 0 l0 5.38 l3 0 z M232.66000000000005 10 l0 14 l-1.66 0 l0 -14 l1.66 0 z M244.82000000000005 10 l1.66 0 l0 14 l-1.28 0 l-8.48 -10.96 l0 10.96 l-1.66 0 l0 -14 l1.28 0 l8.48 10.98 l0 -10.98 z M262.14000000000004 16.96 c0.3 4.48 -2.76 7.24 -6.4 7.24 c-3.74 0 -7.16 -2.96 -7.16 -7.2 s3.5 -7.2 7.16 -7.2 c1.76 0 3.36 0.6 4.62 1.66 l-1.02 1.16 c-0.98 -0.78 -2.24 -1.24 -3.5 -1.24 c-2.86 0 -5.54 2.32 -5.54 5.62 s2.6 5.62 5.44 5.62 c2.48 0 4.46 -1.34 4.84 -4.22 l-4.08 0 l0 -1.44 l5.64 0 z  M283.52000000000004 16.96 c0.3 4.48 -2.76 7.24 -6.4 7.24 c-3.74 0 -7.16 -2.96 -7.16 -7.2 s3.5 -7.2 7.16 -7.2 c1.76 0 3.36 0.6 4.62 1.66 l-1.02 1.16 c-0.98 -0.78 -2.24 -1.24 -3.5 -1.24 c-2.86 0 -5.54 2.32 -5.54 5.62 s2.6 5.62 5.44 5.62 c2.48 0 4.46 -1.34 4.84 -4.22 l-4.08 0 l0 -1.44 l5.64 0 z M294.14000000000004 10 l1.66 0 l0 8.92 c0 3.44 -2.24 5.38 -5.08 5.38 s-5.08 -1.94 -5.08 -5.38 l0 -8.92 l1.66 0 l0 8.92 c0 2.62 1.56 3.8 3.42 3.8 s3.42 -1.18 3.42 -3.8 l0 -8.92 z M299.86000000000007 10 l0 14 l-1.66 0 l0 -14 l1.66 0 z M306.4200000000001 10 c4.08 0 7.08 3.1 7.08 7 s-3 7 -7.08 7 l-4.16 0 l0 -14 l4.16 0 z M306.40000000000003 22.42 c3.34 0 5.4 -2.42 5.4 -5.42 s-2.06 -5.42 -5.4 -5.42 l-2.48 0 l0 10.84 l2.48 0 z M317.1600000000001 22.44 l6.66 0 l0 1.56 l-7.06 0 l-1.26 0 l0 -14 l1.66 0 l6.48 0 l0 1.56 l-6.48 0 l0 4.64 l5.04 0 l0 1.52 l-5.04 0 l0 4.72 z"></path></g></svg>
