<svg width="463" height="194"><defs id="SvgjsDefs5347"></defs><g id="SvgjsG5348" featurekey="root" fill="#000000"></g><g id="SvgjsG5349" featurekey="symbol1" fill="#ffffff" transform="matrix(0.23026315867900848,0,0,0.23026315867900848,196,10.063754665224176)"><defs></defs><g><path class="fil0" d="M2 149l52 -69 11 11 41 -61 26 46 12 -18 38 64 8 -12 39 55 8 -15 67 32 -18 4 -45 -18 -9 16 -41 -51 -13 18 -33 -70c0,0 -12,34 -13,32 -1,-2 -27,-59 -27,-59l-42 66 -9 -25 -28 49 -24 5z" style="fill: #fff;"></path><path class="fil1" d="M183 22c5,-10 15,-8 20,1 6,-10 10,-10 18,-3l-2 3c-9,-9 -11,-3 -15,7 -3,-7 -12,-19 -17,-6l-4 -2z" style="fill: #fff; fill-rule: nonzero;"></path><path class="fil1" d="M224 31c4,-8 13,-7 17,1 5,-9 9,-9 16,-3l-2 3c-8,-8 -9,-3 -13,6 -3,-6 -10,-16 -15,-5l-3 -2z" style="fill: #fff; fill-rule: nonzero;"></path><path class="fil1" d="M221 6c3,-8 12,-7 16,0 5,-8 9,-8 16,-2l-3 2c-8,-7 -9,-2 -13,6 -2,-5 -9,-15 -13,-5l-3 -1z" style="fill: #fff; fill-rule: nonzero;"></path><path class="fil0" d="M0 161c21,-2 170,-7 173,15 5,27 -81,31 -82,38 -2,14 148,-1 164,-8l34 11c-22,8 -257,48 -233,-7 15,-16 89,-15 92,-32 1,-17 -115,-10 -148,-17l0 0z" style="fill: #fff;"></path></g></g><g id="SvgjsG5350" featurekey="text1" fill="#ffffff" transform="matrix(4.063213348388672,0,0,4.063213348388672,-3.6568962240258136,54.36786709393955)"><path d="M7.8 17 c-0.18 0 -0.26 -0.1 -0.32 -0.26 c-0.22 -1.24 -1.1 -1.86 -2.3 -1.86 l-0.68 0 c-1.66 0 -2.58 0.9 -2.58 2.72 l0 3 c0 1.62 0.92 2.54 2.58 2.54 l0.66 0 c1.4 0 1.82 -0.56 2.46 -1.32 c0.14 -0.16 0.22 -0.2 0.4 -0.08 l0.28 0.22 c0.18 0.12 0.18 0.26 0.06 0.42 c-0.72 0.88 -1.36 1.72 -3.2 1.72 l-0.66 0 c-2.1 0 -3.6 -1.32 -3.6 -3.56 l0 -2.98 c0 -2.36 1.5 -3.62 3.6 -3.62 l0.68 0 c1.72 0 3 1.02 3.32 2.76 c0.04 0.18 -0.06 0.3 -0.24 0.3 l-0.46 0 z M10.52 10.3 c0 -0.2 0.1 -0.3 0.3 -0.3 l0.38 0 c0.2 0 0.3 0.1 0.3 0.3 l0 13.4 c0 0.2 -0.1 0.3 -0.3 0.3 l-0.38 0 c-0.2 0 -0.3 -0.1 -0.3 -0.3 l0 -13.4 z M14.139999999999999 10.3 c0 -0.2 0.1 -0.3 0.3 -0.3 l0.32 0 c0.2 0 0.3 0.1 0.3 0.3 l0 0.44 c0 0.2 -0.1 0.3 -0.3 0.3 l-0.32 0 c-0.2 0 -0.3 -0.1 -0.3 -0.3 l0 -0.44 z M14.1 14.3 c0 -0.2 0.1 -0.3 0.3 -0.3 l0.38 0 c0.2 0 0.3 0.1 0.3 0.3 l0 9.4 c0 0.2 -0.1 0.3 -0.3 0.3 l-0.38 0 c-0.2 0 -0.3 -0.1 -0.3 -0.3 l0 -9.4 z M28.36 13.92 c2.36 0 3.16 1.2 3.16 3.54 l0 6.24 c0 0.2 -0.1 0.3 -0.3 0.3 l-0.38 0 c-0.2 0 -0.3 -0.1 -0.3 -0.3 l0 -6.18 c0 -1.74 -0.38 -2.66 -2.18 -2.66 l-0.32 0 c-1.68 0 -2.64 1.04 -2.94 1.58 l0 7.26 c0 0.2 -0.1 0.3 -0.3 0.3 l-0.38 0 c-0.2 0 -0.3 -0.1 -0.3 -0.3 l0 -6.18 c0 -1.74 -0.4 -2.66 -2.18 -2.66 l-0.34 0 c-1.66 0 -2.62 1.04 -2.94 1.58 l0 7.26 c0 0.2 -0.1 0.3 -0.3 0.3 l-0.38 0 c-0.2 0 -0.3 -0.1 -0.3 -0.3 l0 -9.4 c0 -0.2 0.1 -0.3 0.3 -0.3 l0.38 0 c0.2 0 0.3 0.1 0.3 0.3 l0 1.26 c0.78 -1.12 1.9 -1.64 3.1 -1.64 l0.16 0 c1.76 0 2.66 0.68 3 1.98 l0.18 -0.34 c0.76 -1.12 1.88 -1.64 3.1 -1.64 l0.16 0 z M38.339999999999996 13.92 c2.08 0 3.54 1.26 3.54 3.64 l0 2.86 c0 2.34 -1.46 3.68 -3.54 3.68 l-0.72 0 c-1.5 0 -2.32 -0.62 -2.72 -1.64 l0 1.24 c0 0.2 -0.1 0.3 -0.3 0.3 l-0.38 0 c-0.2 0 -0.3 -0.1 -0.3 -0.3 l0 -13.4 c0 -0.2 0.1 -0.3 0.3 -0.3 l0.38 0 c0.2 0 0.3 0.1 0.3 0.3 l0 5.14 c0.4 -1 1.22 -1.52 2.72 -1.52 l0.72 0 z M40.9 20.5 l0 -2.88 c0 -1.86 -0.92 -2.74 -2.58 -2.74 l-0.84 0 c-1.66 0 -2.58 0.88 -2.58 2.74 l0 2.88 c0 1.72 0.92 2.64 2.58 2.64 l0.84 0 c1.66 0 2.58 -0.92 2.58 -2.64 z M44.22 10.3 c0 -0.2 0.1 -0.3 0.3 -0.3 l0.32 0 c0.2 0 0.3 0.1 0.3 0.3 l0 0.44 c0 0.2 -0.1 0.3 -0.3 0.3 l-0.32 0 c-0.2 0 -0.3 -0.1 -0.3 -0.3 l0 -0.44 z M44.18 14.3 c0 -0.2 0.1 -0.3 0.3 -0.3 l0.38 0 c0.2 0 0.3 0.1 0.3 0.3 l0 9.4 c0 0.2 -0.1 0.3 -0.3 0.3 l-0.38 0 c-0.2 0 -0.3 -0.1 -0.3 -0.3 l0 -9.4 z M52 13.92 c2.38 0 3.18 1.2 3.18 3.54 l0 6.24 c0 0.2 -0.1 0.3 -0.3 0.3 l-0.38 0 c-0.2 0 -0.3 -0.1 -0.3 -0.3 l0 -6.18 c0 -1.74 -0.4 -2.66 -2.18 -2.66 l-0.34 0 c-1.66 0 -2.62 1.04 -2.94 1.58 l0 7.26 c0 0.2 -0.1 0.3 -0.3 0.3 l-0.38 0 c-0.2 0 -0.3 -0.1 -0.3 -0.3 l0 -9.4 c0 -0.2 0.1 -0.3 0.3 -0.3 l0.38 0 c0.2 0 0.3 0.1 0.3 0.3 l0 1.26 c0.78 -1.12 1.9 -1.64 3.1 -1.64 l0.16 0 z  M64.94 14 c0.2 0 0.3 0.1 0.3 0.3 l0 10.28 c0 2.3 -1.42 3.42 -4.14 3.42 c-0.64 0 -1.12 -0.02 -1.78 -0.18 c-0.12 -0.02 -0.18 -0.08 -0.18 -0.18 l0 -0.6 c0 -0.12 0.06 -0.18 0.18 -0.16 c0.66 0.16 1.14 0.18 1.78 0.18 c1.94 0 3.16 -0.42 3.16 -2.44 l0 -2.14 c-0.42 1 -1.24 1.62 -2.72 1.62 l-0.72 0 c-2.08 0 -3.54 -1.34 -3.54 -3.68 l0 -2.86 c0 -2.38 1.46 -3.64 3.54 -3.64 l0.72 0 c1.48 0 2.3 0.52 2.72 1.5 l0 -1.12 c0 -0.2 0.1 -0.3 0.3 -0.3 l0.38 0 z M61.68 23.14 c1.66 0 2.58 -0.92 2.58 -2.64 l0 -2.88 c0 -1.86 -0.92 -2.76 -2.58 -2.76 l-0.84 0 c-1.66 0 -2.58 0.9 -2.58 2.76 l0 2.88 c0 1.72 0.92 2.64 2.58 2.64 l0.84 0 z  M81 14 c0.2 0 0.3 0.1 0.3 0.3 l0 10.28 c0 2.3 -1.42 3.42 -4.14 3.42 c-0.64 0 -1.12 -0.02 -1.78 -0.18 c-0.12 -0.02 -0.18 -0.08 -0.18 -0.18 l0 -0.6 c0 -0.12 0.06 -0.18 0.18 -0.16 c0.66 0.16 1.14 0.18 1.78 0.18 c1.94 0 3.16 -0.42 3.16 -2.44 l0 -2.14 c-0.42 1 -1.24 1.62 -2.72 1.62 l-0.72 0 c-2.08 0 -3.54 -1.34 -3.54 -3.68 l0 -2.86 c0 -2.38 1.46 -3.64 3.54 -3.64 l0.72 0 c1.48 0 2.3 0.52 2.72 1.5 l0 -1.12 c0 -0.2 0.1 -0.3 0.3 -0.3 l0.38 0 z M77.74 23.14 c1.66 0 2.58 -0.92 2.58 -2.64 l0 -2.88 c0 -1.86 -0.92 -2.76 -2.58 -2.76 l-0.84 0 c-1.66 0 -2.58 0.9 -2.58 2.76 l0 2.88 c0 1.72 0.92 2.64 2.58 2.64 l0.84 0 z M86.88 24.08 c-2.36 0 -3.18 -1.22 -3.18 -3.54 l0 -6.24 c0 -0.2 0.1 -0.3 0.3 -0.3 l0.38 0 c0.2 0 0.3 0.1 0.3 0.3 l0 6.18 c0 1.74 0.4 2.64 2.2 2.64 l0.32 0 c1.66 0 2.62 -1.02 2.94 -1.56 l0 -7.26 c0 -0.2 0.1 -0.3 0.3 -0.3 l0.38 0 c0.2 0 0.3 0.1 0.3 0.3 l0 9.4 c0 0.2 -0.1 0.3 -0.3 0.3 l-0.38 0 c-0.2 0 -0.3 -0.1 -0.3 -0.3 l0 -1.26 c-0.78 1.12 -1.9 1.64 -3.1 1.64 l-0.16 0 z M93.75999999999999 10.3 c0 -0.2 0.1 -0.3 0.3 -0.3 l0.32 0 c0.2 0 0.3 0.1 0.3 0.3 l0 0.44 c0 0.2 -0.1 0.3 -0.3 0.3 l-0.32 0 c-0.2 0 -0.3 -0.1 -0.3 -0.3 l0 -0.44 z M93.72 14.3 c0 -0.2 0.1 -0.3 0.3 -0.3 l0.38 0 c0.2 0 0.3 0.1 0.3 0.3 l0 9.4 c0 0.2 -0.1 0.3 -0.3 0.3 l-0.38 0 c-0.2 0 -0.3 -0.1 -0.3 -0.3 l0 -9.4 z M104.66 10 c0.2 0 0.3 0.1 0.3 0.3 l0 13.4 c0 0.2 -0.1 0.3 -0.3 0.3 l-0.38 0 c-0.2 0 -0.3 -0.1 -0.3 -0.3 l0 -1.22 c-0.42 1 -1.24 1.62 -2.72 1.62 l-0.72 0 c-2.08 0 -3.54 -1.34 -3.54 -3.68 l0 -2.86 c0 -2.38 1.46 -3.64 3.54 -3.64 l0.72 0 c1.48 0 2.3 0.52 2.72 1.5 l0 -5.12 c0 -0.2 0.1 -0.3 0.3 -0.3 l0.38 0 z M101.39999999999999 23.14 c1.66 0 2.58 -0.92 2.58 -2.64 l0 -2.88 c0 -1.86 -0.92 -2.76 -2.58 -2.76 l-0.84 0 c-1.66 0 -2.58 0.9 -2.58 2.76 l0 2.88 c0 1.72 0.92 2.64 2.58 2.64 l0.84 0 z M111.32 13.92 c1.72 0 3.48 1.28 3.48 3.62 l0 1.26 c0 0.38 -0.26 0.62 -0.66 0.62 l-6.06 0 l0 1.18 c0 1.62 0.92 2.54 2.58 2.54 l0.66 0 c1.4 0 1.78 -0.58 2.4 -1.32 c0.14 -0.16 0.22 -0.2 0.42 -0.06 l0.26 0.18 c0.2 0.14 0.18 0.26 0.06 0.42 c-0.72 0.88 -1.44 1.74 -3.14 1.74 l-0.66 0 c-2.1 0 -3.6 -1.32 -3.6 -3.56 l0 -2.98 c0 -2.38 1.5 -3.64 3.6 -3.64 l0.66 0 z M113.78 18.52 l0 -0.9 c0 -1.86 -1.06 -2.76 -2.46 -2.76 l-0.66 0 c-1.66 0 -2.58 0.9 -2.58 2.74 l0 0.92 l5.7 0 z"></path></g><g id="SvgjsG5351" featurekey="text3" fill="#ffffff" transform="matrix(0.79350745677948,0,0,0.79350745677948,92.90477853430926,178.127864723602)"><path d="M10.76 7.300000000000001 c0 0.56 -0.08 2 -0.78 2 c0 -2 -1.84 -2 -3.06 -2 c-0.6 0 -0.76 0.42 -0.76 0.84 l0 10.1 c0 0.62 0.48 1.16 1.22 1.16 l0.74 0 l0 0.6 l-5.34 0 l0 -0.6 l0.68 0 c0.6 0 1.24 -0.44 1.24 -1.16 l0 -10.02 c0 -0.52 -0.12 -0.94 -0.8 -0.94 c-2.62 0 -2.98 1.2 -3.14 1.66 c-0.26 0 -0.64 -0.7 -0.64 -1.28 c0 -0.26 0 -0.78 0.58 -1.08 c0.44 -0.22 1.22 -0.22 1.86 -0.22 c0.72 0 1.46 0.06 2.88 0.06 c0.42 0 3.62 -0.1 4.2 -0.1 c0.92 0 1.12 0.56 1.12 0.98 z M24.380000000000003 7.039999999999999 c-0.56 0 -0.98 0.38 -0.98 0.96 l0 10.26 c0 0.52 0.24 1.14 1.04 1.14 l0.68 0 l0 0.6 l-4.76 0 l0 -0.6 l0.52 0 c0.98 0 1.06 -0.92 1.06 -1.14 l0 -4.52 c0 -0.16 -0.04 -0.32 -0.32 -0.36 l-6.68 0 c-0.26 0 -0.26 0.34 -0.26 0.34 l0 4.54 c0 0.54 0.22 1.14 0.96 1.14 l0.62 0 l0 0.6 l-4.62 0 l0 -0.6 l0.6 0 c0.72 0 0.98 -0.52 0.98 -1.14 l0 -10.2 c0 -0.6 -0.28 -1.02 -0.92 -1.02 l-0.66 0 l0 -0.58 l4.62 0 l0 0.58 l-0.72 0 c-0.68 0 -0.86 0.56 -0.86 0.96 l0 3.9 s0 0.36 0.26 0.36 l6.68 0 c0.28 0 0.32 -0.24 0.32 -0.34 l0 -3.86 c0 -0.66 -0.36 -1.02 -0.86 -1.02 l-0.72 0 l0 -0.58 l4.76 0 l0 0.58 l-0.74 0 z M34.54 6.34 c2.08 0 2.5 0.52 2.52 1.9 c0 0.74 -0.52 1.56 -1.18 1.56 c0 -1.8 -0.64 -2.58 -2.9 -2.58 c-1.3 0 -3.1 0.12 -3.1 0.98 l0 4.2 l3.42 0 c1 0 1.16 0.46 1.16 0.76 c0 0.58 -0.72 1.16 -1.28 1.16 c0 -0.54 -0.38 -0.9 -1.28 -0.9 l-2.02 0 l0 4.94 c0 0.72 1.94 0.74 3.34 0.74 c2.62 0 3.3 -1.98 3.3 -2.32 c0.58 0 1.08 0.56 1.08 1.16 c0 1.72 -2 2.06 -3.94 2.06 l-6.84 0 l0 -0.72 l0.66 0 c0.42 0 0.96 -0.26 0.96 -0.9 l0 -10.4 c0 -0.36 -0.14 -0.94 -0.96 -0.94 l-0.62 0 l0 -0.58 l2.84 0 c0.98 0 3.82 -0.12 4.84 -0.12 z  M52.4 20.34 c-3.78 0 -6.66 -3.16 -6.66 -7.06 c0 -4.08 2.44 -7.1 6.6 -7.1 c4.44 0 6.7 3.18 6.7 7.1 c0 3.78 -2.4 7.06 -6.64 7.06 z M47.36 13.280000000000001 c0 3.2 1.84 6.04 5.08 6.06 c3.12 0 4.98 -2.68 4.98 -6.06 c0 -3.42 -1.8 -6.16 -5.12 -6.16 c-3.44 0 -4.9 3.1 -4.94 6.16 z M66.12 6.140000000000001 c3.72 0 4.9 2.2 4.9 4.48 c0 2.5 -1.98 4.46 -4.52 4.46 c-1.04 0 -2.14 -0.34 -2.14 -1.2 c0 -0.36 0.36 -0.72 0.82 -0.74 c0 0.26 0.3 1 1.44 1 c1.92 0 2.9 -1.74 2.9 -3.44 c0 -1.66 -0.84 -3.64 -3.7 -3.64 c-0.86 0 -1.98 0.26 -2.44 0.68 l0 10.44 c0 1.04 0.82 1.22 1.4 1.22 l0.56 0 l0 0.6 l-5.14 0 l0 -0.6 l0.62 0 c0.62 0 1.1 -0.42 1.1 -0.94 l0 -10.32 c0 -0.7 -0.48 -1.08 -1.2 -1.08 l-0.52 0 l0 -0.6 l1.68 0 c1.9 -0.02 2.68 -0.32 4.24 -0.32 z M79.74 6.34 c2.08 0 2.5 0.52 2.52 1.9 c0 0.74 -0.52 1.56 -1.18 1.56 c0 -1.8 -0.64 -2.58 -2.9 -2.58 c-1.3 0 -3.1 0.12 -3.1 0.98 l0 4.2 l3.42 0 c1 0 1.16 0.46 1.16 0.76 c0 0.58 -0.72 1.16 -1.28 1.16 c0 -0.54 -0.38 -0.9 -1.28 -0.9 l-2.02 0 l0 4.94 c0 0.72 1.94 0.74 3.34 0.74 c2.62 0 3.3 -1.98 3.3 -2.32 c0.58 0 1.08 0.56 1.08 1.16 c0 1.72 -2 2.06 -3.94 2.06 l-6.84 0 l0 -0.72 l0.66 0 c0.42 0 0.96 -0.26 0.96 -0.9 l0 -10.4 c0 -0.36 -0.14 -0.94 -0.96 -0.94 l-0.62 0 l0 -0.58 l2.84 0 c0.98 0 3.82 -0.12 4.84 -0.12 z M86.14 18.26 l0 -10.04 c0 -0.52 -0.22 -1.18 -1.3 -1.18 l-0.36 0 l0 -0.58 l1.7 0 c1.52 0 2 0.68 2.66 1.64 l6.3 9.32 l0 -9.2 c0 -0.7 -0.3 -1.18 -0.92 -1.18 l-0.7 0 l0 -0.58 l4.46 0 l0 0.58 l-0.56 0 c-0.76 0 -0.98 0.58 -0.98 1 l0 10.14 c0 1.06 0.66 1.56 0.84 1.56 c-0.34 0.4 -0.9 0.4 -1.26 0.4 c-0.34 0 -0.8 -0.18 -1.12 -0.62 c-0.52 -0.68 -7.44 -10.72 -7.44 -10.72 l0 9.32 c0 0.5 0.22 1.28 1.2 1.28 l0.62 0 l0 0.6 l-4.72 0 l0 -0.6 l0.5 0 c0.72 0 1.08 -0.56 1.08 -1.14 z M104 13.879999999999999 c-3.6 -1.52 -4 -2.9 -4 -4.3 c0 -1.54 1.48 -3.4 4.22 -3.4 c2.78 0 4.1 1.32 4.1 2.68 c0 1.24 -0.78 1.56 -1.32 1.56 c0 -2.48 -1.12 -3.32 -2.78 -3.32 c-1.54 0 -2.76 1.06 -2.76 2.4 c0 3.46 7.32 2.92 7.32 7.26 c0 1.84 -1.78 3.56 -4.82 3.56 c-3.1 0 -4.46 -1.64 -4.46 -2.76 c0 -1.26 1.08 -1.44 1.08 -1.44 s0.28 3.18 3.6 3.18 c2.68 0 3.14 -1.74 3.14 -2.38 c0 -0.68 -0.08 -1.68 -3.32 -3.04 z M116.88 20.34 c-3.78 0 -6.66 -3.16 -6.66 -7.06 c0 -4.08 2.44 -7.1 6.6 -7.1 c4.44 0 6.7 3.18 6.7 7.1 c0 3.78 -2.4 7.06 -6.64 7.06 z M111.84 13.280000000000001 c0 3.2 1.84 6.04 5.08 6.06 c3.12 0 4.98 -2.68 4.98 -6.06 c0 -3.42 -1.8 -6.16 -5.12 -6.16 c-3.44 0 -4.9 3.1 -4.94 6.16 z M137.38 7.039999999999999 c-0.38 0 -0.98 0.24 -0.98 0.82 l0 10.12 c0 0.88 0.32 1.4 1.06 1.4 l0.66 0 l0 0.62 l-1.46 0 c-1.04 0 -1.72 -0.62 -1.72 -1.74 l0 -0.42 c-0.68 0.88 -2.1 2.3 -4.16 2.3 c-3.3 0 -4.56 -2.16 -4.56 -5 l0 -7.06 c0 -0.54 -0.2 -1.04 -1.06 -1.04 l-0.52 0 l0 -0.58 l4.62 0 l0 0.58 l-0.72 0 c-0.28 0 -0.86 0.18 -0.86 0.82 l0 7.04 c0 2.56 0.96 4.16 3.08 4.16 c2.54 0 4.18 -2.44 4.18 -3.42 l0 -7.5 c0 -0.6 -0.22 -1.1 -1.06 -1.1 l-0.52 0 l0 -0.58 l4.76 0 l0 0.58 l-0.74 0 z M149.44 16.759999999999998 c1.22 2.22 1.54 2.58 2.32 2.58 l0 0.12 c0 0.56 -0.56 0.82 -1.18 0.82 c-0.96 0 -1.44 -0.94 -2.16 -2.3 c-0.78 -1.46 -1.9 -3.62 -3.66 -3.62 c-0.32 0 -0.98 -0.18 -0.98 -0.68 c0 -0.22 0.08 -0.52 0.22 -0.72 c0 0 0.5 0.32 1.16 0.32 c2.2 0 3.12 -1.82 3.12 -2.98 c0 -1.54 -0.8 -3.24 -3.54 -3.24 c-0.74 0 -1.82 0.2 -2.44 0.56 l0 10.56 c0 0.74 0.44 1.22 1.12 1.22 l0.74 0 l0 0.6 l-5.04 0 l0 -0.6 l0.58 0 c0.76 0 1.14 -0.42 1.14 -1.22 l0 -10.24 c0 -0.56 -0.44 -0.9 -1.14 -0.9 l-0.58 0 l0 -0.58 l1.92 0 c1.56 0 2.32 -0.3 3.82 -0.3 c3.46 0 5 1.8 5 3.96 c0 2.12 -1.84 3.58 -3 3.74 c1.08 0.26 1.98 1.82 2.58 2.9 z M163.01999999999998 10.3 c0 -2.44 -1.44 -3.04 -3.46 -3.04 c-2.1 0 -5.26 1.82 -5.26 6 c0 4.1 2.78 6.04 4.84 6.04 c1.9 0 3.1 -0.56 3.98 -2.2 c0.56 0 0.9 0.42 0.9 0.98 c0 1.5 -2.38 2.26 -4.78 2.26 c-2.68 0 -6.54 -1.8 -6.54 -7.02 c0 -5.36 4.08 -7.1 6.9 -7.1 s4.64 0.78 4.64 2.46 c0 1.16 -0.66 1.64 -1.06 1.64 c-0.06 0 -0.12 0 -0.16 -0.02 z  M173.84 6.34 c2.08 0 2.5 0.52 2.52 1.9 c0 0.74 -0.52 1.56 -1.18 1.56 c0 -1.8 -0.64 -2.58 -2.9 -2.58 c-1.3 0 -3.1 0.12 -3.1 0.98 l0 4.2 l3.42 0 c1 0 1.16 0.46 1.16 0.76 c0 0.58 -0.72 1.16 -1.28 1.16 c0 -0.54 -0.38 -0.9 -1.28 -0.9 l-2.02 0 l0 4.94 c0 0.72 1.94 0.74 3.34 0.74 c2.62 0 3.3 -1.98 3.3 -2.32 c0.58 0 1.08 0.56 1.08 1.16 c0 1.72 -2 2.06 -3.94 2.06 l-6.84 0 l0 -0.72 l0.66 0 c0.42 0 0.96 -0.26 0.96 -0.9 l0 -10.4 c0 -0.36 -0.14 -0.94 -0.96 -0.94 l-0.62 0 l0 -0.58 l2.84 0 c0.98 0 3.82 -0.12 4.84 -0.12 z  M195.26 10.3 c0 -2.44 -1.44 -3.04 -3.46 -3.04 c-2.1 0 -5.26 1.82 -5.26 6 c0 4.1 2.78 6.04 4.84 6.04 c1.9 0 3.1 -0.56 3.98 -2.2 c0.56 0 0.9 0.42 0.9 0.98 c0 1.5 -2.38 2.26 -4.78 2.26 c-2.68 0 -6.54 -1.8 -6.54 -7.02 c0 -5.36 4.08 -7.1 6.9 -7.1 s4.64 0.78 4.64 2.46 c0 1.16 -0.66 1.64 -1.06 1.64 c-0.06 0 -0.12 0 -0.16 -0.02 z  M201.02 7.9399999999999995 l0 10.32 c0 0.58 0.26 0.86 2.5 0.86 c1.2 0 2.92 -0.58 2.92 -1.86 c0 -0.42 -0.08 -0.54 -0.08 -0.54 c0.06 -0.04 0.32 -0.08 0.54 -0.08 c0.52 0 1 0.44 1 1.08 c0 1.84 -1.88 2.28 -3.84 2.28 l-6.1 0 l0 -0.72 l0.58 0 c0.74 0 1.02 -0.54 1.02 -0.9 l0 -10.36 c0 -0.28 -0.08 -0.98 -1.04 -0.98 l-0.52 0 l0 -0.58 l4.8 0 l0 0.58 l-0.8 0 c-0.48 0 -0.98 0.32 -0.98 0.9 z M211.90000000000003 7.9 l0 10.4 c0 0.72 0.54 1.1 0.96 1.1 l0.56 0 l0 0.6 l-4.52 0 l0 -0.6 l0.56 0 c0.64 0 0.98 -0.48 0.98 -1.1 l0 -10.4 c0 -0.56 -0.44 -0.86 -0.98 -0.86 l-0.58 0 l0 -0.58 l4.54 0 l0 0.58 l-0.66 0 c-0.5 0 -0.86 0.4 -0.86 0.86 z M233.66000000000003 19.4 l0 0.6 l-4.32 0 l0 -0.6 l0.22 0 c0.58 0 0.7 -0.52 0.7 -0.9 c0 -0.12 -0.14 -1.58 -0.3 -3.22 c-0.2 -2.16 -0.48 -5.04 -0.56 -6.02 c0 -0.22 0 -0.58 -0.02 -0.58 c-0.08 0 -0.68 1.46 -1.56 3.66 c-0.72 1.78 -1.68 4.22 -2.84 6.74 c-0.34 0.74 -0.82 0.92 -1.36 0.92 c-0.32 0 -0.56 -0.18 -0.56 -0.28 c0.06 -0.12 0.12 -0.32 0.12 -0.7 c0 -0.94 -2.16 -5.5 -2.94 -7.34 c-0.96 -2.28 -1.28 -3.04 -1.34 -3.04 c-0.12 0 -0.8 9.22 -0.8 9.62 c0 0.7 0.18 1.14 0.72 1.14 l0.22 0 l0 0.6 l-4.12 0 l0 -0.6 l0.36 0 c1.06 0 1.48 -0.86 1.52 -1.36 l0.82 -10.06 c-0.02 -0.5 -0.24 -0.94 -1.02 -0.94 l-0.72 0 l0 -0.58 l2.24 0 c1.18 0 1.66 0.36 2.2 1.7 c1.34 3.28 2.62 6 3.98 9.5 c1.48 -3.44 2.48 -6.26 3.66 -9.1 c0.2 -0.5 0.88 -2.1 2.38 -2.1 l2.24 0 l0 0.58 l-0.68 0 c-0.66 0 -1.1 0.28 -1.1 0.86 c0.02 0.34 0.12 1.7 0.98 10.06 c0.1 0.9 0.72 1.44 1.42 1.44 l0.46 0 z M245.68 9.86 c0 1.5 -0.78 2.32 -1.88 2.86 c1.2 0.3 2.56 1.36 2.56 3.34 c0 2.18 -1.46 3.94 -4.78 3.94 l-6.68 0 l0 -0.6 l0.52 0 c0.76 0 1.08 -0.5 1.08 -0.94 l0 -10.5 c0 -0.6 -0.42 -0.9 -0.88 -0.9 l-0.72 0 l0 -0.6 l1.92 0 c0.66 0 1.34 -0.08 1.94 -0.14 c0.64 -0.08 1.34 -0.14 2.16 -0.14 c3.72 0 4.76 1.92 4.76 3.68 z M241.3 19.06 c2.6 0 3.5 -1.72 3.5 -2.86 c0 -1.02 -0.48 -2.66 -2.56 -2.66 c-0.38 0 -1.04 0.12 -1.46 0.12 c-0.6 0 -0.94 -0.24 -0.94 -0.76 c0 -0.28 0.3 -0.54 0.3 -0.54 s0.84 0.1 1.3 0.1 c1.6 0 2.68 -1.08 2.68 -2.48 c0 -1.26 -0.56 -2.86 -3.58 -2.86 c-0.76 0 -1.96 0.16 -2.6 0.52 l0 10.92 c0.06 0.06 0.54 0.5 3.36 0.5 z M250.94000000000003 7.9 l0 10.4 c0 0.72 0.54 1.1 0.96 1.1 l0.56 0 l0 0.6 l-4.52 0 l0 -0.6 l0.56 0 c0.64 0 0.98 -0.48 0.98 -1.1 l0 -10.4 c0 -0.56 -0.44 -0.86 -0.98 -0.86 l-0.58 0 l0 -0.58 l4.54 0 l0 0.58 l-0.66 0 c-0.5 0 -0.86 0.4 -0.86 0.86 z M255.58 18.26 l0 -10.04 c0 -0.52 -0.22 -1.18 -1.3 -1.18 l-0.36 0 l0 -0.58 l1.7 0 c1.52 0 2 0.68 2.66 1.64 l6.3 9.32 l0 -9.2 c0 -0.7 -0.3 -1.18 -0.92 -1.18 l-0.7 0 l0 -0.58 l4.46 0 l0 0.58 l-0.56 0 c-0.76 0 -0.98 0.58 -0.98 1 l0 10.14 c0 1.06 0.66 1.56 0.84 1.56 c-0.34 0.4 -0.9 0.4 -1.26 0.4 c-0.34 0 -0.8 -0.18 -1.12 -0.62 c-0.52 -0.68 -7.44 -10.72 -7.44 -10.72 l0 9.32 c0 0.5 0.22 1.28 1.2 1.28 l0.62 0 l0 0.6 l-4.72 0 l0 -0.6 l0.5 0 c0.72 0 1.08 -0.56 1.08 -1.14 z M276.08000000000004 20.32 c-4.1 0 -6.86 -3.06 -6.86 -6.98 c0 -5.36 4.1 -7.16 7 -7.16 c2.48 0 4.72 0.3 4.72 2.46 c0 1.5 -0.92 1.76 -1.32 1.76 c0 -1.96 -0.44 -3.26 -2.9 -3.26 c-3.74 0 -5.86 2.86 -5.86 6.2 c0 4.38 3.36 5.98 5.66 5.98 c1.74 0 2.74 -0.42 2.74 -1.52 l0 -2.22 c0 -0.48 -0.14 -1.06 -1.18 -1.06 l-0.88 0 l0 -0.64 l5.12 0 l0 0.64 l-0.9 0 c-0.36 0 -0.72 0.32 -0.72 0.96 l0 2.4 c0 0.46 0 1.52 0.74 1.52 l0.32 0 l0 0.6 l-1.2 0 c-2.12 0 -2.3 0.32 -4.48 0.32 z  M297.12 20.32 c-4.1 0 -6.86 -3.06 -6.86 -6.98 c0 -5.36 4.1 -7.16 7 -7.16 c2.48 0 4.72 0.3 4.72 2.46 c0 1.5 -0.92 1.76 -1.32 1.76 c0 -1.96 -0.44 -3.26 -2.9 -3.26 c-3.74 0 -5.86 2.86 -5.86 6.2 c0 4.38 3.36 5.98 5.66 5.98 c1.74 0 2.74 -0.42 2.74 -1.52 l0 -2.22 c0 -0.48 -0.14 -1.06 -1.18 -1.06 l-0.88 0 l0 -0.64 l5.12 0 l0 0.64 l-0.9 0 c-0.36 0 -0.72 0.32 -0.72 0.96 l0 2.4 c0 0.46 0 1.52 0.74 1.52 l0.32 0 l0 0.6 l-1.2 0 c-2.12 0 -2.3 0.32 -4.48 0.32 z M317 7.039999999999999 c-0.38 0 -0.98 0.24 -0.98 0.82 l0 10.12 c0 0.88 0.32 1.4 1.06 1.4 l0.66 0 l0 0.62 l-1.46 0 c-1.04 0 -1.72 -0.62 -1.72 -1.74 l0 -0.42 c-0.68 0.88 -2.1 2.3 -4.16 2.3 c-3.3 0 -4.56 -2.16 -4.56 -5 l0 -7.06 c0 -0.54 -0.2 -1.04 -1.06 -1.04 l-0.52 0 l0 -0.58 l4.62 0 l0 0.58 l-0.72 0 c-0.28 0 -0.86 0.18 -0.86 0.82 l0 7.04 c0 2.56 0.96 4.16 3.08 4.16 c2.54 0 4.18 -2.44 4.18 -3.42 l0 -7.5 c0 -0.6 -0.22 -1.1 -1.06 -1.1 l-0.52 0 l0 -0.58 l4.76 0 l0 0.58 l-0.74 0 z M322.24 7.9 l0 10.4 c0 0.72 0.54 1.1 0.96 1.1 l0.56 0 l0 0.6 l-4.52 0 l0 -0.6 l0.56 0 c0.64 0 0.98 -0.48 0.98 -1.1 l0 -10.4 c0 -0.56 -0.44 -0.86 -0.98 -0.86 l-0.58 0 l0 -0.58 l4.54 0 l0 0.58 l-0.66 0 c-0.5 0 -0.86 0.4 -0.86 0.86 z M337.62 13.1 c0 2.64 -1.32 7.04 -5.86 7.04 c-1.7 0 -2.64 -0.48 -2.64 -1.2 c0 -0.76 0.9 -0.76 0.9 -0.76 s0.28 0.96 1.94 0.96 c2.9 0 4.06 -3.18 4.06 -6.04 c0 -2.08 -0.94 -5.92 -5.06 -5.92 c-0.42 0 -1.86 0 -2.78 0.44 l0 10 c0 0.82 -0.2 2.38 -1.86 2.38 l-1.18 0 l0 -0.6 l0.44 0 c0.74 0 1.14 -0.68 1.14 -1.28 l0 -9.98 c0 -0.62 -0.22 -1.1 -0.94 -1.1 l-0.64 0 l0 -0.58 l1.92 0 c1.34 0 2.66 -0.28 4.1 -0.28 c5.84 0 6.46 4.92 6.46 6.92 z M347 6.34 c2.08 0 2.5 0.52 2.52 1.9 c0 0.74 -0.52 1.56 -1.18 1.56 c0 -1.8 -0.64 -2.58 -2.9 -2.58 c-1.3 0 -3.1 0.12 -3.1 0.98 l0 4.2 l3.42 0 c1 0 1.16 0.46 1.16 0.76 c0 0.58 -0.72 1.16 -1.28 1.16 c0 -0.54 -0.38 -0.9 -1.28 -0.9 l-2.02 0 l0 4.94 c0 0.72 1.94 0.74 3.34 0.74 c2.62 0 3.3 -1.98 3.3 -2.32 c0.58 0 1.08 0.56 1.08 1.16 c0 1.72 -2 2.06 -3.94 2.06 l-6.84 0 l0 -0.72 l0.66 0 c0.42 0 0.96 -0.26 0.96 -0.9 l0 -10.4 c0 -0.36 -0.14 -0.94 -0.96 -0.94 l-0.62 0 l0 -0.58 l2.84 0 c0.98 0 3.82 -0.12 4.84 -0.12 z"></path></g></svg>
