<svg width="516" height="275"><defs id="SvgjsDefs5357"></defs><g id="SvgjsG5358" featurekey="root" fill="#24262c"></g><g id="SvgjsG5359" featurekey="container1" fill="#4587c9" transform="matrix(2.6672191619873047,0,0,2.6672191619873047,192.00001950225843,20.011132400944003)">   <title xmlns="http://www.w3.org/2000/svg">Untitled-1</title>   <path xmlns="http://www.w3.org/2000/svg" d="M23.11,55.78L1.69,43.41A3.39,3.39,0,0,1,0,40.48V15.75a3.39,3.39,0,0,1,1.69-2.94L23.11,0.45a3.39,3.39,0,0,1,3.39,0L47.91,12.82a3.39,3.39,0,0,1,1.69,2.94V40.48a3.39,3.39,0,0,1-1.69,2.94L26.5,55.78A3.39,3.39,0,0,1,23.11,55.78Z"></path> </g><g id="SvgjsG5360" featurekey="text4" fill="#24262c" transform="matrix(5.426310062408447,0,0,5.426310062408447,226.00748424653432,26.466054575617346)"><path d="M1 16.36 c-0.32 -0.56 0.32 0.54 0 0 c-0.88 -1.5 -1.18 -3.28 -0.9 -5 c0.42 -2.44 2.1 -4.54 4.4 -5.52 c2.38 -1 5.14 -0.7 7.22 0.82 c0.22 0.16 0.26 0.26 0.16 0.44 l-0.5 0.82 c-0.16 0.24 -0.36 0.3 -0.56 0.12 c-0.92 -0.72 -2.06 -1.02 -3.22 -1.1 c-2.32 0 -4.52 1.32 -5.48 3.48 c-1 2.26 -0.38 5 1.54 6.58 c1.9 1.6 4.66 1.72 7.16 0.14 c0.22 -0.14 0.32 -0.16 0.48 0.1 c0 0 0.54 0.9 0.56 0.94 c0.1 0.18 -0.04 0.32 -0.2 0.44 c-1.68 1.24 -3.86 1.66 -5.9 1.2 c-2 -0.44 -3.74 -1.7 -4.76 -3.46 z"></path></g><g id="SvgjsG5361" featurekey="text1" fill="#4587c9" transform="matrix(3.2390475273132324,0,0,3.2390475273132324,0.0044674612366619685,183.02739734247626)"><path d="M1 16.36 c-0.32 -0.56 0.32 0.54 0 0 c-0.88 -1.5 -1.18 -3.28 -0.9 -5 c0.42 -2.44 2.1 -4.54 4.4 -5.52 c2.38 -1 5.14 -0.7 7.22 0.82 c0.22 0.16 0.26 0.26 0.16 0.44 l-0.5 0.82 c-0.16 0.24 -0.36 0.3 -0.56 0.12 c-0.92 -0.72 -2.06 -1.02 -3.22 -1.1 c-2.32 0 -4.52 1.32 -5.48 3.48 c-1 2.26 -0.38 5 1.54 6.58 c1.9 1.6 4.66 1.72 7.16 0.14 c0.22 -0.14 0.32 -0.16 0.48 0.1 c0 0 0.54 0.9 0.56 0.94 c0.1 0.18 -0.04 0.32 -0.2 0.44 c-1.68 1.24 -3.86 1.66 -5.9 1.2 c-2 -0.44 -3.74 -1.7 -4.76 -3.46 z M22.5 20 l-8.36 0 c-0.2 0 -0.3 -0.1 -0.3 -0.3 l0 -13.72 c0 -0.22 0.14 -0.3 0.32 -0.3 l1.02 0 c0.2 0 0.3 0.12 0.3 0.3 l0 12.36 l7.02 0 c0.2 0 0.3 0.18 0.3 0.34 l0 1.02 c-0.02 0.18 -0.12 0.28 -0.3 0.3 z M25 5.68 l1.04 0 c0.26 0 0.34 0.14 0.34 0.32 l0 13.7 c0 0.2 -0.14 0.3 -0.34 0.3 l-1.04 0 c-0.2 0 -0.3 -0.1 -0.3 -0.3 l0 -13.72 c0 -0.18 0.14 -0.3 0.3 -0.3 z M38.68 10.56 l1.92 -4.64 c0.1 -0.22 0.18 -0.24 0.4 -0.24 l0.64 0 c0.22 0 0.3 0.02 0.38 0.24 l5.68 13.64 c0.02 0.06 0.04 0.12 0.04 0.18 c0 0.16 -0.12 0.26 -0.32 0.26 l-1.02 0 c-0.4 0 -0.44 -0.28 -0.82 -1.28 l-4.26 -10.46 l-4.26 10.46 c-0.4 1 -0.42 1.28 -0.82 1.28 l-1.02 0 c-0.22 0 -0.34 -0.1 -0.34 -0.26 c0 -0.06 0.02 -0.12 0.04 -0.18 l2.9 -6.94 c-0.6 -1.46 -1.2 -2.92 -1.76 -4.38 l-4.26 10.48 c-0.4 1 -0.44 1.28 -0.82 1.28 l-1.02 0 c-0.22 0 -0.34 -0.1 -0.34 -0.26 c0 -0.06 0 -0.12 0.04 -0.18 l5.68 -13.66 c0.08 -0.18 0.18 -0.22 0.38 -0.22 l0.64 0 c0.22 0 0.3 0 0.4 0.24 z M55.72 7.32 l-4.74 0 c-0.22 0 -0.32 -0.14 -0.32 -0.34 l0 -1 c0 -0.2 0.1 -0.3 0.32 -0.3 l4.84 0 c1.98 0.02 3.8 1.6 3.8 3.78 c0 1.1 -0.48 2.18 -1.32 2.94 c1.28 0.76 2.08 2.1 2.08 3.54 c0 2.2 -1.86 4.06 -4 4.06 l-6.4 0 c-0.2 0 -0.34 -0.1 -0.34 -0.3 l0 -7.58 c0 -0.18 0.14 -0.32 0.32 -0.32 l5.74 0 c1.22 0 2.22 -1 2.22 -2.22 c0 -1.28 -0.9 -2.26 -2.2 -2.26 z M51.28 13.440000000000001 l0 4.92 l5.08 0 c1.3 0 2.28 -1.2 2.32 -2.44 c0 -1.3 -0.96 -2.48 -2.32 -2.48 l-5.08 0 z M62.58 5.68 l1.04 0 c0.26 0 0.34 0.14 0.34 0.32 l0 13.7 c0 0.2 -0.14 0.3 -0.34 0.3 l-1.04 0 c-0.2 0 -0.3 -0.1 -0.3 -0.3 l0 -13.72 c0 -0.18 0.14 -0.3 0.3 -0.3 z M79 5.66 l0.1 0 c0.3 0 0.38 0.14 0.38 0.32 l-0.1 13.72 c0 0.2 -0.12 0.3 -0.36 0.3 l-1.28 0 l-8.88 -12 l0 7.44 l3.5 0.02 c0.18 0 0.3 0.14 0.3 0.32 l0 1.02 c0 0.18 -0.12 0.34 -0.32 0.34 l-4.84 -0.02 c-0.2 0 -0.3 -0.1 -0.3 -0.26 l0 -10.94 c0 -0.18 0.14 -0.32 0.34 -0.32 l1.38 0 c0.14 0 0.24 0.06 0.32 0.16 l8.5 11.46 l0.08 -11.26 c0 -0.16 0.14 -0.3 0.3 -0.3 l0.88 0 z M74.10000000000001 18.32 c0.18 0 0.3 0.14 0.3 0.32 l0 1.02 c0 0.18 -0.14 0.34 -0.32 0.34 l-6.58 0 c-0.18 0 -0.3 -0.1 -0.3 -0.3 l0 -1.02 c0 -0.2 0.1 -0.36 0.32 -0.36 l6.58 0 z M91.67999999999999 7.699999999999999 c-0.86 -0.5 -1.82 -0.74 -2.78 -0.74 c-3.14 0 -5.88 2.56 -5.88 5.68 c0 3.08 2.54 5.72 5.62 5.72 c1.12 0 2.2 -0.44 3.2 -0.94 l0 -3.5 c0 -0.28 0.18 -0.48 0.46 -0.48 l0.7 0 c0.28 0 0.48 0.2 0.48 0.48 l0 4.18 c0 0.24 -0.1 0.32 -0.32 0.48 c-1.32 0.92 -2.82 1.42 -4.44 1.42 c-2.68 0 -5.14 -1.5 -6.44 -3.82 c0 0.02 0.18 0.34 0.18 0.32 c-0.7 -1.16 -1.08 -2.5 -1.08 -3.88 c0 -4 3.3 -7.38 7.38 -7.38 c1.54 0 3.4 0.52 4.56 1.68 c0.1 0.1 0.14 0.22 0.14 0.36 c0 0.44 -0.54 0.92 -0.84 0.92 c-0.1 0 -0.2 -0.04 -0.94 -0.5 z  M112.88 7.699999999999999 c-0.86 -0.5 -1.82 -0.74 -2.78 -0.74 c-3.14 0 -5.88 2.56 -5.88 5.68 c0 3.08 2.54 5.72 5.62 5.72 c1.12 0 2.2 -0.44 3.2 -0.94 l0 -3.5 c0 -0.28 0.18 -0.48 0.46 -0.48 l0.7 0 c0.28 0 0.48 0.2 0.48 0.48 l0 4.18 c0 0.24 -0.1 0.32 -0.32 0.48 c-1.32 0.92 -2.82 1.42 -4.44 1.42 c-2.68 0 -5.14 -1.5 -6.44 -3.82 c0 0.02 0.18 0.34 0.18 0.32 c-0.7 -1.16 -1.08 -2.5 -1.08 -3.88 c0 -4 3.3 -7.38 7.38 -7.38 c1.54 0 3.4 0.52 4.56 1.68 c0.1 0.1 0.14 0.22 0.14 0.36 c0 0.44 -0.54 0.92 -0.84 0.92 c-0.1 0 -0.2 -0.04 -0.94 -0.5 z M127.96 5.4399999999999995 c0.18 0 0.38 0.1 0.38 0.3 l0 8.38 c0 3.3 -2.6 5.88 -5.9 5.88 c-3.18 0 -5.86 -2.68 -5.86 -5.88 l0 -8.38 c0 -0.16 0.12 -0.3 0.28 -0.3 l1.08 0 c0.16 0 0.32 0.14 0.32 0.3 l0 8.12 c0 2.54 1.7 4.54 4.26 4.54 c2.64 0 4.16 -2.08 4.16 -4.54 l0 -8.12 c0 -0.18 0.16 -0.3 0.34 -0.3 l0.94 0 z M130.54000000000002 5.68 l1.04 0 c0.26 0 0.34 0.14 0.34 0.32 l0 13.7 c0 0.2 -0.14 0.3 -0.34 0.3 l-1.04 0 c-0.2 0 -0.3 -0.1 -0.3 -0.3 l0 -13.72 c0 -0.18 0.14 -0.3 0.3 -0.3 z M135.48 20 c-0.18 0 -0.32 -0.08 -0.32 -0.28 l0 -13.7 c0 -0.22 0.1 -0.34 0.32 -0.34 l4.6 0 c3.96 0 7.22 3.14 7.22 7.18 c0 4.12 -3.44 7.14 -7.22 7.14 l-4.6 0 z M136.79999999999998 7.32 l0 11.04 l3.22 0 c3.2 0 5.62 -2.54 5.62 -5.66 c0 -3.2 -2.56 -5.38 -5.56 -5.38 l-3.28 0 z M149.51999999999998 20 c-0.22 0 -0.32 -0.1 -0.32 -0.32 l0 -13.72 c0 -0.2 0.12 -0.28 0.32 -0.28 l9.46 0 c0.2 0 0.3 0.1 0.3 0.3 l0 1 c0 0.24 -0.1 0.36 -0.32 0.36 l-8.08 0 l0 2.4 l6.42 0 c0.18 0 0.3 0.16 0.3 0.34 l0 1 c0 0.18 -0.12 0.34 -0.3 0.34 l-6.42 0 l0 2.48 l6.42 0 c0.18 0 0.3 0.14 0.3 0.32 l0 1.02 c0 0.16 -0.12 0.34 -0.3 0.34 l-6.42 0 l0 2.76 l8.02 0 c0.2 0 0.36 0.12 0.36 0.34 l0 0.98 c0 0.22 -0.12 0.34 -0.34 0.34 l-9.4 0 z"></path></g><g id="SvgjsG5362" featurekey="text3" fill="#4587c9" transform="matrix(0.8047419190406799,0,0,0.8047419190406799,102.2435426581234,258.9119107945289)"><path d="M11.5 7.84 l-2.94 0 c-0.34 0 -0.62 0.28 -0.62 0.62 l0 10.92 c0 0.34 -0.28 0.62 -0.62 0.62 l-1.56 0 c-0.34 0 -0.62 -0.28 -0.62 -0.62 l0 -10.92 c0 -0.34 -0.28 -0.62 -0.62 -0.62 l-2.96 0 c-0.34 0 -0.62 -0.28 -0.62 -0.62 l0 -1.24 c0 -0.34 0.28 -0.62 0.62 -0.62 l9.94 0 c0.34 0 0.62 0.28 0.62 0.62 l0 1.24 c0 0.34 -0.28 0.62 -0.62 0.62 z M26.84 5.98 l0 13.4 c0 0.34 -0.28 0.62 -0.62 0.62 l-1.56 0 c-0.34 0 -0.62 -0.28 -0.62 -0.62 l0 -4.58 c0 -0.34 -0.28 -0.62 -0.62 -0.62 l-5.98 0 c-0.34 0 -0.62 0.28 -0.62 0.62 l0 4.58 c0 0.34 -0.28 0.62 -0.62 0.62 l-1.56 0 c-0.34 0 -0.62 -0.28 -0.62 -0.62 l0 -13.4 c0 -0.34 0.28 -0.62 0.62 -0.62 l1.56 0 c0.34 0 0.62 0.28 0.62 0.62 l0 5.1 c0 0.34 0.28 0.62 0.62 0.62 l5.98 0 c0.34 0 0.62 -0.28 0.62 -0.62 l0 -5.1 c0 -0.34 0.28 -0.62 0.62 -0.62 l1.56 0 c0.34 0 0.62 0.28 0.62 0.62 z M32.839999999999996 8.46 l0 2.42 c0 0.34 0.28 0.62 0.62 0.62 l5.84 0 c0.34 0 0.62 0.28 0.62 0.62 l0 1.3 c0 0.34 -0.28 0.62 -0.62 0.62 l-5.84 0 c-0.34 0 -0.62 0.28 -0.62 0.62 l0 2.2 c0 0.34 0.28 0.62 0.62 0.62 l6.74 0 c0.34 0 0.62 0.28 0.62 0.62 l0 1.28 c0 0.34 -0.28 0.62 -0.62 0.62 l-9.54 0 c-0.34 0 -0.62 -0.28 -0.62 -0.62 l0 -13.4 c0 -0.34 0.28 -0.62 0.62 -0.62 l9.54 0 c0.34 0 0.62 0.28 0.62 0.62 l0 1.24 c0 0.34 -0.28 0.62 -0.62 0.62 l-6.74 0 c-0.34 0 -0.62 0.28 -0.62 0.62 z  M57.379999999999995 20.28 c-4.18 0 -7.58 -3.4 -7.58 -7.6 c0 -4.18 3.4 -7.6 7.58 -7.6 c4.2 0 7.6 3.42 7.6 7.6 c0 4.2 -3.4 7.6 -7.6 7.6 z M57.379999999999995 7.699999999999999 c-2.64 0 -4.8 2.34 -4.8 4.98 c0 2.66 2.16 5 4.8 5 c2.66 0 4.8 -2.34 4.8 -5 c0 -2.64 -2.14 -4.98 -4.8 -4.98 z M76.02 5.76 c0.62 0.28 1.18 0.66 1.64 1.12 c0.48 0.46 0.84 1.02 1.12 1.64 c0.26 0.64 0.4 1.32 0.4 2.04 s-0.12 1.38 -0.36 2 s-0.58 1.14 -1.06 1.6 c-0.46 0.46 -1.06 0.82 -1.76 1.08 c-0.72 0.26 -1.54 0.4 -2.48 0.4 l-2.64 0 c-0.34 0 -0.62 0.28 -0.62 0.62 l0 3.12 c0 0.34 -0.26 0.62 -0.6 0.62 l-1.58 0 c-0.34 0 -0.62 -0.28 -0.62 -0.62 l0 -13.4 c0 -0.34 0.28 -0.62 0.62 -0.62 l5.9 0 c0.72 0 1.4 0.14 2.04 0.4 z M75.06 12.9 c0.32 -0.14 0.56 -0.32 0.76 -0.56 c0.18 -0.24 0.34 -0.52 0.42 -0.82 c0.1 -0.3 0.14 -0.62 0.14 -0.96 s-0.06 -0.66 -0.18 -1 c-0.12 -0.32 -0.28 -0.6 -0.52 -0.86 c-0.22 -0.26 -0.5 -0.46 -0.84 -0.62 c-0.32 -0.16 -0.72 -0.24 -1.16 -0.24 l-2.8 0 c-0.34 0 -0.62 0.28 -0.62 0.62 l0 4.04 c0 0.34 0.28 0.62 0.62 0.62 l3.1 0 c0.42 0 0.78 -0.08 1.08 -0.22 z M83.82000000000001 8.46 l0 2.42 c0 0.34 0.28 0.62 0.62 0.62 l5.84 0 c0.34 0 0.62 0.28 0.62 0.62 l0 1.3 c0 0.34 -0.28 0.62 -0.62 0.62 l-5.84 0 c-0.34 0 -0.62 0.28 -0.62 0.62 l0 2.2 c0 0.34 0.28 0.62 0.62 0.62 l6.74 0 c0.34 0 0.62 0.28 0.62 0.62 l0 1.28 c0 0.34 -0.28 0.62 -0.62 0.62 l-9.54 0 c-0.34 0 -0.62 -0.28 -0.62 -0.62 l0 -13.4 c0 -0.34 0.28 -0.62 0.62 -0.62 l9.54 0 c0.34 0 0.62 0.28 0.62 0.62 l0 1.24 c0 0.34 -0.28 0.62 -0.62 0.62 l-6.74 0 c-0.34 0 -0.62 0.28 -0.62 0.62 z M97.48 11.92 l0 7.46 c0 0.34 -0.28 0.62 -0.62 0.62 l-1.58 0 c-0.32 0 -0.6 -0.28 -0.6 -0.62 l0 -13.68 c0 -0.34 0.44 -0.42 0.68 -0.2 l8.78 8.3 c0.26 0.24 0.46 0.14 0.46 -0.2 l0 -7.6 c0 -0.34 0.28 -0.62 0.62 -0.62 l1.56 0 c0.34 0 0.62 0.28 0.62 0.62 l0 13.66 c0 0.34 -0.44 0.42 -0.7 0.2 l-8.76 -8.16 c-0.26 -0.22 -0.46 -0.12 -0.46 0.22 z M110.36 17.58 l0.84 -1.24 c0.18 -0.28 0.56 -0.34 0.84 -0.16 c0.58 0.36 1.16 0.68 1.76 0.96 c0.78 0.38 1.6 0.56 2.46 0.56 c0.46 0 0.86 -0.06 1.2 -0.18 c0.34 -0.1 0.64 -0.26 0.88 -0.44 s0.42 -0.38 0.54 -0.62 c0.12 -0.22 0.18 -0.46 0.18 -0.68 c0 -0.3 -0.1 -0.54 -0.28 -0.76 c-0.18 -0.2 -0.42 -0.36 -0.72 -0.5 s-0.64 -0.24 -1.06 -0.34 c-0.4 -0.1 -0.82 -0.18 -1.26 -0.26 c-0.3 -0.06 -0.64 -0.12 -1.02 -0.2 c-0.38 -0.06 -0.78 -0.16 -1.2 -0.3 c-0.42 -0.12 -0.82 -0.28 -1.22 -0.5 c-0.4 -0.2 -0.76 -0.46 -1.08 -0.78 c-0.32 -0.3 -0.58 -0.68 -0.78 -1.12 c-0.18 -0.42 -0.28 -0.94 -0.28 -1.52 c0 -0.86 0.18 -1.56 0.52 -2.14 c0.34 -0.56 0.78 -1 1.32 -1.34 c0.54 -0.32 1.14 -0.54 1.8 -0.68 s1.3 -0.2 1.92 -0.2 s1.16 0.04 1.64 0.12 s0.92 0.2 1.34 0.34 c0.42 0.16 0.82 0.36 1.2 0.58 c0.26 0.16 0.5 0.32 0.78 0.48 c0.28 0.2 0.34 0.58 0.14 0.86 l-0.84 1.2 c-0.2 0.28 -0.58 0.34 -0.88 0.16 c-0.5 -0.32 -1 -0.58 -1.48 -0.76 c-0.64 -0.26 -1.32 -0.38 -2.02 -0.38 c-0.24 0 -0.52 0.02 -0.82 0.08 s-0.6 0.16 -0.88 0.3 c-0.26 0.14 -0.5 0.3 -0.68 0.5 c-0.18 0.22 -0.26 0.46 -0.26 0.76 s0.1 0.54 0.32 0.74 s0.48 0.36 0.82 0.5 s0.7 0.24 1.1 0.34 s0.78 0.18 1.16 0.28 c0.28 0.06 0.6 0.14 0.98 0.2 s0.78 0.16 1.18 0.28 c0.22 0.06 0.44 0.14 0.66 0.22 c0.32 0.14 0.8 0.38 1.08 0.58 c0.2 0.12 0.38 0.28 0.54 0.44 c0.32 0.32 0.58 0.7 0.76 1.16 c0.2 0.46 0.3 1.02 0.3 1.68 c0 0.76 -0.14 1.42 -0.4 1.98 s-0.64 1.02 -1.14 1.38 c-0.5 0.38 -1.08 0.66 -1.76 0.84 s-1.44 0.28 -2.26 0.28 c-0.76 0 -1.44 -0.06 -2.02 -0.18 c-0.58 -0.1 -1.1 -0.26 -1.58 -0.46 c-0.48 -0.18 -0.94 -0.42 -1.36 -0.68 c-0.26 -0.16 -0.54 -0.34 -0.82 -0.54 c-0.28 -0.18 -0.34 -0.56 -0.16 -0.84 z M131.04 20.28 c-4.18 0 -7.58 -3.4 -7.58 -7.6 c0 -4.18 3.4 -7.6 7.58 -7.6 c4.2 0 7.6 3.42 7.6 7.6 c0 4.2 -3.4 7.6 -7.6 7.6 z M131.04 7.699999999999999 c-2.64 0 -4.8 2.34 -4.8 4.98 c0 2.66 2.16 5 4.8 5 c2.66 0 4.8 -2.34 4.8 -5 c0 -2.64 -2.14 -4.98 -4.8 -4.98 z M144.82 19.82 c-0.78 -0.3 -1.44 -0.7 -1.98 -1.24 c-0.56 -0.54 -0.98 -1.18 -1.28 -1.94 s-0.44 -1.6 -0.44 -2.54 l0 -8.1 c0 -0.34 0.28 -0.62 0.6 -0.62 l1.58 0 c0.34 0 0.62 0.28 0.62 0.62 l0 8.08 c0 0.74 0.12 1.34 0.36 1.82 s0.54 0.86 0.88 1.14 c0.36 0.28 0.74 0.48 1.14 0.58 c0.42 0.1 0.78 0.16 1.1 0.16 s0.68 -0.06 1.08 -0.16 c0.42 -0.1 0.8 -0.3 1.14 -0.58 c0.36 -0.28 0.66 -0.66 0.9 -1.14 s0.36 -1.08 0.36 -1.82 l0 -8.08 c0 -0.34 0.28 -0.62 0.62 -0.62 l1.56 0 c0.34 0 0.62 0.28 0.62 0.62 l0 8.1 c0 0.94 -0.16 1.78 -0.44 2.54 c-0.3 0.76 -0.72 1.4 -1.26 1.94 c-0.56 0.54 -1.22 0.94 -1.98 1.24 c-0.78 0.3 -1.64 0.44 -2.6 0.44 s-1.82 -0.14 -2.58 -0.44 z M159.07999999999998 20 l-1.58 0 c-0.34 0 -0.62 -0.28 -0.62 -0.62 l0 -13.4 c0 -0.34 0.28 -0.62 0.62 -0.62 l6.04 0 c0.74 0 1.44 0.12 2.06 0.36 c0.62 0.26 1.14 0.6 1.58 1.04 c0.44 0.46 0.8 0.98 1.04 1.6 s0.36 1.3 0.36 2.04 c0 1.1 -0.26 2.08 -0.82 2.9 c-0.44 0.66 -1 1.16 -1.66 1.52 c-0.3 0.16 -0.4 0.48 -0.18 0.74 c0.98 1.32 1.84 2.46 2.8 3.78 c0.2 0.28 0.1 0.66 -0.24 0.66 l-2.02 0 c-0.34 0 -0.78 -0.22 -0.98 -0.48 c-0.46 -0.6 -0.9 -1.22 -1.34 -1.82 l-1.32 -1.86 c-0.2 -0.28 -0.64 -0.5 -0.98 -0.5 l-1.54 0 c-0.34 0 -0.62 0.28 -0.62 0.62 l0 3.42 c0 0.34 -0.26 0.62 -0.6 0.62 z M160.29999999999998 12.86 l3.24 0 c0.24 0 0.52 -0.06 0.78 -0.16 c0.28 -0.1 0.52 -0.24 0.74 -0.46 c0.2 -0.2 0.38 -0.46 0.52 -0.76 s0.2 -0.66 0.2 -1.08 c0 -0.22 -0.02 -0.46 -0.08 -0.76 c-0.04 -0.3 -0.16 -0.58 -0.3 -0.84 c-0.16 -0.26 -0.4 -0.5 -0.68 -0.68 c-0.3 -0.18 -0.7 -0.28 -1.18 -0.28 l-3.24 0 c-0.34 0 -0.62 0.28 -0.62 0.62 l0 3.78 c0 0.34 0.28 0.62 0.62 0.62 z M184.35999999999999 16.92 c-0.26 0.38 -0.54 0.74 -0.86 1.06 c-0.46 0.48 -0.98 0.88 -1.56 1.22 c-0.56 0.34 -1.18 0.62 -1.84 0.8 s-1.34 0.28 -2.04 0.28 c-1.04 0 -2.02 -0.2 -2.94 -0.6 s-1.72 -0.94 -2.42 -1.64 c-0.68 -0.68 -1.22 -1.48 -1.62 -2.4 s-0.6 -1.9 -0.6 -2.94 s0.2 -2.02 0.6 -2.94 s0.94 -1.72 1.62 -2.42 c0.7 -0.68 1.5 -1.22 2.42 -1.62 s1.9 -0.6 2.94 -0.6 c0.7 0 1.38 0.1 2.04 0.28 s1.28 0.44 1.84 0.78 c0.58 0.34 1.1 0.76 1.56 1.22 c0.32 0.34 0.6 0.68 0.86 1.06 c0.18 0.28 0.06 0.62 -0.26 0.74 l-1.48 0.6 c-0.3 0.14 -0.7 0.02 -0.92 -0.24 c-0.12 -0.14 -0.26 -0.28 -0.4 -0.42 c-0.28 -0.28 -0.6 -0.52 -0.94 -0.74 s-0.72 -0.38 -1.1 -0.5 s-0.78 -0.18 -1.2 -0.18 c-0.66 0 -1.3 0.14 -1.88 0.4 c-0.58 0.28 -1.08 0.64 -1.5 1.1 s-0.76 0.98 -1.02 1.58 c-0.26 0.62 -0.38 1.24 -0.38 1.9 s0.12 1.3 0.38 1.9 s0.6 1.12 1.02 1.58 s0.92 0.82 1.5 1.08 c0.58 0.28 1.22 0.42 1.88 0.42 c0.42 0 0.82 -0.06 1.2 -0.18 s0.76 -0.28 1.1 -0.5 s0.66 -0.46 0.94 -0.76 c0.14 -0.14 0.28 -0.28 0.4 -0.42 c0.22 -0.26 0.62 -0.38 0.92 -0.26 l1.48 0.6 c0.32 0.14 0.44 0.48 0.26 0.76 z M189.64 8.46 l0 2.42 c0 0.34 0.28 0.62 0.62 0.62 l5.84 0 c0.34 0 0.62 0.28 0.62 0.62 l0 1.3 c0 0.34 -0.28 0.62 -0.62 0.62 l-5.84 0 c-0.34 0 -0.62 0.28 -0.62 0.62 l0 2.2 c0 0.34 0.28 0.62 0.62 0.62 l6.74 0 c0.34 0 0.62 0.28 0.62 0.62 l0 1.28 c0 0.34 -0.28 0.62 -0.62 0.62 l-9.54 0 c-0.34 0 -0.62 -0.28 -0.62 -0.62 l0 -13.4 c0 -0.34 0.28 -0.62 0.62 -0.62 l9.54 0 c0.34 0 0.62 0.28 0.62 0.62 l0 1.24 c0 0.34 -0.28 0.62 -0.62 0.62 l-6.74 0 c-0.34 0 -0.62 0.28 -0.62 0.62 z  M220.42 16.92 c-0.26 0.38 -0.54 0.74 -0.86 1.06 c-0.46 0.48 -0.98 0.88 -1.56 1.22 c-0.56 0.34 -1.18 0.62 -1.84 0.8 s-1.34 0.28 -2.04 0.28 c-1.04 0 -2.02 -0.2 -2.94 -0.6 s-1.72 -0.94 -2.42 -1.64 c-0.68 -0.68 -1.22 -1.48 -1.62 -2.4 s-0.6 -1.9 -0.6 -2.94 s0.2 -2.02 0.6 -2.94 s0.94 -1.72 1.62 -2.42 c0.7 -0.68 1.5 -1.22 2.42 -1.62 s1.9 -0.6 2.94 -0.6 c0.7 0 1.38 0.1 2.04 0.28 s1.28 0.44 1.84 0.78 c0.58 0.34 1.1 0.76 1.56 1.22 c0.32 0.34 0.6 0.68 0.86 1.06 c0.18 0.28 0.06 0.62 -0.26 0.74 l-1.48 0.6 c-0.3 0.14 -0.7 0.02 -0.92 -0.24 c-0.12 -0.14 -0.26 -0.28 -0.4 -0.42 c-0.28 -0.28 -0.6 -0.52 -0.94 -0.74 s-0.72 -0.38 -1.1 -0.5 s-0.78 -0.18 -1.2 -0.18 c-0.66 0 -1.3 0.14 -1.88 0.4 c-0.58 0.28 -1.08 0.64 -1.5 1.1 s-0.76 0.98 -1.02 1.58 c-0.26 0.62 -0.38 1.24 -0.38 1.9 s0.12 1.3 0.38 1.9 s0.6 1.12 1.02 1.58 s0.92 0.82 1.5 1.08 c0.58 0.28 1.22 0.42 1.88 0.42 c0.42 0 0.82 -0.06 1.2 -0.18 s0.76 -0.28 1.1 -0.5 s0.66 -0.46 0.94 -0.76 c0.14 -0.14 0.28 -0.28 0.4 -0.42 c0.22 -0.26 0.62 -0.38 0.92 -0.26 l1.48 0.6 c0.32 0.14 0.44 0.48 0.26 0.76 z M233.44 18.14 l0 1.24 c0 0.34 -0.28 0.62 -0.62 0.62 l-9.3 0 c-0.34 0 -0.62 -0.28 -0.62 -0.62 l0 -13.4 c0 -0.34 0.28 -0.62 0.62 -0.62 l1.56 0 c0.34 0 0.62 0.28 0.62 0.62 l0 10.92 c0 0.34 0.28 0.62 0.62 0.62 l6.5 0 c0.34 0 0.62 0.28 0.62 0.62 z M237.78 20 l-1.58 0 c-0.34 0 -0.6 -0.28 -0.6 -0.62 l0 -13.38 c0 -0.34 0.26 -0.62 0.6 -0.62 l1.58 0 c0.34 0 0.62 0.28 0.62 0.62 l0 13.38 c0 0.34 -0.28 0.62 -0.62 0.62 z M256.74 5.699999999999999 l0 13.68 c0 0.34 -0.28 0.62 -0.6 0.62 l-1.58 0 c-0.34 0 -0.62 -0.28 -0.62 -0.62 l0 -6.16 c0 -0.34 -0.18 -0.42 -0.38 -0.14 l-3.8 4.54 c-0.22 0.26 -0.58 0.26 -0.78 0 l-3.78 -4.54 c-0.22 -0.26 -0.4 -0.2 -0.4 0.14 l0 6.16 c0 0.34 -0.28 0.62 -0.62 0.62 l-1.56 0 c-0.34 0 -0.62 -0.28 -0.62 -0.62 l0 -13.68 c0 -0.34 0.42 -0.4 0.64 -0.14 l6.32 7.8 c0.22 0.24 0.58 0.24 0.8 0 l6.34 -7.8 c0.22 -0.26 0.64 -0.2 0.64 0.14 z M270.5 10.38 c-0.12 0.32 -0.28 0.64 -0.48 0.92 s-0.46 0.52 -0.76 0.7 c-0.14 0.1 -0.3 0.18 -0.46 0.24 c-0.26 0.08 -0.24 0.1 0.06 0.18 c0.18 0.06 0.34 0.12 0.52 0.2 c0.36 0.18 0.66 0.42 0.94 0.74 c0.28 0.3 0.52 0.66 0.7 1.06 s0.26 0.82 0.26 1.26 c0 0.8 -0.12 1.48 -0.36 2.04 c-0.24 0.54 -0.56 1 -0.98 1.34 c-0.4 0.34 -0.88 0.58 -1.44 0.72 s-1.14 0.22 -1.78 0.22 l-6.14 0 c-0.34 0 -0.62 -0.28 -0.62 -0.62 l0 -13.4 c0 -0.34 0.28 -0.62 0.62 -0.62 l5.82 0 c0.6 0 1.14 0.06 1.66 0.16 c0.52 0.12 0.98 0.32 1.36 0.64 c0.4 0.3 0.7 0.7 0.92 1.24 c0.24 0.52 0.34 1.2 0.34 2.02 c0 0.3 -0.06 0.62 -0.18 0.96 z M263.38 11.32 l2.82 0 c0.28 0 0.54 -0.06 0.74 -0.16 s0.38 -0.26 0.52 -0.42 c0.14 -0.18 0.24 -0.38 0.32 -0.6 s0.1 -0.44 0.1 -0.66 c0 -0.2 -0.04 -0.42 -0.12 -0.62 s-0.18 -0.38 -0.32 -0.52 c-0.12 -0.14 -0.28 -0.26 -0.46 -0.36 s-0.38 -0.14 -0.58 -0.14 l-3.02 0 c-0.34 0 -0.62 0.28 -0.62 0.62 l0 2.24 c0 0.34 0.28 0.62 0.62 0.62 z M267.40000000000003 17.34 c0.22 -0.1 0.4 -0.26 0.56 -0.46 c0.16 -0.18 0.3 -0.4 0.38 -0.64 c0.1 -0.22 0.14 -0.46 0.14 -0.7 c0 -0.5 -0.18 -0.9 -0.54 -1.24 s-0.88 -0.5 -1.52 -0.5 l-3.04 0 c-0.34 0 -0.62 0.28 -0.62 0.62 l0 2.48 c0 0.34 0.28 0.62 0.62 0.62 l3.34 0 c0.24 0 0.48 -0.06 0.68 -0.18 z M276.44 20 l-1.58 0 c-0.34 0 -0.6 -0.28 -0.6 -0.62 l0 -13.38 c0 -0.34 0.26 -0.62 0.6 -0.62 l1.58 0 c0.34 0 0.62 0.28 0.62 0.62 l0 13.38 c0 0.34 -0.28 0.62 -0.62 0.62 z M283.46 11.92 l0 7.46 c0 0.34 -0.28 0.62 -0.62 0.62 l-1.58 0 c-0.32 0 -0.6 -0.28 -0.6 -0.62 l0 -13.68 c0 -0.34 0.44 -0.42 0.68 -0.2 l8.78 8.3 c0.26 0.24 0.46 0.14 0.46 -0.2 l0 -7.6 c0 -0.34 0.28 -0.62 0.62 -0.62 l1.56 0 c0.34 0 0.62 0.28 0.62 0.62 l0 13.66 c0 0.34 -0.44 0.42 -0.7 0.2 l-8.76 -8.16 c-0.26 -0.22 -0.46 -0.12 -0.46 0.22 z M310.8 12.620000000000001 c-0.02 0.54 -0.04 1.18 -0.06 1.26 c-0.08 0.92 -0.32 1.78 -0.74 2.56 s-0.96 1.46 -1.62 2.02 c-0.66 0.58 -1.42 1.02 -2.28 1.34 s-1.78 0.48 -2.72 0.48 c-1.04 0 -2.02 -0.2 -2.94 -0.6 s-1.72 -0.94 -2.42 -1.64 c-0.68 -0.68 -1.24 -1.48 -1.64 -2.4 s-0.6 -1.9 -0.6 -2.94 s0.2 -2.02 0.6 -2.96 c0.4 -0.92 0.96 -1.72 1.64 -2.42 c0.7 -0.68 1.5 -1.22 2.42 -1.62 s1.9 -0.6 2.94 -0.6 c1.32 0 2.54 0.3 3.64 0.92 c0.9 0.5 1.68 1.16 2.3 1.96 c0.22 0.26 0.12 0.64 -0.16 0.82 l-1.36 0.82 c-0.28 0.18 -0.66 0.08 -0.9 -0.16 c-0.36 -0.42 -0.78 -0.8 -1.28 -1.1 c-0.7 -0.42 -1.44 -0.64 -2.24 -0.64 c-0.66 0 -1.28 0.14 -1.86 0.4 c-0.58 0.28 -1.1 0.64 -1.52 1.1 c-0.44 0.46 -0.78 0.98 -1.04 1.58 c-0.26 0.62 -0.38 1.24 -0.38 1.9 s0.12 1.3 0.38 1.9 s0.6 1.12 1.04 1.58 c0.42 0.46 0.94 0.82 1.52 1.08 c0.58 0.28 1.2 0.42 1.86 0.42 c0.5 0 1 -0.08 1.46 -0.24 c0.46 -0.14 0.9 -0.36 1.28 -0.64 s0.72 -0.62 1.02 -1 c0.16 -0.22 0.3 -0.46 0.4 -0.7 c0.16 -0.32 -0.06 -0.58 -0.4 -0.58 l-4.16 0 c-0.34 0 -0.62 -0.28 -0.62 -0.62 l0 -1.28 c0 -0.34 0.28 -0.62 0.62 -0.62 l7.2 0 c0.34 0 0.62 0.28 0.62 0.62 z  M334.2 12.620000000000001 c-0.02 0.54 -0.04 1.18 -0.06 1.26 c-0.08 0.92 -0.32 1.78 -0.74 2.56 s-0.96 1.46 -1.62 2.02 c-0.66 0.58 -1.42 1.02 -2.28 1.34 s-1.78 0.48 -2.72 0.48 c-1.04 0 -2.02 -0.2 -2.94 -0.6 s-1.72 -0.94 -2.42 -1.64 c-0.68 -0.68 -1.24 -1.48 -1.64 -2.4 s-0.6 -1.9 -0.6 -2.94 s0.2 -2.02 0.6 -2.96 c0.4 -0.92 0.96 -1.72 1.64 -2.42 c0.7 -0.68 1.5 -1.22 2.42 -1.62 s1.9 -0.6 2.94 -0.6 c1.32 0 2.54 0.3 3.64 0.92 c0.9 0.5 1.68 1.16 2.3 1.96 c0.22 0.26 0.12 0.64 -0.16 0.82 l-1.36 0.82 c-0.28 0.18 -0.66 0.08 -0.9 -0.16 c-0.36 -0.42 -0.78 -0.8 -1.28 -1.1 c-0.7 -0.42 -1.44 -0.64 -2.24 -0.64 c-0.66 0 -1.28 0.14 -1.86 0.4 c-0.58 0.28 -1.1 0.64 -1.52 1.1 c-0.44 0.46 -0.78 0.98 -1.04 1.58 c-0.26 0.62 -0.38 1.24 -0.38 1.9 s0.12 1.3 0.38 1.9 s0.6 1.12 1.04 1.58 c0.42 0.46 0.94 0.82 1.52 1.08 c0.58 0.28 1.2 0.42 1.86 0.42 c0.5 0 1 -0.08 1.46 -0.24 c0.46 -0.14 0.9 -0.36 1.28 -0.64 s0.72 -0.62 1.02 -1 c0.16 -0.22 0.3 -0.46 0.4 -0.7 c0.16 -0.32 -0.06 -0.58 -0.4 -0.58 l-4.16 0 c-0.34 0 -0.62 -0.28 -0.62 -0.62 l0 -1.28 c0 -0.34 0.28 -0.62 0.62 -0.62 l7.2 0 c0.34 0 0.62 0.28 0.62 0.62 z M340.24 19.82 c-0.78 -0.3 -1.44 -0.7 -1.98 -1.24 c-0.56 -0.54 -0.98 -1.18 -1.28 -1.94 s-0.44 -1.6 -0.44 -2.54 l0 -8.1 c0 -0.34 0.28 -0.62 0.6 -0.62 l1.58 0 c0.34 0 0.62 0.28 0.62 0.62 l0 8.08 c0 0.74 0.12 1.34 0.36 1.82 s0.54 0.86 0.88 1.14 c0.36 0.28 0.74 0.48 1.14 0.58 c0.42 0.1 0.78 0.16 1.1 0.16 s0.68 -0.06 1.08 -0.16 c0.42 -0.1 0.8 -0.3 1.14 -0.58 c0.36 -0.28 0.66 -0.66 0.9 -1.14 s0.36 -1.08 0.36 -1.82 l0 -8.08 c0 -0.34 0.28 -0.62 0.62 -0.62 l1.56 0 c0.34 0 0.62 0.28 0.62 0.62 l0 8.1 c0 0.94 -0.16 1.78 -0.44 2.54 c-0.3 0.76 -0.72 1.4 -1.26 1.94 c-0.56 0.54 -1.22 0.94 -1.98 1.24 c-0.78 0.3 -1.64 0.44 -2.6 0.44 s-1.82 -0.14 -2.58 -0.44 z M354.88 20 l-1.58 0 c-0.34 0 -0.6 -0.28 -0.6 -0.62 l0 -13.38 c0 -0.34 0.26 -0.62 0.6 -0.62 l1.58 0 c0.34 0 0.62 0.28 0.62 0.62 l0 13.38 c0 0.34 -0.28 0.62 -0.62 0.62 z M364.86 20 l-5.16 0 c-0.34 0 -0.6 -0.28 -0.6 -0.62 l0 -13.4 c0 -0.34 0.26 -0.62 0.6 -0.62 l5.16 0 c2.1 0 3.82 0.62 5.16 1.84 c0.72 0.66 1.26 1.44 1.62 2.36 c0.36 0.94 0.56 1.98 0.56 3.12 c0 1.16 -0.2 2.2 -0.56 3.12 c-0.36 0.94 -0.9 1.72 -1.62 2.38 c-0.66 0.6 -1.42 1.06 -2.3 1.36 c-0.86 0.3 -1.82 0.46 -2.86 0.46 z M362.5 17.52 l2.38 0 c0.52 0 1.04 -0.06 1.58 -0.18 c0.52 -0.12 1 -0.36 1.44 -0.72 c0.44 -0.34 0.8 -0.84 1.08 -1.46 s0.42 -1.44 0.42 -2.46 s-0.14 -1.84 -0.42 -2.48 c-0.28 -0.62 -0.64 -1.12 -1.08 -1.46 s-0.94 -0.58 -1.46 -0.7 c-0.54 -0.12 -1.06 -0.18 -1.56 -0.18 l-2.38 0 c-0.34 0 -0.6 0.28 -0.6 0.62 l0 8.4 c0 0.34 0.26 0.62 0.6 0.62 z M377.62 8.46 l0 2.42 c0 0.34 0.28 0.62 0.62 0.62 l5.84 0 c0.34 0 0.62 0.28 0.62 0.62 l0 1.3 c0 0.34 -0.28 0.62 -0.62 0.62 l-5.84 0 c-0.34 0 -0.62 0.28 -0.62 0.62 l0 2.2 c0 0.34 0.28 0.62 0.62 0.62 l6.74 0 c0.34 0 0.62 0.28 0.62 0.62 l0 1.28 c0 0.34 -0.28 0.62 -0.62 0.62 l-9.54 0 c-0.34 0 -0.62 -0.28 -0.62 -0.62 l0 -13.4 c0 -0.34 0.28 -0.62 0.62 -0.62 l9.54 0 c0.34 0 0.62 0.28 0.62 0.62 l0 1.24 c0 0.34 -0.28 0.62 -0.62 0.62 l-6.74 0 c-0.34 0 -0.62 0.28 -0.62 0.62 z"></path></g></svg>
