<svg width="833" height="846"><defs id="SvgjsDefs5363"></defs><g id="SvgjsG5364" featurekey="root" fill="#2878d3"></g><g id="SvgjsG5365" featurekey="container1" fill="#1e1513" transform="matrix(4.475125312805176,0,0,4.475125312805176,0.0016004295720864394,0.0007730074833177502)"><defs xmlns="http://www.w3.org/2000/svg"></defs><g xmlns="http://www.w3.org/2000/svg">  <path d="M17.914,148.907c-0.664-0.914-1.313-1.837-1.944-2.774C16.596,147.066,17.249,147.989,17.914,148.907z"></path>  <path d="M22.657,154.94c1.844,2.153,3.788,4.249,5.861,6.251c6.914,6.805,15.159,12.525,24.004,16.851    c3.259,1.526,6.265,3.107,9.787,4.468c0.88,0.338,1.779,0.7,2.724,1.026c0.953,0.302,1.941,0.604,2.974,0.903    c1.027,0.321,2.122,0.549,3.267,0.786c1.146,0.23,2.336,0.493,3.614,0.624c-6.3-1.328-12.498-3.333-18.434-5.99    c-5.93-2.671-11.597-5.979-16.873-9.842c-10.548-7.727-19.57-17.648-26.16-28.989c-0.272-0.339-0.685-0.985-1.18-1.808    c-0.244-0.413-0.512-0.868-0.796-1.348c-0.256-0.496-0.527-1.018-0.803-1.551c-0.534-1.076-1.149-2.168-1.62-3.226    c-0.486-1.05-0.943-2.011-1.326-2.748c2.048,5.101,4.412,9.563,7.059,13.806c1.215,1.936,2.495,3.828,3.869,5.697    c-0.192-0.259-0.392-0.511-0.583-0.771c1.446,1.986,2.974,3.94,4.6,5.841C22.646,154.925,22.651,154.933,22.657,154.94z"></path>  <path d="M18.039,149.078c-0.042-0.057-0.084-0.114-0.125-0.17C17.956,148.964,17.998,149.021,18.039,149.078z"></path>  <path d="M1.335,106.042c-0.159-1.277-0.32-2.567-0.483-3.875c0.256,2.365,0.553,5.008,1.096,7.654    c-0.109-0.624-0.217-1.251-0.327-1.879C1.503,107.315,1.403,106.682,1.335,106.042z"></path>  <path d="M85.812,185.575c6.652,0.673,13.628,0.472,20.461-0.609c6.837-1.077,13.524-2.987,19.741-5.449    c-11.45,4.503-23.602,6.506-35.49,6.171C88.933,185.663,87.365,185.688,85.812,185.575z"></path>  <path d="M46.426,171.967c-0.086-0.055-0.173-0.11-0.259-0.165C46.254,171.857,46.339,171.913,46.426,171.967z"></path>  <path d="M46.167,171.802c-0.853-0.542-1.688-1.1-2.514-1.667C44.475,170.705,45.317,171.257,46.167,171.802z"></path>  <path d="M43.653,170.135c-0.899-0.623-1.797-1.248-2.66-1.897C41.861,168.886,42.752,169.516,43.653,170.135z"></path>  <path d="M56.077,177.284c5.439,2.533,11.23,4.506,17.123,5.816c-9.688-2.21-18.805-6.109-26.774-11.133    C49.486,173.914,52.703,175.716,56.077,177.284z"></path>  <path d="M177.002,107.094c0.098-1.58,0.296-3.238,0.346-4.027c0.594-5.071,0.77-9.401,0.745-13.745    c-0.11-0.783-0.425-2.25-0.55-3.918c-0.153-1.672-0.378-3.309-0.568-4.924c-0.289-1.601-0.538-3.186-0.854-4.74    c2.275,11.617,2.237,23.279,0.144,34.282C176.51,108.986,176.756,108.003,177.002,107.094z"></path>  <path d="M0.887,83.482c0.848-6.9,2.653-13.626,4.37-18.107l-0.695,3.28c0.429-0.961,1.122-3.194,2.067-5.557    c0.225-0.594,0.454-1.2,0.682-1.802c0.255-0.591,0.508-1.179,0.753-1.747c0.5-1.131,0.92-2.203,1.363-3.025    c-0.303,0.771-0.595,1.602-0.947,2.436c-0.345,0.837-0.732,1.687-1.101,2.542c0.755-1.702,0.755-1.702,1.514-3.409    C7.581,61.359,6.148,65.463,4.954,69.8c-1.133,4.352-2.029,8.926-2.511,13.032c-0.14,1.024-0.189,2.024-0.28,2.978    c-0.067,0.954-0.183,1.864-0.192,2.724c-0.042,1.719-0.1,3.224-0.071,4.428c0.105,2.409,0.25,3.61,0.459,2.939    c0.411-1.333,0.403-8.188,1.837-16.767c0.767-4.276,1.868-8.966,3.362-13.561c1.483-4.599,3.427-9.058,5.44-12.992    c-0.197,0.429-0.394,0.859-0.592,1.292c-0.181,0.442-0.362,0.885-0.545,1.331c-0.369,0.889-0.741,1.787-1.116,2.691    c-0.339,0.92-0.68,1.846-1.024,2.78c-0.173,0.466-0.347,0.933-0.521,1.402c-0.153,0.476-0.308,0.954-0.461,1.434    c-1.32,3.807-2.307,7.816-3.167,11.857L5.013,78.42c-0.205,1.014-0.292,2.046-0.444,3.067c-0.318,2.041-0.434,4.097-0.611,6.129    c-0.199,4.074-0.239,8.098,0.13,11.946c-0.015-0.914-0.03-1.726-0.017-2.512c0.038-0.785,0.075-1.545,0.115-2.355    c0.048-0.809,0.039-1.667,0.115-2.65c0.07-0.983,0.134-2.091,0.19-3.402c0.391-6.608,1.572-13.15,3.408-19.481    c1.75-6.358,3.814-11.957,6.889-17.03c0.269-0.513,0.536-1.021,0.801-1.526c0.542-1.024,0.993-2.034,1.566-3.064    c0.653-1.13,1.278-1.976,1.784-2.751c0.521-0.767,0.963-1.441,1.469-2.095c0.969-1.336,1.977-2.729,3.682-5.082    c0.075-0.009-0.022,0.185-0.2,0.473c0.506-0.725,1.194-1.622,1.959-2.49c0.755-0.875,1.488-1.803,2.109-2.569    c0.146-0.007,0.288-0.011,0.623-0.251c8.65-9.197,19.295-16.692,31.291-21.417c0.892-0.347,1.781-0.694,2.667-1.039    c0.902-0.3,1.802-0.6,2.7-0.899l1.343-0.448l1.36-0.38c0.906-0.252,1.809-0.502,2.71-0.753c1.55-0.373,3.12-0.751,4.721-1.091    c0.806-0.141,1.619-0.283,2.437-0.426c0.819-0.141,1.642-0.3,2.484-0.378c1.674-0.201,3.134-0.625,3.921-0.729    c4.369-0.249,8.73-0.199,13.849,0.216c0.397,0.007,1.015,0.043,1.732,0.082c0.717,0.041,1.537,0.061,2.332,0.134    c0.932,0.21,1.927,0.418,2.971,0.621c6.369,0.988,12.527,2.754,18.386,5.103l-0.007-0.028c0.73,0.291,1.479,0.589,2.244,0.894    c0.748,0.346,1.513,0.699,2.29,1.058c1.571,0.684,3.11,1.559,4.7,2.383c0.798,0.407,1.554,0.904,2.338,1.354    c0.77,0.474,1.576,0.894,2.32,1.412c1.508,1.002,3.037,1.961,4.446,3.032c2.402,1.723,4.619,3.507,6.6,5.198    c0.046,0.042,0.094,0.081,0.14,0.122c0.018,0.016,0.028,0.025,0.042,0.038l1.457,1.322l1.394,1.391l1.395,1.392    c0.462,0.467,0.89,0.967,1.337,1.449c-0.216-0.35-0.208-0.491-0.2-0.63c-0.689-0.66-1.504-1.441-2.309-2.21    c1.343,1.222,2.515,2.327,3.477,3.229c0.371,0.474,0.776,0.94,1.16,1.449c0.385,0.508,0.78,1.031,1.186,1.566    c0.41,0.53,0.831,1.074,1.261,1.629c0.409,0.572,0.828,1.156,1.255,1.752c2.226,2.838,4.191,5.874,6.057,8.97    c0.864,1.588,1.817,3.131,2.586,4.774l1.213,2.436l1.092,2.497c0.314,0.533,0.192,0.022,0.231-0.068    c1.225,2.962,2.21,6.042,3.102,9.146c1.692,5.556,2.839,11.323,3.408,17.211c0.225,1.378,0.321,2.772,0.52,4.153    c-0.033,0.787-0.075,1.773-0.123,2.924c-0.001,1.103,0.057,2.206,0.01,3.311c-0.042,1.104-0.085,2.212-0.128,3.326    c-0.016,0.75-0.124,1.569-0.187,2.459c-0.084,0.888-0.128,1.846-0.256,2.856c-0.13,1.008-0.268,2.076-0.412,3.192    c-0.132,1.119-0.387,2.269-0.583,3.471c-0.883,4.79-2.297,10.17-4.312,15.482c-0.242,0.826-0.427,1.486-0.592,1.855    c-0.627,1.501-1.296,2.954-1.942,4.385c-0.723,1.394-1.386,2.788-2.127,4.108c-2.441,4.646-5.246,8.876-7.949,12.379    c-0.336,0.439-0.649,0.885-0.987,1.297c-0.34,0.41-0.673,0.812-0.998,1.206c-0.66,0.779-1.25,1.558-1.876,2.234    c-1.251,1.352-2.301,2.606-3.286,3.549c-1.128,1.178-1.027,1.233-0.246,0.665c0.388-0.287,0.957-0.719,1.608-1.262    c0.631-0.569,1.362-1.228,2.122-1.914c0.776-0.677,1.519-1.441,2.235-2.161c0.708-0.725,1.416-1.386,1.962-1.984    c1.101-1.191,1.824-1.926,1.67-1.599c-1.777,3.345-5.013,7.471-9.743,12.035c-2.413,2.227-5.128,4.647-8.339,6.98    c-1.566,1.221-3.307,2.338-5.082,3.558c-1.834,1.123-3.708,2.353-5.757,3.445c-4.484,2.442,3.365-1.475,3.577-1.512    c-0.605,0.472-1.406,1.062-2.377,1.64c-1.478,0.786-2.943,1.597-4.474,2.273c-0.895,0.411-1.774,0.855-2.679,1.239l-2.729,1.122    c0.483-0.19,0.958-0.376,1.444-0.568c2.952-1.173,5.711-2.555,8.202-3.922c-0.936,0.566-1.96,1.221-3.082,1.812    c-1.203,0.622-2.448,1.302-3.697,1.909c-1.26,0.586-2.494,1.16-3.625,1.686c12.968-4.711,24.885-12.507,34.319-22.67    c4.723-5.066,8.935-10.631,12.369-16.651c3.455-6.005,6.239-12.391,8.288-18.999c-3.154,9.93-8.071,19.052-13.981,26.765    c10.744-14.507,17.15-32.293,17.999-50.636c-0.001,1.011-0.101,2.018-0.168,3.025c-0.083,1.007-0.123,2.018-0.241,3.022    c-0.257,2.005-0.441,4.021-0.827,6.009c-0.624,4-1.636,7.931-2.782,11.815c2.262-7.021,3.613-14.424,4.145-21.869    c0.554-7.451,0.092-14.947-1.057-22.211c1.974,9.622,2.301,20.524,0.619,31.298c1.182-6.949,1.482-14.112,1.028-21.214    c-0.102-2.713-0.422-5.407-0.685-7.901c-0.377-2.476-0.662-4.762-1.027-6.611c1.445,6.826,2.015,12.648,2.293,18.136    c-0.267-11.977-2.748-24.112-7.62-35.511c2.659,6.191,4.842,12.851,6.175,19.698c1.34,6.84,1.897,13.838,1.58,20.57    c-0.015-0.788,0.018-1.575-0.028-2.366c-0.036-0.791-0.071-1.586-0.107-2.391c0.287,10.85-1.384,21.604-4.696,31.717    c-1.662,5.056-3.715,9.969-6.2,14.644c-2.484,4.674-5.349,9.131-8.56,13.316c3.673-4.29,7.551-10.354,10.646-17.015    c3.081-6.675,5.368-13.894,6.941-20.199c-2.314,11.322-6.907,22.494-13.571,32.471c-6.646,9.985-15.351,18.764-25.423,25.502    c-10.06,6.759-21.474,11.437-33.187,13.748c-5.856,1.161-11.779,1.764-17.657,1.809c-5.877,0.032-11.702-0.488-17.361-1.515    l3.005,0.571c1.002,0.19,2.018,0.295,3.026,0.445c2.016,0.324,4.055,0.446,6.087,0.633c4.073,0.229,8.168,0.306,12.25-0.005    c4.089-0.217,8.152-0.827,12.196-1.572c2.006-0.456,4.036-0.829,6.017-1.414c0.994-0.278,2-0.521,2.987-0.83l2.955-0.958    c-1.492,0.462-3.062,1.074-4.739,1.523c-0.692,0.203-1.396,0.41-2.101,0.618c4.45-1.195,8.735-2.677,12.91-4.496    c1.903-0.831,3.786-1.73,5.651-2.705c-3.472,1.838-7.05,3.472-10.714,4.872c-7.006,2.619-14.295,4.418-21.66,5.382    c-1.11,0.176-2.122,0.231-3.029,0.326c-0.908,0.09-1.714,0.169-2.428,0.24c-1.429,0.113-2.484,0.164-3.222,0.245    c-1.477,0.147-1.687,0.284-1.099,0.397c0.587,0.113,1.971,0.203,3.673,0.251c1.697-0.01,3.71-0.101,5.541-0.268    c18.397-1.887,35.288-9.107,48.824-19.916c13.545-10.811,23.919-25.172,29.701-41.467c0.363-0.946,0.642-1.922,0.944-2.89    c0.293-0.971,0.617-1.932,0.882-2.912c0.491-1.97,1.072-3.917,1.448-5.917l0.619-2.985l0.487-3.012l0.241-1.507l0.172-1.517    l0.342-3.034c0.698-8.114,0.422-16.315-0.812-24.363c-0.66-4.554-1.82-9.961-3.315-14.777c-0.395-1.197-0.781-2.365-1.15-3.484    c-0.4-1.107-0.825-2.151-1.203-3.133c-0.193-0.49-0.379-0.962-0.557-1.415c-0.2-0.444-0.39-0.869-0.571-1.271    c-0.37-0.801-0.7-1.516-0.981-2.124c-3.134-6.359-7.072-12.424-11.682-18.065c-4.605-5.643-9.896-10.868-15.861-15.418    c-0.747-0.566-1.494-1.134-2.244-1.703c-0.774-0.535-1.55-1.071-2.327-1.608l-1.166-0.806l-1.203-0.756    c-0.804-0.502-1.609-1.004-2.417-1.508c-3.295-1.904-6.67-3.739-10.228-5.261c-3.521-1.598-7.206-2.895-10.957-4.055    c-1.895-0.52-3.781-1.1-5.724-1.499c-0.968-0.209-1.928-0.463-2.907-0.638c-0.979-0.174-1.96-0.347-2.944-0.521    C100.363,0.01,93.04-0.285,85.724,0.265c-7.312,0.565-14.655,1.953-21.696,4.349l-2.635,0.913c-0.881,0.297-1.73,0.682-2.597,1.019    c-0.858,0.359-1.735,0.673-2.577,1.069l-2.532,1.173c-0.852,0.376-1.675,0.808-2.496,1.245l-2.469,1.297l-2.402,1.412    c-0.8,0.472-1.606,0.933-2.372,1.458l-2.324,1.528c-0.782,0.497-1.506,1.078-2.261,1.612c-0.741,0.554-1.51,1.07-2.226,1.654    l-2.157,1.737c-0.729,0.565-1.417,1.178-2.103,1.792l-2.063,1.83l-1.971,1.919c-0.656,0.639-1.319,1.271-1.93,1.951    c-5.031,5.298-9.451,11.078-13.066,17.194c-3.615,6.116-6.503,12.509-8.667,18.962c-4.375,12.92-5.63,26.023-5.046,37.858    C0.008,97.365-0.013,90.378,0.887,83.482z M142.019,173.928c3.038-1.966,5.968-4.097,8.765-6.389    C147.944,169.878,145.026,172.038,142.019,173.928z M182.236,119.646c-0.299,0.901-0.552,1.791-0.882,2.641    c-0.323,0.852-0.641,1.69-0.957,2.523l-0.466,1.248l-0.513,1.231c-0.339,0.823-0.672,1.653-0.997,2.501    c-1.848,4.606-4.058,9.082-6.587,13.35c-2.521,4.275-5.443,8.281-8.565,12.04c-1.542,1.899-3.222,3.66-4.874,5.421    c-0.863,0.844-1.724,1.686-2.581,2.523c-0.847,0.848-1.774,1.604-2.652,2.404c-0.736,0.64-1.478,1.266-2.225,1.882    c2.772-2.281,5.413-4.718,7.896-7.312c-3.789,3.921-7.616,7.205-11.689,10.188c-1.036,0.722-2.037,1.496-3.113,2.176    c-1.073,0.684-2.153,1.372-3.247,2.069c-1.127,0.641-2.269,1.289-3.43,1.949c-1.167,0.648-2.399,1.224-3.634,1.855    c0.718-0.431,1.658-0.952,2.685-1.508c1.021-0.567,2.092-1.237,3.138-1.85c1.054-0.601,2.012-1.261,2.808-1.813    c0.796-0.552,1.42-1.01,1.745-1.306c-0.464,0.315-0.936,0.617-1.406,0.924c0.503-0.333,1.006-0.669,1.507-1.015    c-0.021,0.023-0.065,0.059-0.101,0.091c10.932-7.466,20.245-17.277,27.223-28.462c7.009-11.175,11.57-23.781,13.46-36.601    C184.369,111.937,183.427,116.043,182.236,119.646z M175.582,54.294c-0.294-0.688-0.59-1.374-0.923-2.034    C174.997,52.928,175.29,53.611,175.582,54.294z M167.134,41.596c3.025,4.566,5.623,9.379,7.773,14.352    c0.25,0.549,0.486,1.106,0.719,1.664c4.963,12.154,7.221,25.192,6.89,38.036c0.084-4.25-0.198-8.498-0.669-12.71    c-0.533-4.854-1.518-9.65-2.824-14.341c-2.562-9.407-6.723-18.323-12.005-26.451c0.485,0.67,0.996,1.396,1.525,2.166    c0.536,0.766,1.083,1.581,1.59,2.463l-0.638-1.109l-0.689-1.079l-1.378-2.156c-0.938-1.424-1.955-2.796-2.934-4.192    c-1.062-1.334-2.069-2.712-3.174-4.011c-0.836-0.953-1.637-1.938-2.485-2.879C161.827,34.504,164.636,37.889,167.134,41.596z     M96.886,1.152c1.467,0.078,2.937,0.221,4.407,0.331c1.204,0.101,2.402,0.279,3.588,0.413c0.356,0.015,0.732,0.039,1.204,0.092    c0.471,0.065,1.034,0.186,1.769,0.354c5.469,0.912,10.459,2.283,14.001,3.699c6.798,2.573,13.123,5.774,18.86,9.471    c5.739,3.69,10.889,7.887,15.246,12.471c2.008,2.179,1.422,1.704,0.315,0.646c0.551,0.585,1.104,1.172,1.662,1.764    c-0.736-0.734-1.459-1.478-2.206-2.196l-2.301-2.09c0.56,0.49,1.918,1.663,2.845,2.522c-7.389-7.539-16.026-13.799-25.375-18.404    c-9.356-4.603-19.431-7.446-29.502-8.581c1.618,0.18,2.412,0.22,3.168,0.24c-1.085-0.127-2.173-0.301-3.274-0.401    c-1.479-0.097-2.955-0.229-4.423-0.301c-1.469-0.035-2.927-0.069-4.36-0.103C93.954,1.078,95.417,1.118,96.886,1.152z"></path>  <path d="M115.942,184.69c0.143-0.042,0.283-0.083,0.426-0.125c-0.446,0.12-0.885,0.252-1.334,0.366    C115.338,184.855,115.643,184.781,115.942,184.69z"></path>  <path d="M160.424,146.151c4.235-5.587,7.977-12.263,10.366-18.014l-0.029,0.006c-6.061,14.322-15.892,26.66-28.16,35.744    c2.378-1.65,4.53-3.248,6.418-4.703C151.717,156.364,156.232,151.778,160.424,146.151z"></path>  <path d="M35.35,162.846c7.172,6.412,15.821,11.992,25.448,15.751c3.754,1.413,7.585,2.651,11.503,3.523    c1.944,0.502,3.929,0.812,5.899,1.181c0.987,0.175,1.987,0.272,2.979,0.412c0.994,0.129,1.986,0.275,2.987,0.333    c-4.519-0.501-9.005-1.251-13.372-2.44c-4.364-1.185-8.642-2.65-12.769-4.449c-4.113-1.831-8.087-3.942-11.894-6.314    C42.345,168.435,38.755,165.746,35.35,162.846z"></path>  <path d="M123.877,174.277l-2.219,0.871l-2.266,0.756c-1.5,0.54-3.047,0.944-4.59,1.373c1.551-0.39,3.111-0.754,4.624-1.254    c0.763-0.233,1.524-0.466,2.283-0.698c0.746-0.272,1.489-0.544,2.23-0.815C123.853,174.466,123.345,174.565,123.877,174.277z"></path>  <path d="M97.683,179.965c-1.16,0.099-2.326,0.09-3.494,0.102c-1.168,0.014-2.338,0.039-3.509-0.038    c0.565,0.053,1.093,0.103,1.576,0.148c0.482,0.031,0.916,0.068,1.295,0.113C94.932,180.172,96.303,180.139,97.683,179.965z"></path>  <path d="M51.441,169.209c1.341,0.787,2.765,1.48,4.178,2.244c0.354,0.194,0.996,0.415,1.801,0.709    c-1.721-0.739-3.37-1.655-5.046-2.505c-0.83-0.441-1.629-0.935-2.443-1.395c-0.812-0.464-1.621-0.927-2.389-1.445    c0.31,0.208,0.623,0.417,0.937,0.626c0.324,0.194,0.65,0.388,0.977,0.584C50.111,168.417,50.774,168.812,51.441,169.209z"></path></g></g><g id="SvgjsG5366" featurekey="text1" fill="#1e1513" transform="matrix(4.052531719207764,0,0,4.052531719207764,135.35272509076535,335.6345321053567)"><path d="M0.9 18.740000000000002 q0 -1.14 0.37 -2.15 t1.07 -1.76 t1.7 -1.19 t2.28 -0.44 q0.84 0 1.54 0.15 t1.36 0.43 l-0.62 2.38 q-0.42 -0.16 -0.92 -0.28 t-1.12 -0.12 q-1.32 0 -1.97 0.82 t-0.65 2.16 q0 1.42 0.61 2.2 t2.13 0.78 q0.54 0 1.16 -0.1 t1.14 -0.32 l0.42 2.44 q-0.52 0.22 -1.3 0.38 t-1.72 0.16 q-1.44 0 -2.48 -0.43 t-1.71 -1.17 t-0.98 -1.75 t-0.31 -2.19 z M15.6 24.2 q-1.3 -0.02 -2.11 -0.28 t-1.28 -0.73 t-0.64 -1.14 t-0.17 -1.51 l0 -11.58 l2.98 -0.48 l0 11.46 q0 0.4 0.06 0.72 t0.23 0.54 t0.49 0.36 t0.86 0.18 z M20.7 24 l-2.98 0 l0 -10.52 l2.98 0 l0 10.52 z M20.98 10.44 q0 0.82 -0.53 1.29 t-1.25 0.47 t-1.25 -0.47 t-0.53 -1.29 t0.53 -1.29 t1.25 -0.47 t1.25 0.47 t0.53 1.29 z M29.28 18.42 q0 -1.44 -0.37 -2.04 t-1.27 -0.6 q-0.28 0 -0.58 0.03 t-0.58 0.07 l0 8.12 l-2.98 0 l0 -10.16 q0.38 -0.1 0.89 -0.21 t1.08 -0.2 t1.17 -0.14 t1.18 -0.05 q1.14 0 1.85 0.29 t1.17 0.69 q0.64 -0.46 1.47 -0.72 t1.53 -0.26 q1.26 0 2.07 0.35 t1.29 0.99 t0.66 1.52 t0.18 1.96 l0 5.94 l-2.98 0 l0 -5.58 q0 -1.44 -0.37 -2.04 t-1.27 -0.6 q-0.24 0 -0.67 0.12 t-0.71 0.3 q0.14 0.46 0.18 0.97 t0.04 1.09 l0 5.74 l-2.98 0 l0 -5.58 z M47.480000000000004 18.66 q0 -2.88 -2.12 -2.88 q-0.46 0 -0.91 0.12 t-0.73 0.3 l0 5.42 q0.22 0.04 0.56 0.07 t0.74 0.03 q1.22 0 1.84 -0.84 t0.62 -2.22 z M50.52 18.740000000000002 q0 1.26 -0.37 2.28 t-1.07 1.74 t-1.72 1.11 t-2.32 0.39 q-0.54 0 -1.13 -0.05 t-1.16 -0.13 t-1.09 -0.19 t-0.92 -0.23 l0 -14.7 l2.98 -0.48 l0 5.24 q0.5 -0.22 1.04 -0.34 t1.16 -0.12 q1.12 0 1.98 0.39 t1.44 1.11 t0.88 1.73 t0.3 2.25 z M55.800000000000004 24 l-2.98 0 l0 -10.52 l2.98 0 l0 10.52 z M56.08 10.44 q0 0.82 -0.53 1.29 t-1.25 0.47 t-1.25 -0.47 t-0.53 -1.29 t0.53 -1.29 t1.25 -0.47 t1.25 0.47 t0.53 1.29 z M58.6 13.84 q0.76 -0.22 1.96 -0.41 t2.52 -0.19 q1.34 0 2.23 0.35 t1.41 0.99 t0.74 1.52 t0.22 1.96 l0 5.94 l-2.98 0 l0 -5.58 q0 -1.44 -0.38 -2.04 t-1.42 -0.6 q-0.32 0 -0.68 0.03 t-0.64 0.07 l0 8.12 l-2.98 0 l0 -10.16 z M72.92 18.4 q0 2.5 2.02 2.5 q0.46 0 0.86 -0.12 t0.68 -0.28 l0 -4.76 q-0.22 -0.04 -0.52 -0.07 t-0.7 -0.03 q-1.18 0 -1.76 0.78 t-0.58 1.98 z M79.46000000000001 22.68 q0 2.58 -1.31 3.83 t-4.05 1.25 q-0.96 0 -1.92 -0.17 t-1.78 -0.45 l0.52 -2.5 q0.7 0.28 1.47 0.44 t1.75 0.16 q1.28 0 1.81 -0.56 t0.53 -1.44 l0 -0.38 q-0.48 0.22 -0.99 0.33 t-1.11 0.11 q-2.18 0 -3.34 -1.29 t-1.16 -3.61 q0 -1.16 0.36 -2.11 t1.05 -1.63 t1.69 -1.05 t2.26 -0.37 q0.54 0 1.11 0.05 t1.13 0.13 t1.07 0.19 t0.91 0.23 l0 8.84 z  M89.6 18.4 q0 2.5 2.02 2.5 q0.46 0 0.86 -0.12 t0.68 -0.28 l0 -4.76 q-0.22 -0.04 -0.52 -0.07 t-0.7 -0.03 q-1.18 0 -1.76 0.78 t-0.58 1.98 z M96.14 22.68 q0 2.58 -1.31 3.83 t-4.05 1.25 q-0.96 0 -1.92 -0.17 t-1.78 -0.45 l0.52 -2.5 q0.7 0.28 1.47 0.44 t1.75 0.16 q1.28 0 1.81 -0.56 t0.53 -1.44 l0 -0.38 q-0.48 0.22 -0.99 0.33 t-1.11 0.11 q-2.18 0 -3.34 -1.29 t-1.16 -3.61 q0 -1.16 0.36 -2.11 t1.05 -1.63 t1.69 -1.05 t2.26 -0.37 q0.54 0 1.11 0.05 t1.13 0.13 t1.07 0.19 t0.91 0.23 l0 8.84 z M107.91999999999999 23.64 q-0.76 0.22 -1.96 0.41 t-2.52 0.19 q-1.34 0 -2.23 -0.36 t-1.41 -1.01 t-0.74 -1.55 t-0.22 -1.98 l0 -5.86 l2.98 0 l0 5.5 q0 1.44 0.38 2.08 t1.42 0.64 q0.32 0 0.68 -0.03 t0.64 -0.07 l0 -8.12 l2.98 0 l0 10.16 z M113.69999999999999 24 l-2.98 0 l0 -10.52 l2.98 0 l0 10.52 z M113.97999999999999 10.44 q0 0.82 -0.53 1.29 t-1.25 0.47 t-1.25 -0.47 t-0.53 -1.29 t0.53 -1.29 t1.25 -0.47 t1.25 0.47 t0.53 1.29 z M119.03999999999999 18.66 q0 1.38 0.62 2.22 t1.84 0.84 q0.4 0 0.74 -0.03 t0.56 -0.07 l0 -5.42 q-0.28 -0.18 -0.73 -0.3 t-0.91 -0.12 q-2.12 0 -2.12 2.88 z M125.78 23.66 q-0.4 0.12 -0.92 0.23 t-1.09 0.19 t-1.16 0.13 t-1.13 0.05 q-1.3 0 -2.32 -0.38 t-1.72 -1.09 t-1.07 -1.72 t-0.37 -2.27 q0 -1.28 0.32 -2.31 t0.92 -1.75 t1.47 -1.1 t1.99 -0.38 q0.62 0 1.11 0.12 t0.99 0.34 l0 -4.76 l2.98 -0.48 l0 15.18 z M128.07999999999998 18.82 q0 -1.4 0.43 -2.45 t1.13 -1.75 t1.61 -1.06 t1.87 -0.36 q2.24 0 3.54 1.37 t1.3 4.03 q0 0.26 -0.02 0.57 t-0.04 0.55 l-6.76 0 q0.1 0.92 0.86 1.46 t2.04 0.54 q0.82 0 1.61 -0.15 t1.29 -0.37 l0.4 2.42 q-0.24 0.12 -0.64 0.24 t-0.89 0.21 t-1.05 0.15 t-1.12 0.06 q-1.42 0 -2.47 -0.42 t-1.74 -1.15 t-1.02 -1.73 t-0.33 -2.16 z M135.07999999999998 17.68 q-0.02 -0.38 -0.13 -0.74 t-0.34 -0.64 t-0.58 -0.46 t-0.87 -0.18 q-0.5 0 -0.86 0.17 t-0.6 0.45 t-0.37 0.65 t-0.19 0.75 l3.94 0 z"></path></g><g id="SvgjsG5367" featurekey="text3" fill="#1e1513" transform="matrix(1.2386233806610107,0,0,1.2386233806610107,248.76137471385516,456.980288500966)"><path d="M1.14 5.140000000000001 q0 -0.06 0.36 -0.1 t0.94 -0.05 t1.31 0 t1.51 0.03 q1.8 0.06 4.1 0.16 l0 2.94 l-2.5 0 q0.06 3.18 0.08 5.7 q0 1.08 0.01 2.12 t0 1.87 t-0.03 1.37 t-0.06 0.62 q-0.08 0.16 -0.54 0.2 t-0.99 0.04 t-0.99 -0.04 t-0.54 -0.08 q-0.04 -0.02 -0.07 -0.52 t-0.06 -1.3 t-0.04 -1.83 t-0.03 -2.09 q-0.04 -2.5 -0.04 -5.66 q-0.62 -0.04 -1.14 -0.06 q-0.44 -0.02 -0.83 -0.03 t-0.49 -0.01 q-0.04 0 -0.07 -0.13 t-0.03 -0.36 l0 -0.53 t0.02 -0.6 q0.04 -0.72 0.12 -1.66 z M11.36 4.880000000000001 q1.02 0 1.82 0.04 q0.34 0.02 0.67 0.04 t0.59 0.04 t0.42 0.05 t0.16 0.05 q0 0.04 -0.01 0.42 t-0.02 0.99 t-0.02 1.37 t-0.01 1.56 q-0.02 1.86 -0.04 4.2 l1.54 -0.1 l0.28 -8.38 q0.8 -0.06 1.46 -0.1 q0.56 -0.04 1.02 -0.02 t0.46 0.12 q0 0.06 0.01 0.7 t0.04 1.64 t0.05 2.27 t0.04 2.6 t0.02 2.6 t-0.01 2.27 t-0.05 1.64 t-0.1 0.7 q-0.14 0.12 -0.63 0.17 t-1.01 0.07 q-0.64 0.02 -1.38 -0.02 q0.04 -0.82 0.06 -1.48 q0.02 -0.56 0 -1.01 t-0.1 -0.43 q-0.08 0.04 -0.37 0.03 t-0.6 -0.01 t-0.56 0.01 t-0.25 0.07 q-0.02 0.06 -0.03 0.51 t-0.03 0.97 q-0.02 0.62 -0.06 1.36 q-0.76 0.08 -1.4 0.12 q-0.54 0.04 -1.02 0.05 t-0.6 -0.05 q-0.06 -0.02 -0.11 -0.68 t-0.08 -1.73 t-0.05 -2.42 t-0.04 -2.75 q-0.04 -3.3 -0.06 -7.48 z M22.18 5.039999999999999 q1.88 -0.02 3.38 -0.06 q0.64 0 1.26 -0.01 t1.11 -0.02 t0.81 -0.02 t0.36 -0.01 t0.04 0.23 t-0.03 0.58 t-0.08 0.76 t-0.12 0.76 l-0.12 0.6 t-0.09 0.27 t-0.29 0.03 t-0.62 0.02 t-0.79 0 t-0.79 0 t-0.64 0.02 t-0.33 0.03 q-0.04 0.02 -0.06 0.21 t-0.03 0.49 t0 0.68 t0.03 0.78 q0.04 0.94 0.1 2.1 l1.04 0 l1.18 0 q0.04 0 0.06 0.21 t0.02 0.53 t-0.02 0.69 t-0.04 0.7 t-0.05 0.58 t-0.05 0.29 q-0.04 0.06 -0.36 0.07 t-0.71 0 t-0.72 -0.01 t-0.39 0.02 q-0.06 0.04 -0.02 0.19 t0.1 0.33 q0.08 0.22 0.18 0.46 q0.84 0.02 1.54 0.04 q0.3 0 0.59 0.01 t0.53 0.03 t0.41 0.03 t0.21 0.03 q0.06 0.02 0.1 0.24 t0.06 0.55 t0.03 0.72 t0 0.73 t-0.03 0.6 t-0.06 0.34 t-0.54 0.11 t-1.25 0.03 t-1.61 -0.01 t-1.62 -0.03 t-1.29 -0.03 t-0.61 -0.01 q-0.06 0.02 -0.08 -0.62 t-0.02 -1.68 t0.03 -2.38 t0.07 -2.74 q0.08 -3.28 0.22 -7.46 z  M43.58 8.18 q0.2 0.72 0.27 1.9 t0.02 2.46 t-0.23 2.5 t-0.48 2.06 q-0.22 0.58 -0.52 1.11 t-0.73 0.93 t-1 0.63 t-1.29 0.23 q-1.1 0 -1.96 -0.49 t-1.36 -1.29 q-0.36 -0.58 -0.59 -1.39 t-0.36 -1.73 t-0.17 -1.87 t-0.03 -1.82 t0.08 -1.59 t0.17 -1.16 q0.14 -0.68 0.43 -1.36 t0.78 -1.2 t1.22 -0.85 t1.75 -0.33 q0.92 0 1.6 0.27 t1.15 0.72 t0.77 1.04 t0.48 1.23 z M40.44 15.14 q0.08 -0.48 0.12 -1.19 t0.06 -1.44 t0 -1.41 t-0.08 -1.1 q-0.1 -0.74 -0.32 -1.31 t-0.7 -0.57 q-0.26 0 -0.44 0.19 t-0.3 0.49 t-0.19 0.69 t-0.11 0.79 q-0.04 0.38 -0.06 1.1 t0 1.53 t0.08 1.59 t0.2 1.28 q0.12 0.46 0.34 0.74 t0.5 0.28 q0.36 0 0.58 -0.49 t0.32 -1.17 z M53.839999999999996 9.72 q0.24 1.48 -0.01 2.48 t-0.74 1.65 t-1.13 0.99 t-1.2 0.52 t-0.95 0.24 t-0.37 0.14 q0.02 0.12 0.02 0.76 t-0.01 1.37 t-0.03 1.34 t-0.04 0.67 q-0.02 0.04 -0.25 0.06 t-0.58 0.04 t-0.75 0.03 t-0.77 0.02 t-0.64 0.01 t-0.35 -0.02 q-0.06 0 -0.09 -0.65 t-0.04 -1.71 t-0.01 -2.4 t0.02 -2.74 q0.04 -3.28 0.14 -7.44 q1.94 -0.26 3.56 0.1 q0.68 0.16 1.37 0.47 t1.26 0.85 t0.99 1.33 t0.6 1.89 z M49.46 12.559999999999999 q0.44 -0.12 0.8 -0.36 q0.3 -0.2 0.55 -0.55 t0.27 -0.89 q0 -0.54 -0.23 -0.91 t-0.51 -0.61 q-0.34 -0.28 -0.76 -0.46 z M56.28 5.039999999999999 q1.88 -0.02 3.38 -0.06 q0.64 0 1.26 -0.01 t1.11 -0.02 t0.81 -0.02 t0.36 -0.01 t0.04 0.23 t-0.03 0.58 t-0.08 0.76 t-0.12 0.76 l-0.12 0.6 t-0.09 0.27 t-0.29 0.03 t-0.62 0.02 t-0.79 0 t-0.79 0 t-0.64 0.02 t-0.33 0.03 q-0.04 0.02 -0.06 0.21 t-0.03 0.49 t0 0.68 t0.03 0.78 q0.04 0.94 0.1 2.1 l1.04 0 l1.18 0 q0.04 0 0.06 0.21 t0.02 0.53 t-0.02 0.69 t-0.04 0.7 t-0.05 0.58 t-0.05 0.29 q-0.04 0.06 -0.36 0.07 t-0.71 0 t-0.72 -0.01 t-0.39 0.02 q-0.06 0.04 -0.02 0.19 t0.1 0.33 q0.08 0.22 0.18 0.46 q0.84 0.02 1.54 0.04 q0.3 0 0.59 0.01 t0.53 0.03 t0.41 0.03 t0.21 0.03 q0.06 0.02 0.1 0.24 t0.06 0.55 t0.03 0.72 t0 0.73 t-0.03 0.6 t-0.06 0.34 t-0.54 0.11 t-1.25 0.03 t-1.61 -0.01 t-1.62 -0.03 t-1.29 -0.03 t-0.61 -0.01 q-0.06 0.02 -0.08 -0.62 t-0.02 -1.68 t0.03 -2.38 t0.07 -2.74 q0.08 -3.28 0.22 -7.46 z M65.32000000000001 4.9399999999999995 q0.76 0.06 1.4 0.1 q0.54 0.04 1.01 0.07 t0.57 0.03 q0.04 0 0.21 0.35 t0.41 0.92 t0.54 1.31 t0.6 1.5 q0.7 1.8 1.58 4.08 l-0.02 -8.18 q0.76 0.06 1.4 0.12 q0.54 0.04 1.04 0.07 t0.66 0.03 q0.08 0 0.11 0.61 t0.05 1.61 t0.01 2.27 t-0.03 2.61 t-0.06 2.62 t-0.07 2.3 t-0.07 1.65 t-0.06 0.67 q-0.06 0.08 -0.49 0.09 t-0.95 -0.01 q-0.6 -0.02 -1.32 -0.04 l-3.12 -6.3 q0.02 1.72 0.04 3.1 q0 0.58 0.01 1.15 t0.01 1.03 t0.01 0.77 t0.01 0.37 q0 0.12 -0.44 0.15 t-1.01 0 t-1.1 -0.09 t-0.69 -0.12 q-0.08 -0.02 -0.14 -0.67 t-0.09 -1.7 t-0.04 -2.39 t-0.01 -2.72 q0 -3.26 0.04 -7.36 z M82.30000000000001 10.8 q-0.06 -0.6 -0.2 -1.12 q-0.12 -0.44 -0.33 -0.81 t-0.57 -0.45 q-0.36 -0.06 -0.57 0.11 t-0.33 0.42 t-0.16 0.53 t-0.04 0.42 q-0.04 0.34 0.32 0.79 t0.92 0.96 t1.22 1.05 t1.24 1.07 t0.98 1.02 t0.44 0.89 q0.12 0.76 0.03 1.36 t-0.32 1.05 t-0.57 0.77 t-0.7 0.54 q-0.86 0.52 -2.04 0.64 q-1.16 -0.1 -2.1 -0.54 q-0.4 -0.18 -0.79 -0.45 t-0.7 -0.66 t-0.52 -0.91 t-0.25 -1.18 q0 -0.08 0.14 -0.14 t0.38 -0.11 t0.55 -0.07 t0.63 -0.04 q0.76 -0.04 1.72 -0.02 q0.02 0.38 0.1 0.66 q0.06 0.24 0.19 0.44 t0.39 0.18 q0.52 -0.04 0.9 -0.19 t0.34 -0.49 q0.02 -0.34 -0.4 -0.72 t-1.05 -0.84 t-1.37 -1.01 t-1.38 -1.23 t-1.07 -1.5 t-0.43 -1.82 q0 -0.14 0.07 -0.51 t0.25 -0.85 t0.48 -1.01 t0.77 -0.97 t1.13 -0.74 t1.54 -0.34 q1.1 0.02 1.95 0.53 t1.41 1.3 t0.84 1.77 t0.24 1.94 q-0.02 0.1 -0.52 0.15 t-1.12 0.09 q-0.72 0.04 -1.64 0.04 z M96.04 8.18 q0.2 0.72 0.27 1.9 t0.02 2.46 t-0.23 2.5 t-0.48 2.06 q-0.22 0.58 -0.52 1.11 t-0.73 0.93 t-1 0.63 t-1.29 0.23 q-1.1 0 -1.96 -0.49 t-1.36 -1.29 q-0.36 -0.58 -0.59 -1.39 t-0.36 -1.73 t-0.17 -1.87 t-0.03 -1.82 t0.08 -1.59 t0.17 -1.16 q0.14 -0.68 0.43 -1.36 t0.78 -1.2 t1.22 -0.85 t1.75 -0.33 q0.92 0 1.6 0.27 t1.15 0.72 t0.77 1.04 t0.48 1.23 z M92.9 15.14 q0.08 -0.48 0.12 -1.19 t0.06 -1.44 t0 -1.41 t-0.08 -1.1 q-0.1 -0.74 -0.32 -1.31 t-0.7 -0.57 q-0.26 0 -0.44 0.19 t-0.3 0.49 t-0.19 0.69 t-0.11 0.79 q-0.04 0.38 -0.06 1.1 t0 1.53 t0.08 1.59 t0.2 1.28 q0.12 0.46 0.34 0.74 t0.5 0.28 q0.36 0 0.58 -0.49 t0.32 -1.17 z M98.42000000000002 5.34 q0.98 -0.04 1.74 -0.04 l0.63 0 t0.55 0.02 t0.39 0.04 t0.15 0.06 t-0.01 0.52 t-0.02 1.22 t-0.02 1.68 t-0.03 1.92 q-0.04 2.28 -0.06 5.16 q-0.02 0.3 0.06 0.52 q0.08 0.2 0.25 0.36 t0.57 0.16 q0.38 0 0.55 -0.18 t0.23 -0.4 q0.08 -0.24 0.04 -0.58 q-0.04 -2.94 -0.08 -5.26 q-0.02 -0.98 -0.03 -1.93 t-0.01 -1.69 t0.01 -1.19 t0.03 -0.45 t0.28 -0.03 t0.63 -0.08 t0.8 -0.09 t0.8 -0.05 t0.63 0 t0.3 0.09 q0.02 0.06 0.02 0.57 t-0.02 1.31 t-0.05 1.81 t-0.07 2.05 q-0.08 2.44 -0.22 5.5 q-0.14 1.06 -0.6 1.86 q-0.2 0.34 -0.48 0.67 t-0.69 0.59 t-0.93 0.42 t-1.2 0.16 q-0.78 0 -1.38 -0.17 t-1.04 -0.44 t-0.74 -0.63 t-0.5 -0.72 q-0.46 -0.86 -0.54 -1.98 z M119.16000000000003 16.88 q0.06 0.82 0.1 1.48 q0.04 0.56 0.02 1.01 t-0.12 0.45 q-1.18 0 -2.07 -0.18 t-1.56 -0.48 t-1.13 -0.69 t-0.76 -0.79 q-0.72 -0.94 -0.84 -2.14 l-0.62 0.08 l0.12 3.82 q0.02 0.04 -0.02 0.12 q-0.04 0.06 -0.1 0.13 t-0.2 0.17 t-0.59 0.12 t-0.94 0.01 t-0.9 -0.02 t-0.49 0.01 q-0.04 0.02 -0.07 -0.62 t-0.05 -1.69 t-0.04 -2.4 t-0.02 -2.77 q-0.04 -3.3 -0.04 -7.56 l0.6 0 l0.63 0 t0.75 -0.02 q0.14 0 0.69 0.05 t1.24 0.18 t1.39 0.39 t1.14 0.68 q0.58 0.56 0.92 1.18 t0.5 1.25 t0.18 1.25 t-0.04 1.18 q-0.16 1.32 -0.76 2.64 l-0.06 0.12 q-0.08 0.16 -0.1 0.32 q-0.1 0.62 0 1.06 t0.31 0.75 t0.51 0.5 t0.62 0.29 q0.76 0.24 1.8 0.12 z M112.50000000000001 12.34 q0.4 0.06 0.65 -0.1 t0.39 -0.43 t0.18 -0.61 t0.04 -0.64 t-0.02 -0.52 t-0.02 -0.26 q-0.04 -0.6 -0.28 -0.91 t-0.5 -0.45 q-0.32 -0.16 -0.68 -0.18 q-0.06 1.12 -0.06 2.02 q0 0.38 0.01 0.75 t0.05 0.66 t0.09 0.47 t0.15 0.2 z M126.48000000000002 10.8 q-0.34 -0.04 -0.3 -0.56 q0.04 -0.36 0.02 -0.82 t-0.14 -0.8 q-0.1 -0.26 -0.27 -0.32 t-0.35 0.01 t-0.34 0.2 t-0.22 0.25 q-0.04 0.08 -0.11 0.69 t-0.13 1.5 t-0.08 1.9 t0.05 1.87 t0.24 1.42 t0.49 0.54 q0.48 -0.02 0.68 -0.36 t0.25 -0.75 t0.02 -0.76 t-0.01 -0.41 q0 -0.04 0.49 -0.02 t1.08 0.08 t1.1 0.15 t0.57 0.17 q0.04 0.06 -0.02 0.46 t-0.24 0.98 t-0.49 1.24 t-0.81 1.22 t-1.18 0.93 t-1.58 0.37 q-0.68 0 -1.21 -0.15 t-0.92 -0.41 t-0.66 -0.58 t-0.45 -0.66 q-0.42 -0.8 -0.5 -1.8 q-0.06 -0.68 -0.1 -1.46 q-0.04 -0.66 -0.06 -1.49 t0 -1.67 q0 -0.44 0.04 -1.11 t0.18 -1.43 t0.44 -1.53 t0.83 -1.38 t1.34 -1 t1.99 -0.39 q1.06 0 1.76 0.43 t1.12 1.08 t0.61 1.42 t0.24 1.43 t0.01 1.12 t-0.08 0.5 q-0.06 0.04 -0.45 0.04 t-0.91 -0.03 t-1.06 -0.06 t-0.88 -0.05 z  M132.20000000000002 5.039999999999999 q1.88 -0.02 3.38 -0.06 q0.64 0 1.26 -0.01 t1.11 -0.02 t0.81 -0.02 t0.36 -0.01 t0.04 0.23 t-0.03 0.58 t-0.08 0.76 t-0.12 0.76 l-0.12 0.6 t-0.09 0.27 t-0.29 0.03 t-0.62 0.02 t-0.79 0 t-0.79 0 t-0.64 0.02 t-0.33 0.03 q-0.04 0.02 -0.06 0.21 t-0.03 0.49 t0 0.68 t0.03 0.78 q0.04 0.94 0.1 2.1 l1.04 0 l1.18 0 q0.04 0 0.06 0.21 t0.02 0.53 t-0.02 0.69 t-0.04 0.7 t-0.05 0.58 t-0.05 0.29 q-0.04 0.06 -0.36 0.07 t-0.71 0 t-0.72 -0.01 t-0.39 0.02 q-0.06 0.04 -0.02 0.19 t0.1 0.33 q0.08 0.22 0.18 0.46 q0.84 0.02 1.54 0.04 q0.3 0 0.59 0.01 t0.53 0.03 t0.41 0.03 t0.21 0.03 q0.06 0.02 0.1 0.24 t0.06 0.55 t0.03 0.72 t0 0.73 t-0.03 0.6 t-0.06 0.34 t-0.54 0.11 t-1.25 0.03 t-1.61 -0.01 t-1.62 -0.03 t-1.29 -0.03 t-0.61 -0.01 q-0.06 0.02 -0.08 -0.62 t-0.02 -1.68 t0.03 -2.38 t0.07 -2.74 q0.08 -3.28 0.22 -7.46 z  M150.36 10.8 q-0.34 -0.04 -0.3 -0.56 q0.04 -0.36 0.02 -0.82 t-0.14 -0.8 q-0.1 -0.26 -0.27 -0.32 t-0.35 0.01 t-0.34 0.2 t-0.22 0.25 q-0.04 0.08 -0.11 0.69 t-0.13 1.5 t-0.08 1.9 t0.05 1.87 t0.24 1.42 t0.49 0.54 q0.48 -0.02 0.68 -0.36 t0.25 -0.75 t0.02 -0.76 t-0.01 -0.41 q0 -0.04 0.49 -0.02 t1.08 0.08 t1.1 0.15 t0.57 0.17 q0.04 0.06 -0.02 0.46 t-0.24 0.98 t-0.49 1.24 t-0.81 1.22 t-1.18 0.93 t-1.58 0.37 q-0.68 0 -1.21 -0.15 t-0.92 -0.41 t-0.66 -0.58 t-0.45 -0.66 q-0.42 -0.8 -0.5 -1.8 q-0.06 -0.68 -0.1 -1.46 q-0.04 -0.66 -0.06 -1.49 t0 -1.67 q0 -0.44 0.04 -1.11 t0.18 -1.43 t0.44 -1.53 t0.83 -1.38 t1.34 -1 t1.99 -0.39 q1.06 0 1.76 0.43 t1.12 1.08 t0.61 1.42 t0.24 1.43 t0.01 1.12 t-0.08 0.5 q-0.06 0.04 -0.45 0.04 t-0.91 -0.03 t-1.06 -0.06 t-0.88 -0.05 z  M155.84000000000003 5 q1.06 -0.06 1.86 -0.08 q0.34 0 0.67 -0.01 t0.59 0.01 t0.41 0.05 t0.13 0.09 t-0.04 0.59 t-0.05 1.37 t-0.06 1.9 t-0.06 2.16 t-0.05 2.15 t-0.04 1.87 t-0.02 1.34 l0 0.56 t0.38 0.04 t0.93 -0.01 t1.19 -0.04 t1.19 -0.04 t0.91 -0.01 t0.36 0.06 l0 0.54 t-0.01 0.98 t-0.04 0.95 t-0.07 0.45 q-0.02 0.02 -0.38 0.03 t-0.93 0.02 t-1.3 0.01 l-1.47 0 l-4 0 q-0.08 -4.24 -0.12 -7.54 q-0.02 -1.4 -0.04 -2.75 t-0.02 -2.4 t0.02 -1.68 t0.06 -0.61 z M166.26000000000002 5.24 q0.92 -0.08 1.64 -0.14 q0.62 -0.04 1.13 -0.05 t0.51 0.07 l0 0.69 t0.01 1.68 t0.01 2.33 t-0.01 2.65 t-0.02 2.65 t-0.04 2.32 t-0.07 1.65 t-0.1 0.65 q-0.12 0.06 -0.63 0.15 t-1.08 0.17 t-1.01 0.1 t-0.44 -0.06 q0 -0.04 0.01 -0.7 t0.02 -1.72 t0.02 -2.39 t0.01 -2.71 q0.02 -3.24 0.04 -7.34 z M171.68 5.0600000000000005 q0.96 -0.02 1.74 -0.04 q0.32 0 0.64 -0.01 t0.57 -0.02 t0.41 -0.02 t0.18 -0.01 l0.1 0.37 t0.26 0.99 t0.36 1.4 t0.42 1.6 q0.5 1.92 1.1 4.36 q0.66 -2.32 1.18 -4.16 q0.22 -0.78 0.43 -1.54 t0.38 -1.36 t0.28 -0.98 t0.11 -0.42 q0.02 -0.06 0.47 -0.07 t0.99 0 t1.02 0.04 t0.56 0.03 q0.04 0 0.06 0.63 t0.03 1.65 t0 2.32 t-0.01 2.66 q-0.02 3.2 -0.08 7.26 q-0.76 0.02 -1.4 0.02 q-0.54 0.02 -1.01 0.02 l-0.55 0 q-0.06 0 -0.08 -0.37 t-0.02 -0.92 t0.02 -1.2 t0.04 -1.22 t0.04 -0.97 t0.02 -0.48 q0 -0.06 -0.12 0.14 t-0.33 0.54 t-0.47 0.76 t-0.55 0.78 t-0.58 0.61 t-0.53 0.25 t-0.5 -0.25 t-0.5 -0.63 t-0.46 -0.81 t-0.39 -0.8 t-0.3 -0.6 t-0.17 -0.21 t-0.06 0.27 t-0.01 0.65 t0.03 0.9 t0.04 1.02 q0.06 1.24 0.16 2.78 q-0.94 0.02 -1.7 0.04 q-0.32 0 -0.64 0.01 t-0.58 0.01 l-0.43 0 l-0.21 0 t-0.06 -0.64 t-0.02 -1.7 l0 -2.4 t0.02 -2.76 q0.04 -3.3 0.1 -7.52 z M191.66 12.379999999999999 q0.48 0.38 0.69 0.92 t0.22 1.15 t-0.15 1.24 t-0.41 1.2 t-0.57 1.04 t-0.62 0.73 q-0.7 0.6 -1.61 0.87 t-1.76 0.36 t-1.48 0.07 t-0.73 -0.02 q-0.06 0 -0.1 -0.65 t-0.07 -1.71 t-0.05 -2.41 t-0.02 -2.77 q-0.02 -3.3 0 -7.54 q1.3 0 2.46 0.1 q0.48 0.04 0.99 0.12 t0.96 0.2 t0.83 0.28 t0.6 0.36 q0.76 0.74 1.13 1.43 t0.46 1.33 t-0.03 1.18 t-0.33 0.97 t-0.44 0.72 t-0.35 0.39 q-0.04 0.04 0 0.1 t0.11 0.12 t0.15 0.12 t0.12 0.1 z M189.23999999999998 9.24 q0 -0.48 -0.2 -0.77 t-0.84 -0.27 q0.02 0.52 0.04 0.94 q0.02 0.36 0.05 0.66 t0.11 0.32 t0.22 -0.05 t0.28 -0.2 t0.24 -0.29 t0.1 -0.34 z M188.51999999999998 16.86 q0.08 0.04 0.35 -0.07 t0.54 -0.35 t0.49 -0.63 t0.22 -0.91 q0 -0.34 -0.27 -0.62 t-0.59 -0.42 t-0.59 -0.1 t-0.25 0.34 q-0.04 0.74 -0.04 1.34 q0 0.52 0.02 0.95 t0.12 0.47 z M194.7 5.24 q0.92 -0.08 1.64 -0.14 q0.62 -0.04 1.13 -0.05 t0.51 0.07 l0 0.69 t0.01 1.68 t0.01 2.33 t-0.01 2.65 t-0.02 2.65 t-0.04 2.32 t-0.07 1.65 t-0.1 0.65 q-0.12 0.06 -0.63 0.15 t-1.08 0.17 t-1.01 0.1 t-0.44 -0.06 q0 -0.04 0.01 -0.7 t0.02 -1.72 t0.02 -2.39 t0.01 -2.71 q0.02 -3.24 0.04 -7.34 z M200.05999999999997 4.9399999999999995 q0.76 0.06 1.4 0.1 q0.54 0.04 1.01 0.07 t0.57 0.03 q0.04 0 0.21 0.35 t0.41 0.92 t0.54 1.31 t0.6 1.5 q0.7 1.8 1.58 4.08 l-0.02 -8.18 q0.76 0.06 1.4 0.12 q0.54 0.04 1.04 0.07 t0.66 0.03 q0.08 0 0.11 0.61 t0.05 1.61 t0.01 2.27 t-0.03 2.61 t-0.06 2.62 t-0.07 2.3 t-0.07 1.65 t-0.06 0.67 q-0.06 0.08 -0.49 0.09 t-0.95 -0.01 q-0.6 -0.02 -1.32 -0.04 l-3.12 -6.3 q0.02 1.72 0.04 3.1 q0 0.58 0.01 1.15 t0.01 1.03 t0.01 0.77 t0.01 0.37 q0 0.12 -0.44 0.15 t-1.01 0 t-1.1 -0.09 t-0.69 -0.12 q-0.08 -0.02 -0.14 -0.67 t-0.09 -1.7 t-0.04 -2.39 t-0.01 -2.72 q0 -3.26 0.04 -7.36 z M216.17999999999998 8.74 q-0.28 -0.16 -0.5 -0.12 q-0.2 0.04 -0.39 0.26 t-0.25 0.84 q-0.06 0.42 -0.11 1.11 t-0.08 1.49 t-0.02 1.61 t0.11 1.46 t0.29 1.05 t0.53 0.36 q0.34 -0.02 0.49 -0.27 t0.21 -0.55 q0.08 -0.36 0.04 -0.8 q-0.16 0 -0.3 -0.02 q-0.12 -0.02 -0.25 -0.06 t-0.21 -0.1 t-0.1 -0.57 t-0.01 -1.11 t0.03 -1.12 t0 -0.62 q0 -0.04 0.17 -0.05 t0.46 0 t0.66 0.04 t0.77 0.07 q0.92 0.08 2.06 0.24 q0.3 2.22 0.04 3.98 q-0.12 0.76 -0.36 1.48 t-0.69 1.29 t-1.11 0.94 t-1.62 0.41 q-0.72 0.02 -1.29 -0.11 t-1.01 -0.35 t-0.75 -0.51 t-0.53 -0.59 q-0.1 -0.14 -0.23 -0.47 t-0.23 -0.75 t-0.18 -0.85 t-0.08 -0.79 q-0.04 -0.9 -0.05 -1.99 t-0.03 -2.05 q-0.02 -1.1 -0.02 -2.24 q0.06 -1.24 0.52 -2.2 q0.2 -0.42 0.49 -0.81 t0.73 -0.7 t1.02 -0.5 t1.34 -0.19 q1 0 1.72 0.4 t1.2 1.01 t0.76 1.33 t0.43 1.36 t0.18 1.09 t0.03 0.53 q-0.02 0.12 -0.57 0.15 t-1.21 0.01 q-0.78 -0.02 -1.78 -0.06 z  M230.59999999999997 8.74 q-0.28 -0.16 -0.5 -0.12 q-0.2 0.04 -0.39 0.26 t-0.25 0.84 q-0.06 0.42 -0.11 1.11 t-0.08 1.49 t-0.02 1.61 t0.11 1.46 t0.29 1.05 t0.53 0.36 q0.34 -0.02 0.49 -0.27 t0.21 -0.55 q0.08 -0.36 0.04 -0.8 q-0.16 0 -0.3 -0.02 q-0.12 -0.02 -0.25 -0.06 t-0.21 -0.1 t-0.1 -0.57 t-0.01 -1.11 t0.03 -1.12 t0 -0.62 q0 -0.04 0.17 -0.05 t0.46 0 t0.66 0.04 t0.77 0.07 q0.92 0.08 2.06 0.24 q0.3 2.22 0.04 3.98 q-0.12 0.76 -0.36 1.48 t-0.69 1.29 t-1.11 0.94 t-1.62 0.41 q-0.72 0.02 -1.29 -0.11 t-1.01 -0.35 t-0.75 -0.51 t-0.53 -0.59 q-0.1 -0.14 -0.23 -0.47 t-0.23 -0.75 t-0.18 -0.85 t-0.08 -0.79 q-0.04 -0.9 -0.05 -1.99 t-0.03 -2.05 q-0.02 -1.1 -0.02 -2.24 q0.06 -1.24 0.52 -2.2 q0.2 -0.42 0.49 -0.81 t0.73 -0.7 t1.02 -0.5 t1.34 -0.19 q1 0 1.72 0.4 t1.2 1.01 t0.76 1.33 t0.43 1.36 t0.18 1.09 t0.03 0.53 q-0.02 0.12 -0.57 0.15 t-1.21 0.01 q-0.78 -0.02 -1.78 -0.06 z M236.55999999999997 5.34 q0.98 -0.04 1.74 -0.04 l0.63 0 t0.55 0.02 t0.39 0.04 t0.15 0.06 t-0.01 0.52 t-0.02 1.22 t-0.02 1.68 t-0.03 1.92 q-0.04 2.28 -0.06 5.16 q-0.02 0.3 0.06 0.52 q0.08 0.2 0.25 0.36 t0.57 0.16 q0.38 0 0.55 -0.18 t0.23 -0.4 q0.08 -0.24 0.04 -0.58 q-0.04 -2.94 -0.08 -5.26 q-0.02 -0.98 -0.03 -1.93 t-0.01 -1.69 t0.01 -1.19 t0.03 -0.45 t0.28 -0.03 t0.63 -0.08 t0.8 -0.09 t0.8 -0.05 t0.63 0 t0.3 0.09 q0.02 0.06 0.02 0.57 t-0.02 1.31 t-0.05 1.81 t-0.07 2.05 q-0.08 2.44 -0.22 5.5 q-0.14 1.06 -0.6 1.86 q-0.2 0.34 -0.48 0.67 t-0.69 0.59 t-0.93 0.42 t-1.2 0.16 q-0.78 0 -1.38 -0.17 t-1.04 -0.44 t-0.74 -0.63 t-0.5 -0.72 q-0.46 -0.86 -0.54 -1.98 z M247.09999999999997 5.24 q0.92 -0.08 1.64 -0.14 q0.62 -0.04 1.13 -0.05 t0.51 0.07 l0 0.69 t0.01 1.68 t0.01 2.33 t-0.01 2.65 t-0.02 2.65 t-0.04 2.32 t-0.07 1.65 t-0.1 0.65 q-0.12 0.06 -0.63 0.15 t-1.08 0.17 t-1.01 0.1 t-0.44 -0.06 q0 -0.04 0.01 -0.7 t0.02 -1.72 t0.02 -2.39 t0.01 -2.71 q0.02 -3.24 0.04 -7.34 z M260.71999999999997 11.66 q0.02 0.6 0.04 1.42 t-0.12 1.71 t-0.5 1.78 t-1.08 1.63 q-0.52 0.52 -1.19 0.87 t-1.37 0.55 t-1.38 0.28 t-1.23 0.09 t-0.92 -0.02 t-0.43 -0.07 t-0.09 -0.55 t-0.04 -1.27 t0.01 -1.66 t0.05 -1.72 t0.07 -1.45 t0.1 -0.85 q0.02 -0.16 0.04 -0.57 t0.04 -0.96 t0.02 -1.2 l0 -1.31 q0 -1.54 -0.02 -3.38 q0.36 0.02 0.74 0.04 q0.34 0.02 0.75 0.05 t0.87 0.09 q1.06 0.16 2.12 0.62 t1.9 1.3 q0.66 0.66 1.14 1.75 t0.48 2.83 z M255.93999999999994 16.58 q0.08 -0.02 0.42 -0.2 t0.72 -0.65 t0.68 -1.31 t0.3 -2.16 q0 -0.98 -0.31 -1.66 t-0.69 -1.1 q-0.44 -0.5 -0.98 -0.8 q-0.08 2.22 -0.14 3.96 q-0.02 0.74 -0.04 1.45 t-0.02 1.26 t0.01 0.88 t0.05 0.33 z M263.09999999999997 5.039999999999999 q1.88 -0.02 3.38 -0.06 q0.64 0 1.26 -0.01 t1.11 -0.02 t0.81 -0.02 t0.36 -0.01 t0.04 0.23 t-0.03 0.58 t-0.08 0.76 t-0.12 0.76 l-0.12 0.6 t-0.09 0.27 t-0.29 0.03 t-0.62 0.02 t-0.79 0 t-0.79 0 t-0.64 0.02 t-0.33 0.03 q-0.04 0.02 -0.06 0.21 t-0.03 0.49 t0 0.68 t0.03 0.78 q0.04 0.94 0.1 2.1 l1.04 0 l1.18 0 q0.04 0 0.06 0.21 t0.02 0.53 t-0.02 0.69 t-0.04 0.7 t-0.05 0.58 t-0.05 0.29 q-0.04 0.06 -0.36 0.07 t-0.71 0 t-0.72 -0.01 t-0.39 0.02 q-0.06 0.04 -0.02 0.19 t0.1 0.33 q0.08 0.22 0.18 0.46 q0.84 0.02 1.54 0.04 q0.3 0 0.59 0.01 t0.53 0.03 t0.41 0.03 t0.21 0.03 q0.06 0.02 0.1 0.24 t0.06 0.55 t0.03 0.72 t0 0.73 t-0.03 0.6 t-0.06 0.34 t-0.54 0.11 t-1.25 0.03 t-1.61 -0.01 t-1.62 -0.03 t-1.29 -0.03 t-0.61 -0.01 q-0.06 0.02 -0.08 -0.62 t-0.02 -1.68 t0.03 -2.38 t0.07 -2.74 q0.08 -3.28 0.22 -7.46 z"></path></g></svg>
