<svg width="617" height="124"><defs id="SvgjsDefs5368"></defs><g id="SvgjsG5369" featurekey="root" fill="#ffffff"></g><g id="SvgjsG5370" featurekey="symbol1" fill="#2e51a4" transform="matrix(0.14354586601257324,0,0,0.14354586601257324,10,13)"><g><polygon points="23.666,634.493 82.333,624.827 110.666,636.493 210.458,641.679 158.011,612.54 174.036,584.858 169.166,563.493    198.166,541.993 28.999,541.493 31,562.825 102.333,561.493 153.166,599.493 36.666,613.493  "></polygon><path d="M325.987,571.331l9.466-123l-3.346,4.115l-31.093,4.751l-11.028,18.839l7.353,8.27l-12.866,8.732l-21.595-8.732   l29.407-37.984l26.345-9.189l17.369,4.466l1.601-19.052l-2.827-2.121l-44.652,16.85l-25.835,29.206l-8.977,11.824l-6.192-12.385   l-40.441-35.95l-29.204-58.413l-2.247-26.959l-24.712-4.492l-62.908,44.933L85.11,459.18l-66.443,52.314L0,533.321h208.351h3.157   l45.94,9.291l-53.904,18.938l102.143,17.679l2.253-5.12L325.987,571.331z M113.752,496.809l-23.586-4.491l-3.37,12.355   l14.04,16.291L24,526.493l20-21l56.418-43.813l-2.673-44.908l14.323-28.647l0.843,14.323l0.841,32.016l19.098,41.563l-19.802,7.382   L113.752,496.809z M143.521,430.532l-7.304,5.055l-12.357-31.457l7.304-28.082l23.025-17.973l6.741,11.797l-18.534,12.914   l-11.797,19.658L143.521,430.532z"></path><path d="M209,618.159l10.993-2.705h18.879l2.551-10.928l-8.014-10.926l-11.655-4.371l-17.482,11.654l-6.192,14.57L209,618.159z    M222.484,593.114l1.214,4.613l-5.186,2.629c-1.176-1.123-2.511-2.324-3.362-3.081L222.484,593.114z M207.187,601.794l4.869-2.763   l0.335,4.43l-1.744,0.884l-4.188,6.738l-4.37,0.971L207.187,601.794z"></path><polygon points="187.893,584.038 184.666,586.997 184.397,591.657 189.167,594.159 196.775,591.657 197.549,589.118    195.115,586.579 191.58,585.562  "></polygon><path d="M286.662,661.913l-10.199-11.654l-18.938-9.473l-18.939,10.199l-10.198,13.475l-5.1,14.205l31.378,9.828l36.145-7.629   l-0.314-16.65L286.662,661.913z M246.167,657.159l-4.001,6.834l-2,9.5l-7.5-1.5l2.5-9l7.167-9l15.833-7.5l0.5,5.5L246.167,657.159z   "></path><polygon points="192.855,565.103 188.302,570.563 188.666,572.022 193.167,573.993 199.229,572.022 199.774,569.108    195.951,566.194  "></polygon><polygon points="426.028,81.343 453.333,96.448 421.762,93.152 402.863,102.162 389.659,160.879 412.666,167.781 387.33,171.236    375.662,223.125 375.652,330.288 384.999,350.115 370.619,340.023 356.607,339.685 347.633,446.46 337.22,581.744 316.27,584.968    301.627,618.241 303.564,720.531 487.649,720.531 487.649,0 450.13,0  "></polygon><ellipse transform="matrix(0.283 -0.9591 0.9591 0.283 39.4647 481.2301)" cx="341.585" cy="214.22" rx="7.842" ry="7.843"></ellipse><path d="M366.872,279.854c0.736,0,1.48-0.203,2.147-0.628c1.862-1.189,2.407-3.662,1.22-5.522l-6.581-10.305l-3.537-5.538   c-0.432-0.674-1.057-1.205-1.789-1.52l-12.716-5.477l9.269-5.677l8.774,6.878l1.371,1.075c1.738,1.361,4.252,1.058,5.617-0.681   c1.361-1.738,1.058-4.253-0.681-5.614l-6.307-4.944l-6.027-4.725c-1.314-1.028-3.136-1.133-4.557-0.263l-10.154,6.219   c0.631-3.269,1.521-6.392,2.174-8.935c0.486-1.379,0.595-2.889,0.365-4.261l18.201-5.404l0.015-0.005   c0.874,1.864,1.514,3.119,1.52,3.145l2.167-1.099c-0.003-0.004-0.568-1.121-1.359-2.804c1.227-0.658,1.868-2.107,1.455-3.496   c-0.396-1.336-1.645-2.178-2.977-2.133c-0.25,0.008-0.502,0.037-0.754,0.111l-0.138,0.041c-1.126-2.763-2.126-5.632-2.358-7.437   c-0.022-0.141-0.036-0.275-0.047-0.406c-0.181-2.189,0.663-4.992,1.596-7.182c0.457-1.08,0.922-2.004,1.277-2.669   c0.697,0.774,1.877,1.848,3.719,2.891c1.607,0.911,3.717,1.799,6.46,2.439c-2.291-1.365-4.327-3.098-5.954-4.689   c-2.444-2.39-3.958-4.458-3.958-4.458l-6.983,0.971l0.837,2.315l3.64-0.424c-1.2,2.251-3.321,6.822-3.053,10.987   c0.013,0.192,0.032,0.374,0.057,0.549c0.304,2.137,1.304,5.035,2.424,7.807l-21.342,6.339c-4.198,0.095-21.315,1.352-23.571,15.496   c-1.859,11.651,7.064,13.066,13.476,9.12c0.006,0.123,0.01,0.24,0.018,0.365c0.764,5.667,4.57,6.465,7.766,6.607   c0.697,0.032,1.306,0.04,1.839-0.011l14.607,6.294l9.458,14.804c0.049,0.077,0.106,0.146,0.16,0.219   C364.433,279.276,365.637,279.854,366.872,279.854z"></path><path d="M43.923,594.241l1.593,2.388l17.493-0.461l32.596-6.886l-4.732-11.828l-21.445-8.67l-14.64,10.063L43.923,594.241z    M69.916,574.243l3.201,4.377l-5.802,7.928l-6.149-2.555l-3.328,6.617l-6.48,3.096l8.269-14.506L69.916,574.243z"></path><path d="M191.632,216.097c0,11.047,8.954,20,20,20c11.045,0,20-8.953,20-20c0-11.045-8.955-20-20-20   C200.586,196.097,191.632,205.052,191.632,216.097z M227.819,216.101c0,8.926-7.263,16.184-16.188,16.184   c-8.929,0-16.188-7.258-16.188-16.184c0-8.93,7.26-16.193,16.188-16.193C220.557,199.907,227.819,207.171,227.819,216.101z"></path></g></g><g id="SvgjsG5371" featurekey="text1" fill="#2e51a4" transform="matrix(4.863264560699463,0,0,4.863264560699463,96.59571465179522,-22.583871355423483)"><path d="M4.5 18.04 c1.78 0 3.1 -0.32 3.66 -0.48 c-0.06 0.72 -0.14 1.4 -0.24 2.04 c-0.96 0.38 -2.24 0.58 -3.42 0.58 s-2.52 -0.2 -3.48 -0.58 c-0.22 -1.24 -0.32 -2.66 -0.32 -4.14 s0.1 -2.9 0.32 -4.14 c0.96 -0.38 2.3 -0.6 3.48 -0.6 s2.46 0.22 3.42 0.6 c0.1 0.64 0.18 1.32 0.24 2.02 c-0.5 -0.14 -1.78 -0.46 -3.66 -0.46 c-0.7 0 -1.2 0.16 -1.2 0.16 s-0.14 1.1 -0.14 2.42 s0.14 2.44 0.14 2.44 s0.5 0.14 1.2 0.14 z M9.3 20 l0 -13.3 c0.88 0.04 1.92 0.22 2.48 0.5 l0 12.8 l-2.48 0 z M15.860000000000003 6.9399999999999995 c0.06 0.3 0.1 0.7 0.1 1.04 s-0.04 0.74 -0.1 1.04 c-0.28 0.08 -0.94 0.14 -1.28 0.14 c-0.36 0 -1 -0.06 -1.28 -0.14 c-0.08 -0.3 -0.1 -0.7 -0.1 -1.04 s0.02 -0.74 0.1 -1.04 c0.28 -0.08 0.92 -0.14 1.28 -0.14 c0.34 0 1 0.06 1.28 0.14 z M13.340000000000002 20 l0 -8.96 c0.86 0.04 1.9 0.24 2.48 0.5 l0 8.46 l-2.48 0 z M28.980000000000004 11.32 c0.22 1.24 0.32 2.66 0.32 4.14 l0 4.54 l-2.46 0 l0 -4.54 c0 -1.32 -0.14 -2.42 -0.14 -2.42 s-0.84 -0.1 -2.14 -0.14 l0 7.1 l-2.46 0 l0 -7.1 c-1.28 0.04 -2.12 0.14 -2.12 0.14 s-0.14 1.1 -0.14 2.42 l0 4.54 l-2.48 0 l0 -4.54 c0 -1.48 0.12 -2.9 0.32 -4.14 c0.96 -0.38 2.74 -0.6 5.66 -0.6 s4.68 0.22 5.64 0.6 z M33.300000000000004 6.699999999999999 l0 4.12 c0.44 -0.06 0.9 -0.1 1.32 -0.1 c1.18 0 2.54 0.22 3.5 0.6 c0.22 1.24 0.32 2.66 0.32 4.14 s-0.1 2.9 -0.32 4.14 c-0.96 0.38 -2.32 0.58 -3.5 0.58 c-1.16 0 -2.52 -0.2 -3.48 -0.58 c-0.22 -1.24 -0.32 -2.64 -0.32 -4.14 l0 -8.28 c0.6 -0.28 1.62 -0.46 2.48 -0.48 z M33.300000000000004 13.02 l0 2.44 c0 1.32 0.14 2.44 0.14 2.44 s0.5 0.14 1.18 0.14 c0.7 0 1.2 -0.14 1.2 -0.14 s0.16 -1.12 0.16 -2.44 s-0.16 -2.42 -0.16 -2.42 s-0.5 -0.16 -1.2 -0.16 c-0.5 0 -0.96 0.06 -1.32 0.14 z M42.44 6.9399999999999995 c0.06 0.3 0.1 0.7 0.1 1.04 s-0.04 0.74 -0.1 1.04 c-0.28 0.08 -0.94 0.14 -1.28 0.14 c-0.36 0 -1 -0.06 -1.28 -0.14 c-0.08 -0.3 -0.1 -0.7 -0.1 -1.04 s0.02 -0.74 0.1 -1.04 c0.28 -0.08 0.92 -0.14 1.28 -0.14 c0.34 0 1 0.06 1.28 0.14 z M39.92 20 l0 -8.96 c0.86 0.04 1.9 0.24 2.48 0.5 l0 8.46 l-2.48 0 z M46.4 20 l-2.46 0 l0 -4.54 c0 -1.48 0.1 -2.9 0.32 -4.14 c0.96 -0.38 2.32 -0.6 3.5 -0.6 c1.16 0 2.52 0.22 3.48 0.6 c0.22 1.24 0.32 2.66 0.32 4.14 l0 4.54 l-2.46 0 l0 -4.54 c0 -1.32 -0.14 -2.42 -0.14 -2.42 s-0.52 -0.16 -1.2 -0.16 c-0.7 0 -1.2 0.16 -1.2 0.16 s-0.16 1.1 -0.16 2.42 l0 4.54 z M57.480000000000004 18.32 c1.18 0 1.9 0.14 2.86 0.5 c0 0 0.32 0.98 0.32 2.46 c0 1.5 -0.32 2.46 -0.32 2.46 c-0.96 0.38 -2.32 0.6 -3.5 0.6 c-1.16 0 -2.44 -0.22 -3.4 -0.6 c0 0 -0.28 -0.78 -0.32 -2.1 c0.66 0.18 2.16 0.54 3.72 0.54 c0.7 0 1.2 -0.14 1.2 -0.14 s0.16 -0.14 0.16 -0.76 s-0.16 -0.74 -0.16 -0.74 s-0.14 -0.08 -0.56 -0.08 c-1.16 0 -2.18 -0.18 -3.08 -0.5 c0 0 -0.32 -0.68 -0.32 -2.16 c0 -0.32 0.02 -0.6 0.04 -0.84 l-0.76 -0.24 s-0.32 -1.22 -0.32 -2.7 s0.32 -2.7 0.32 -2.7 c0.96 -0.38 2.32 -0.6 3.48 -0.6 c1.18 0 2.54 0.22 3.5 0.6 c0 0 0.32 1.22 0.32 2.7 s-0.32 2.7 -0.32 2.7 c-0.96 0.38 -2.32 0.58 -3.5 0.58 l-0.28 0 c0 0.16 -0.02 0.32 -0.02 0.5 c0 0.42 0.1 0.46 0.1 0.46 s0.26 0.06 0.84 0.06 z M55.64 13.04 c0 0 -0.14 0.34 -0.14 0.98 s0.14 1 0.14 1 s0.52 0.14 1.2 0.14 c0.7 0 1.2 -0.14 1.2 -0.14 s0.16 -0.38 0.16 -1 s-0.16 -0.98 -0.16 -0.98 s-0.5 -0.16 -1.2 -0.16 c-0.68 0 -1.2 0.16 -1.2 0.16 z  M72.42 18.32 c1.18 0 1.9 0.14 2.86 0.5 c0 0 0.32 0.98 0.32 2.46 c0 1.5 -0.32 2.46 -0.32 2.46 c-0.96 0.38 -2.32 0.6 -3.5 0.6 c-1.16 0 -2.44 -0.22 -3.4 -0.6 c0 0 -0.28 -0.78 -0.32 -2.1 c0.66 0.18 2.16 0.54 3.72 0.54 c0.7 0 1.2 -0.14 1.2 -0.14 s0.16 -0.14 0.16 -0.76 s-0.16 -0.74 -0.16 -0.74 s-0.14 -0.08 -0.56 -0.08 c-1.16 0 -2.18 -0.18 -3.08 -0.5 c0 0 -0.32 -0.68 -0.32 -2.16 c0 -0.32 0.02 -0.6 0.04 -0.84 l-0.76 -0.24 s-0.32 -1.22 -0.32 -2.7 s0.32 -2.7 0.32 -2.7 c0.96 -0.38 2.32 -0.6 3.48 -0.6 c1.18 0 2.54 0.22 3.5 0.6 c0 0 0.32 1.22 0.32 2.7 s-0.32 2.7 -0.32 2.7 c-0.96 0.38 -2.32 0.58 -3.5 0.58 l-0.28 0 c0 0.16 -0.02 0.32 -0.02 0.5 c0 0.42 0.1 0.46 0.1 0.46 s0.26 0.06 0.84 0.06 z M70.58 13.04 c0 0 -0.14 0.34 -0.14 0.98 s0.14 1 0.14 1 s0.52 0.14 1.2 0.14 c0.7 0 1.2 -0.14 1.2 -0.14 s0.16 -0.38 0.16 -1 s-0.16 -0.98 -0.16 -0.98 s-0.5 -0.16 -1.2 -0.16 c-0.68 0 -1.2 0.16 -1.2 0.16 z M82.22 11.04 l2.48 0 l0 4.42 c0 1.48 -0.12 2.9 -0.34 4.14 c-0.96 0.38 -2.3 0.58 -3.48 0.58 s-2.52 -0.2 -3.48 -0.58 c-0.22 -1.24 -0.34 -2.66 -0.34 -4.14 l0 -4.42 l2.48 0 l0 4.42 c0 1.32 0.14 2.42 0.14 2.42 s0.5 0.16 1.2 0.16 s1.2 -0.16 1.2 -0.16 s0.14 -1.1 0.14 -2.42 l0 -4.42 z M88.75999999999999 6.9399999999999995 c0.06 0.3 0.1 0.7 0.1 1.04 s-0.04 0.74 -0.1 1.04 c-0.28 0.08 -0.94 0.14 -1.28 0.14 c-0.36 0 -1 -0.06 -1.28 -0.14 c-0.08 -0.3 -0.1 -0.7 -0.1 -1.04 s0.02 -0.74 0.1 -1.04 c0.28 -0.08 0.92 -0.14 1.28 -0.14 c0.34 0 1 0.06 1.28 0.14 z M86.24 20 l0 -8.96 c0.86 0.04 1.9 0.24 2.48 0.5 l0 8.46 l-2.48 0 z M95.36 10.82 l0 -4.12 c0.84 0.02 1.88 0.2 2.46 0.48 l0 8.28 c0 1.5 -0.1 2.9 -0.32 4.14 c-0.96 0.38 -2.3 0.58 -3.48 0.58 s-2.52 -0.2 -3.5 -0.58 c-0.2 -1.24 -0.32 -2.66 -0.32 -4.14 s0.12 -2.9 0.32 -4.14 c0.98 -0.38 2.32 -0.6 3.5 -0.6 c0.44 0 0.88 0.04 1.34 0.1 z M95.36 15.46 l0 -2.44 c-0.36 -0.08 -0.84 -0.14 -1.34 -0.14 c-0.7 0 -1.2 0.16 -1.2 0.16 s-0.14 1.1 -0.14 2.42 s0.14 2.44 0.14 2.44 s0.5 0.14 1.2 0.14 s1.2 -0.14 1.2 -0.14 s0.14 -1.12 0.14 -2.44 z M106.92 15.46 l0 1.1 l-5.12 0 c0.04 0.78 0.12 1.34 0.12 1.34 s0.5 0.14 1.2 0.14 c1.78 0 3.08 -0.3 3.72 -0.48 c-0.04 0.7 -0.12 1.4 -0.24 2.04 c-0.96 0.38 -2.3 0.58 -3.48 0.58 s-2.54 -0.2 -3.5 -0.58 c-0.2 -1.24 -0.32 -2.66 -0.32 -4.14 s0.12 -2.9 0.32 -4.14 c0.96 -0.38 2.32 -0.6 3.5 -0.6 s2.52 0.22 3.48 0.6 c0.22 1.24 0.32 2.66 0.32 4.14 z M103.12 12.879999999999999 c-0.7 0 -1.2 0.16 -1.2 0.16 s-0.08 0.56 -0.12 1.36 l2.62 0 c-0.04 -0.8 -0.1 -1.36 -0.1 -1.36 s-0.5 -0.16 -1.2 -0.16 z"></path></g><g id="SvgjsG5372" featurekey="text3" fill="#2e51a4" transform="matrix(1.1446398496627808,0,0,1.1446398496627808,99.81685778517758,101.2476737858646)"><path d="M5.34 9.66 l0 10.34 l-1.3 0 l0 -10.34 l-3.88 0 l0 -1.02 l9.04 0 l0 1.02 l-3.86 0 z M11.639999999999999 8.64 l0 4.96 l6.88 0 l0 -4.96 l1.3 0 l0 11.36 l-1.3 0 l0 -5.38 l-6.88 0 l0 5.38 l-1.28 0 l0 -11.36 l1.28 0 z M23.1 13.6 l5.92 0 l0 1.02 l-5.92 0 l0 4.38 l6.5 0 l0 1 l-7.78 0 l0 -11.36 l7.52 0 l0 0.94 l-6.24 0 l0 4.02 z  M42.92 18.64 c0.18 -0.1 0.28 -0.18 0.36 -0.28 c0.1 -0.14 0.12 -0.24 0.18 -0.42 c0.26 -0.96 0.38 -2.28 0.38 -3.64 s-0.12 -2.72 -0.38 -3.62 c-0.08 -0.26 -0.12 -0.34 -0.18 -0.44 c-0.08 -0.08 -0.18 -0.16 -0.36 -0.26 c-0.62 -0.34 -1.62 -0.48 -2.64 -0.48 c-0.98 0 -1.98 0.16 -2.62 0.48 c-0.16 0.1 -0.26 0.18 -0.34 0.26 c-0.08 0.1 -0.12 0.18 -0.2 0.44 c-0.26 0.9 -0.38 2.26 -0.38 3.62 s0.12 2.68 0.38 3.64 c0.06 0.18 0.12 0.32 0.2 0.42 s0.18 0.18 0.32 0.26 c0.66 0.32 1.66 0.46 2.64 0.46 c1.02 0 2.02 -0.14 2.64 -0.44 z M43.879999999999995 19.56 c-1.16 0.5 -2.52 0.54 -3.6 0.54 c-0.98 0 -2.46 -0.04 -3.56 -0.54 c-0.26 -0.1 -0.4 -0.18 -0.5 -0.32 s-0.18 -0.28 -0.26 -0.52 c-0.42 -1.42 -0.46 -3.3 -0.46 -4.4 c0 -1.12 0.02 -2.98 0.46 -4.4 c0.08 -0.26 0.16 -0.38 0.26 -0.52 c0.14 -0.14 0.24 -0.2 0.5 -0.34 c1.06 -0.52 2.72 -0.54 3.56 -0.54 c0.94 0 2.5 0.02 3.6 0.54 c0.24 0.14 0.34 0.2 0.48 0.34 c0.1 0.14 0.18 0.26 0.26 0.52 c0.48 1.4 0.46 3.28 0.46 4.4 c0 1.08 0.02 2.98 -0.46 4.4 c-0.08 0.24 -0.16 0.38 -0.26 0.52 s-0.24 0.22 -0.48 0.32 z M54.28 10.32 c-0.06 -0.1 -0.08 -0.16 -0.14 -0.22 s-0.14 -0.1 -0.28 -0.16 c-0.5 -0.16 -1.18 -0.22 -1.88 -0.22 l-3.8 0 l0 4.92 l3.8 0 c0.7 0 1.38 -0.04 1.88 -0.22 c0.14 -0.04 0.22 -0.08 0.28 -0.14 s0.08 -0.12 0.14 -0.22 c0.3 -0.58 0.3 -1.34 0.3 -1.88 c0 -0.5 0 -1.28 -0.3 -1.86 z M55.44 9.46 c0.44 0.82 0.42 2.1 0.42 2.72 c0 0.66 0.02 1.86 -0.42 2.74 c-0.08 0.16 -0.14 0.24 -0.24 0.32 s-0.24 0.12 -0.42 0.18 c-0.8 0.24 -1.86 0.32 -2.96 0.32 l-3.64 0 l0 4.26 l-1.28 0 l0 -11.36 l4.92 0 c1.1 0 2.16 0.06 2.96 0.3 c0.16 0.06 0.32 0.12 0.42 0.2 s0.16 0.16 0.24 0.32 z M58.6 13.6 l5.92 0 l0 1.02 l-5.92 0 l0 4.38 l6.5 0 l0 1 l-7.78 0 l0 -11.36 l7.52 0 l0 0.94 l-6.24 0 l0 4.02 z M75.24 19.02 l0.04 0 l0 -0.84 l0 -9.54 l1.28 0 l0 11.36 l-2.22 0 l-5.96 -9.58 c-0.18 -0.26 -0.32 -0.54 -0.48 -0.84 l-0.06 0 c0 0.3 0.02 0.6 0.02 0.84 l0 9.58 l-1.28 0 l0 -11.36 l2.04 0 l6.1 9.54 c0.18 0.3 0.34 0.58 0.52 0.84 z M78.24000000000001 16.42 l1.24 0.02 c0 0.62 0.02 1.2 0.18 1.76 c0.06 0.16 0.08 0.26 0.16 0.34 c0.06 0.06 0.16 0.14 0.32 0.2 c0.72 0.3 1.64 0.32 2.36 0.32 c0.96 0 1.88 -0.04 2.62 -0.2 c0.14 -0.04 0.24 -0.08 0.3 -0.1 c0.08 -0.04 0.14 -0.1 0.2 -0.2 c0.24 -0.48 0.32 -0.98 0.32 -1.48 c0 -0.46 -0.06 -0.74 -0.16 -1.2 c-0.06 -0.18 -0.06 -0.24 -0.14 -0.38 c-0.06 -0.06 -0.14 -0.14 -0.28 -0.22 c-0.26 -0.14 -0.66 -0.24 -0.98 -0.32 c-0.46 -0.1 -1.06 -0.18 -2.04 -0.24 c-1.02 -0.08 -1.66 -0.16 -2.14 -0.3 c-0.34 -0.08 -0.66 -0.18 -0.9 -0.32 c-0.22 -0.1 -0.34 -0.2 -0.42 -0.3 s-0.14 -0.24 -0.22 -0.48 c-0.16 -0.54 -0.3 -1.12 -0.3 -1.84 c0 -0.78 0.14 -1.56 0.48 -2.14 c0.1 -0.16 0.16 -0.22 0.3 -0.32 c0.14 -0.08 0.26 -0.12 0.5 -0.18 c0.92 -0.22 1.7 -0.32 3 -0.32 c1.14 0 2.3 0.12 3.16 0.38 c0.22 0.08 0.3 0.12 0.46 0.22 c0.1 0.1 0.16 0.2 0.24 0.36 c0.4 0.78 0.48 1.7 0.48 2.58 l-1.28 -0.04 c-0.02 -0.62 -0.02 -1.04 -0.18 -1.6 c-0.06 -0.16 -0.08 -0.24 -0.16 -0.34 c-0.08 -0.08 -0.16 -0.14 -0.32 -0.22 c-0.74 -0.26 -1.56 -0.3 -2.38 -0.3 c-0.94 0 -1.46 0.02 -2.14 0.18 c-0.16 0.04 -0.28 0.08 -0.36 0.12 c-0.06 0.04 -0.12 0.1 -0.18 0.2 c-0.24 0.46 -0.34 1.02 -0.34 1.5 c0 0.4 0.06 0.68 0.16 1.02 c0.02 0.14 0.06 0.24 0.12 0.32 c0.04 0.06 0.12 0.14 0.26 0.2 c0.22 0.1 0.58 0.2 0.9 0.28 c0.38 0.08 0.92 0.16 1.8 0.22 c1.06 0.08 1.76 0.14 2.32 0.28 c0.32 0.08 0.72 0.18 0.98 0.32 c0.24 0.14 0.36 0.22 0.46 0.32 s0.18 0.26 0.26 0.5 c0.16 0.54 0.34 1.16 0.34 1.88 c0 0.82 -0.12 1.68 -0.5 2.32 c-0.08 0.16 -0.14 0.26 -0.28 0.34 c-0.1 0.08 -0.24 0.12 -0.5 0.2 c-0.9 0.24 -2.14 0.34 -3.42 0.34 c-1.14 0 -2.3 -0.08 -3.12 -0.38 c-0.24 -0.08 -0.38 -0.12 -0.48 -0.2 s-0.16 -0.2 -0.26 -0.38 c-0.32 -0.8 -0.44 -1.82 -0.44 -2.72 z M96.1 18.64 c0.18 -0.1 0.28 -0.18 0.36 -0.28 c0.1 -0.14 0.12 -0.24 0.18 -0.42 c0.26 -0.96 0.38 -2.28 0.38 -3.64 s-0.12 -2.72 -0.38 -3.62 c-0.08 -0.26 -0.12 -0.34 -0.18 -0.44 c-0.08 -0.08 -0.18 -0.16 -0.36 -0.26 c-0.62 -0.34 -1.62 -0.48 -2.64 -0.48 c-0.98 0 -1.98 0.16 -2.62 0.48 c-0.16 0.1 -0.26 0.18 -0.34 0.26 c-0.08 0.1 -0.12 0.18 -0.2 0.44 c-0.26 0.9 -0.38 2.26 -0.38 3.62 s0.12 2.68 0.38 3.64 c0.06 0.18 0.12 0.32 0.2 0.42 s0.18 0.18 0.32 0.26 c0.66 0.32 1.66 0.46 2.64 0.46 c1.02 0 2.02 -0.14 2.64 -0.44 z M97.06 19.56 c-1.16 0.5 -2.52 0.54 -3.6 0.54 c-0.98 0 -2.46 -0.04 -3.56 -0.54 c-0.26 -0.1 -0.4 -0.18 -0.5 -0.32 s-0.18 -0.28 -0.26 -0.52 c-0.42 -1.42 -0.46 -3.3 -0.46 -4.4 c0 -1.12 0.02 -2.98 0.46 -4.4 c0.08 -0.26 0.16 -0.38 0.26 -0.52 c0.14 -0.14 0.24 -0.2 0.5 -0.34 c1.06 -0.52 2.72 -0.54 3.56 -0.54 c0.94 0 2.5 0.02 3.6 0.54 c0.24 0.14 0.34 0.2 0.48 0.34 c0.1 0.14 0.18 0.26 0.26 0.52 c0.48 1.4 0.46 3.28 0.46 4.4 c0 1.08 0.02 2.98 -0.46 4.4 c-0.08 0.24 -0.16 0.38 -0.26 0.52 s-0.24 0.22 -0.48 0.32 z M100.02 14.32 l0 -5.7 l1.24 0 l0 5.68 c0 1.36 0.1 2.68 0.36 3.64 c0.06 0.18 0.1 0.32 0.16 0.42 c0.08 0.1 0.18 0.18 0.32 0.26 c0.58 0.32 1.48 0.46 2.44 0.46 c0.9 0 1.84 -0.14 2.42 -0.46 c0.16 -0.08 0.22 -0.16 0.3 -0.26 c0.08 -0.14 0.1 -0.18 0.18 -0.42 c0.26 -0.96 0.36 -2.28 0.36 -3.64 l0 -5.66 l1.24 -0.02 l0 5.7 c0 1.08 -0.02 3 -0.44 4.4 c-0.08 0.24 -0.14 0.38 -0.24 0.52 s-0.24 0.22 -0.46 0.32 c-1.06 0.5 -2.44 0.54 -3.36 0.54 c-0.98 0 -2.32 -0.04 -3.38 -0.54 c-0.24 -0.1 -0.36 -0.18 -0.46 -0.32 s-0.16 -0.28 -0.24 -0.52 c-0.42 -1.42 -0.44 -3.32 -0.44 -4.4 z M118.02000000000001 14.940000000000001 l0 0.06 c0.22 0.06 0.4 0.08 0.64 0.16 c0.24 0.06 0.32 0.1 0.46 0.18 c0.1 0.08 0.2 0.16 0.28 0.3 c0.34 0.62 0.46 1.32 0.46 2.1 l0 2.26 l-1.28 0 l0 -2.26 c0 -0.58 -0.06 -1.18 -0.2 -1.6 c-0.02 -0.1 -0.08 -0.18 -0.14 -0.24 c-0.02 -0.04 -0.08 -0.08 -0.18 -0.14 c-0.4 -0.16 -0.92 -0.24 -1.46 -0.24 l-4.34 0 l0 4.48 l-1.28 0 l0 -11.36 l4.84 0 c1.1 0 2.16 0.08 2.96 0.26 c0.18 0.06 0.28 0.08 0.42 0.16 c0.1 0.08 0.16 0.12 0.24 0.26 c0.48 0.68 0.42 2.04 0.42 2.56 c0 0.56 0.04 1.62 -0.42 2.4 c-0.08 0.16 -0.14 0.24 -0.24 0.3 c-0.08 0.06 -0.24 0.12 -0.42 0.18 c-0.26 0.08 -0.52 0.12 -0.76 0.18 z M118.28 10.3 c-0.06 -0.1 -0.08 -0.16 -0.14 -0.22 c-0.08 -0.06 -0.18 -0.1 -0.3 -0.14 c-0.48 -0.16 -1.16 -0.22 -1.86 -0.22 l-3.72 0 l0 4.78 l3.72 0 c0.7 0 1.38 -0.06 1.88 -0.24 c0.14 -0.04 0.22 -0.08 0.28 -0.12 c0.06 -0.06 0.08 -0.1 0.16 -0.24 c0.22 -0.54 0.28 -1.3 0.28 -1.8 c0 -0.48 -0.06 -1.22 -0.3 -1.8 z M129.9 16.44 l1.26 0 c0 0.82 -0.1 1.82 -0.44 2.64 c-0.08 0.18 -0.14 0.3 -0.24 0.4 c-0.1 0.08 -0.22 0.14 -0.44 0.22 c-1.1 0.36 -2.5 0.4 -3.44 0.4 c-1.1 0 -2.56 -0.04 -3.78 -0.54 c-0.24 -0.1 -0.36 -0.18 -0.5 -0.32 c-0.1 -0.14 -0.18 -0.28 -0.28 -0.52 c-0.48 -1.42 -0.48 -3.32 -0.48 -4.4 c0 -1.12 0 -3 0.48 -4.4 c0.1 -0.26 0.18 -0.38 0.28 -0.52 c0.14 -0.14 0.26 -0.2 0.5 -0.34 c1.16 -0.52 2.82 -0.54 3.78 -0.54 c0.86 0 2.3 0 3.38 0.42 c0.22 0.08 0.34 0.16 0.44 0.26 c0.08 0.08 0.16 0.22 0.24 0.4 c0.32 0.78 0.42 1.72 0.44 2.52 l-1.26 0 c-0.02 -0.72 -0.12 -1.44 -0.36 -1.94 c-0.06 -0.1 -0.1 -0.18 -0.16 -0.24 s-0.16 -0.1 -0.32 -0.16 c-0.56 -0.22 -1.5 -0.28 -2.4 -0.28 c-1.06 0 -2.16 0.14 -2.82 0.48 c-0.18 0.1 -0.28 0.18 -0.36 0.26 c-0.08 0.1 -0.14 0.2 -0.22 0.46 c-0.3 0.88 -0.4 2.24 -0.4 3.6 s0.12 2.7 0.38 3.6 c0.08 0.24 0.16 0.36 0.24 0.46 s0.18 0.18 0.36 0.26 c0.66 0.32 1.76 0.46 2.82 0.46 c0.94 0 1.88 -0.1 2.46 -0.28 c0.16 -0.06 0.24 -0.08 0.32 -0.14 s0.12 -0.16 0.18 -0.26 c0.22 -0.54 0.32 -1.22 0.34 -1.96 z M134.04000000000002 13.6 l5.92 0 l0 1.02 l-5.92 0 l0 4.38 l6.5 0 l0 1 l-7.78 0 l0 -11.36 l7.52 0 l0 0.94 l-6.24 0 l0 4.02 z  M154.78 16.44 l1.26 0 c0 0.82 -0.1 1.82 -0.44 2.64 c-0.08 0.18 -0.14 0.3 -0.24 0.4 c-0.1 0.08 -0.22 0.14 -0.44 0.22 c-1.1 0.36 -2.5 0.4 -3.44 0.4 c-1.1 0 -2.56 -0.04 -3.78 -0.54 c-0.24 -0.1 -0.36 -0.18 -0.5 -0.32 c-0.1 -0.14 -0.18 -0.28 -0.28 -0.52 c-0.48 -1.42 -0.48 -3.32 -0.48 -4.4 c0 -1.12 0 -3 0.48 -4.4 c0.1 -0.26 0.18 -0.38 0.28 -0.52 c0.14 -0.14 0.26 -0.2 0.5 -0.34 c1.16 -0.52 2.82 -0.54 3.78 -0.54 c0.86 0 2.3 0 3.38 0.42 c0.22 0.08 0.34 0.16 0.44 0.26 c0.08 0.08 0.16 0.22 0.24 0.4 c0.32 0.78 0.42 1.72 0.44 2.52 l-1.26 0 c-0.02 -0.72 -0.12 -1.44 -0.36 -1.94 c-0.06 -0.1 -0.1 -0.18 -0.16 -0.24 s-0.16 -0.1 -0.32 -0.16 c-0.56 -0.22 -1.5 -0.28 -2.4 -0.28 c-1.06 0 -2.16 0.14 -2.82 0.48 c-0.18 0.1 -0.28 0.18 -0.36 0.26 c-0.08 0.1 -0.14 0.2 -0.22 0.46 c-0.3 0.88 -0.4 2.24 -0.4 3.6 s0.12 2.7 0.38 3.6 c0.08 0.24 0.16 0.36 0.24 0.46 s0.18 0.18 0.36 0.26 c0.66 0.32 1.76 0.46 2.82 0.46 c0.94 0 1.88 -0.1 2.46 -0.28 c0.16 -0.06 0.24 -0.08 0.32 -0.14 s0.12 -0.16 0.18 -0.26 c0.22 -0.54 0.32 -1.22 0.34 -1.96 z M157.64000000000001 20 l0 -11.36 l1.28 0 l0 10.32 l5.9 0 l0 1.04 l-7.18 0 z M166.06 8.64 l1.28 0 l0 11.36 l-1.28 0 l0 -11.36 z M169.34 20 l0 -11.36 l1.92 0 l4.54 10 l0.06 0 l4.42 -10 l1.92 0 l0 11.36 l-1.3 0 l0 -9.3 c0 -0.22 0.02 -0.42 0.02 -0.66 l-0.02 0 c-0.1 0.24 -0.18 0.44 -0.26 0.66 l-3.98 9.3 l-1.66 0 l-4.06 -9.3 c-0.1 -0.22 -0.2 -0.42 -0.28 -0.66 l-0.04 0 l0 0.66 l0 9.3 l-1.28 0 z M189.16 9.58 l-3.68 0 l0 4.02 l4.3 0 c0.54 0 1.06 -0.06 1.44 -0.22 c0.1 -0.04 0.16 -0.08 0.2 -0.12 c0.06 -0.06 0.1 -0.12 0.12 -0.22 c0.16 -0.4 0.22 -0.92 0.22 -1.46 c0 -0.5 -0.06 -1.06 -0.28 -1.44 c-0.06 -0.1 -0.1 -0.18 -0.16 -0.22 c-0.04 -0.04 -0.12 -0.08 -0.26 -0.12 c-0.54 -0.16 -1.2 -0.22 -1.9 -0.22 z M189.29999999999998 20 l-5.1 0 l0 -11.36 l5.1 0 c0.98 0 1.98 0.06 2.7 0.28 c0.18 0.08 0.32 0.12 0.4 0.18 c0.1 0.08 0.16 0.16 0.24 0.32 c0.3 0.56 0.36 1.32 0.36 2.06 c0 0.72 -0.08 1.42 -0.38 1.98 c-0.08 0.14 -0.12 0.22 -0.22 0.3 c-0.14 0.06 -0.22 0.08 -0.38 0.14 c-0.18 0.06 -0.36 0.12 -0.54 0.14 l0 0.06 c0.22 0.02 0.46 0.08 0.64 0.14 c0.26 0.08 0.38 0.12 0.48 0.2 s0.18 0.16 0.28 0.34 c0.32 0.62 0.46 1.42 0.46 2.22 s-0.12 1.6 -0.42 2.18 c-0.08 0.16 -0.16 0.24 -0.24 0.32 c-0.1 0.08 -0.22 0.12 -0.48 0.2 c-0.72 0.22 -1.84 0.3 -2.9 0.3 z M185.48 19 l3.98 0 c0.66 0 1.38 -0.06 1.88 -0.22 c0.14 -0.06 0.2 -0.08 0.28 -0.14 c0.06 -0.06 0.1 -0.12 0.16 -0.22 c0.22 -0.46 0.28 -1.02 0.28 -1.58 c0 -0.58 -0.06 -1.18 -0.22 -1.6 c-0.06 -0.1 -0.08 -0.16 -0.14 -0.22 c-0.04 -0.06 -0.12 -0.1 -0.22 -0.16 c-0.38 -0.16 -0.9 -0.24 -1.4 -0.24 l-4.6 0 l0 4.38 z M195.04 8.64 l1.28 0 l0 11.36 l-1.28 0 l0 -11.36 z M206.98 19.02 l0.04 0 l0 -0.84 l0 -9.54 l1.28 0 l0 11.36 l-2.22 0 l-5.96 -9.58 c-0.18 -0.26 -0.32 -0.54 -0.48 -0.84 l-0.06 0 c0 0.3 0.02 0.6 0.02 0.84 l0 9.58 l-1.28 0 l0 -11.36 l2.04 0 l6.1 9.54 c0.18 0.3 0.34 0.58 0.52 0.84 z M217.85999999999999 18.82 c0.1 -0.04 0.16 -0.08 0.2 -0.12 c0.06 -0.06 0.08 -0.12 0.14 -0.26 c0.16 -0.42 0.26 -1.06 0.26 -1.68 l0 -1.52 l-3.42 0 l0 -1.06 l4.68 0 l0 5.82 l-1.08 0 l-0.12 -1.12 l-0.06 0 c-0.02 0.14 -0.06 0.28 -0.1 0.4 c-0.06 0.16 -0.1 0.26 -0.16 0.32 s-0.14 0.12 -0.26 0.18 c-0.72 0.34 -1.52 0.32 -2.3 0.32 c-1.4 0 -2.94 0.04 -4.26 -0.54 c-0.24 -0.1 -0.4 -0.18 -0.5 -0.32 s-0.18 -0.28 -0.28 -0.54 c-0.48 -1.38 -0.48 -3.3 -0.48 -4.38 c0 -1.12 0 -3 0.48 -4.4 c0.1 -0.26 0.18 -0.38 0.28 -0.52 c0.14 -0.14 0.26 -0.22 0.52 -0.36 c1.14 -0.48 2.8 -0.52 3.76 -0.52 c0.86 0 2.3 0 3.38 0.42 c0.22 0.08 0.34 0.16 0.44 0.26 c0.08 0.08 0.16 0.22 0.24 0.4 c0.32 0.72 0.42 1.62 0.44 2.4 l-1.28 0 c-0.02 -0.7 -0.12 -1.34 -0.34 -1.82 c-0.06 -0.1 -0.1 -0.18 -0.16 -0.24 s-0.16 -0.1 -0.32 -0.16 c-0.56 -0.22 -1.5 -0.28 -2.4 -0.28 c-1.06 0 -2.16 0.14 -2.82 0.48 c-0.18 0.1 -0.28 0.18 -0.36 0.26 c-0.08 0.1 -0.14 0.2 -0.22 0.42 c-0.3 0.94 -0.4 2.28 -0.4 3.64 s0.1 2.68 0.4 3.62 c0.08 0.22 0.14 0.34 0.22 0.44 c0.08 0.08 0.18 0.16 0.36 0.24 c0.98 0.48 2.22 0.48 3.24 0.48 c0.78 0 1.56 0.04 2.28 -0.26 z  M233.71999999999997 18.82 c0.1 -0.04 0.16 -0.08 0.2 -0.12 c0.06 -0.06 0.08 -0.12 0.14 -0.26 c0.16 -0.42 0.26 -1.06 0.26 -1.68 l0 -1.52 l-3.42 0 l0 -1.06 l4.68 0 l0 5.82 l-1.08 0 l-0.12 -1.12 l-0.06 0 c-0.02 0.14 -0.06 0.28 -0.1 0.4 c-0.06 0.16 -0.1 0.26 -0.16 0.32 s-0.14 0.12 -0.26 0.18 c-0.72 0.34 -1.52 0.32 -2.3 0.32 c-1.4 0 -2.94 0.04 -4.26 -0.54 c-0.24 -0.1 -0.4 -0.18 -0.5 -0.32 s-0.18 -0.28 -0.28 -0.54 c-0.48 -1.38 -0.48 -3.3 -0.48 -4.38 c0 -1.12 0 -3 0.48 -4.4 c0.1 -0.26 0.18 -0.38 0.28 -0.52 c0.14 -0.14 0.26 -0.22 0.52 -0.36 c1.14 -0.48 2.8 -0.52 3.76 -0.52 c0.86 0 2.3 0 3.38 0.42 c0.22 0.08 0.34 0.16 0.44 0.26 c0.08 0.08 0.16 0.22 0.24 0.4 c0.32 0.72 0.42 1.62 0.44 2.4 l-1.28 0 c-0.02 -0.7 -0.12 -1.34 -0.34 -1.82 c-0.06 -0.1 -0.1 -0.18 -0.16 -0.24 s-0.16 -0.1 -0.32 -0.16 c-0.56 -0.22 -1.5 -0.28 -2.4 -0.28 c-1.06 0 -2.16 0.14 -2.82 0.48 c-0.18 0.1 -0.28 0.18 -0.36 0.26 c-0.08 0.1 -0.14 0.2 -0.22 0.42 c-0.3 0.94 -0.4 2.28 -0.4 3.64 s0.1 2.68 0.4 3.62 c0.08 0.22 0.14 0.34 0.22 0.44 c0.08 0.08 0.18 0.16 0.36 0.24 c0.98 0.48 2.22 0.48 3.24 0.48 c0.78 0 1.56 0.04 2.28 -0.26 z M237.35999999999996 14.32 l0 -5.7 l1.24 0 l0 5.68 c0 1.36 0.1 2.68 0.36 3.64 c0.06 0.18 0.1 0.32 0.16 0.42 c0.08 0.1 0.18 0.18 0.32 0.26 c0.58 0.32 1.48 0.46 2.44 0.46 c0.9 0 1.84 -0.14 2.42 -0.46 c0.16 -0.08 0.22 -0.16 0.3 -0.26 c0.08 -0.14 0.1 -0.18 0.18 -0.42 c0.26 -0.96 0.36 -2.28 0.36 -3.64 l0 -5.66 l1.24 -0.02 l0 5.7 c0 1.08 -0.02 3 -0.44 4.4 c-0.08 0.24 -0.14 0.38 -0.24 0.52 s-0.24 0.22 -0.46 0.32 c-1.06 0.5 -2.44 0.54 -3.36 0.54 c-0.98 0 -2.32 -0.04 -3.38 -0.54 c-0.24 -0.1 -0.36 -0.18 -0.46 -0.32 s-0.16 -0.28 -0.24 -0.52 c-0.42 -1.42 -0.44 -3.32 -0.44 -4.4 z M248.31999999999996 8.64 l1.28 0 l0 11.36 l-1.28 0 l0 -11.36 z M256.29999999999995 20 l-4.7 0 l0 -11.36 l4.7 0 c1 0 2.62 0 3.78 0.52 c0.26 0.14 0.4 0.22 0.5 0.32 c0.1 0.14 0.18 0.26 0.28 0.52 c0.52 1.32 0.48 3.28 0.48 4.32 c0 1.06 0.04 2.92 -0.48 4.32 c-0.08 0.22 -0.14 0.38 -0.28 0.52 c-0.1 0.1 -0.24 0.18 -0.5 0.32 c-1.18 0.48 -2.68 0.52 -3.78 0.52 z M252.87999999999997 19 l3.42 0 c1.06 0 2.18 -0.14 2.8 -0.44 c0.22 -0.1 0.32 -0.18 0.4 -0.28 s0.14 -0.22 0.2 -0.4 c0.3 -0.94 0.4 -2.24 0.4 -3.58 s-0.16 -2.66 -0.42 -3.54 c-0.08 -0.24 -0.12 -0.36 -0.18 -0.44 c-0.08 -0.1 -0.18 -0.18 -0.4 -0.28 c-0.62 -0.32 -1.74 -0.46 -2.8 -0.46 l-3.42 0 l0 9.42 z M264.43999999999994 13.6 l5.92 0 l0 1.02 l-5.92 0 l0 4.38 l6.5 0 l0 1 l-7.78 0 l0 -11.36 l7.52 0 l0 0.94 l-6.24 0 l0 4.02 z"></path></g></svg>
